<svg width="128" height="128" viewBox="0 0 128 128" fill="none" xmlns="http://www.w3.org/2000/svg">
<path d="M128 64C128 99.3462 99.3462 128 64 128C28.6538 128 0 99.3462 0 64C0 28.6538 28.6538 0 64 0C99.3462 0 128 28.6538 128 64Z" fill="white"/>
<path fill-rule="evenodd" clip-rule="evenodd" d="M9.61933 97.761C20.9138 115.915 41.0459 128 64.0005 128C99.3467 128 128 99.3462 128 64C128 28.6538 99.3467 0 64.0005 0C28.6543 0 0.000488281 28.6538 0.000488281 64C0.000488281 76.3916 3.52219 87.9607 9.61933 97.761ZM14.3668 97.7225H17.7368V42.2435C17.7368 39.7592 19.7506 37.7452 22.2347 37.7452H106.196C108.68 37.7452 110.694 39.7592 110.694 42.2435V97.7225H113.634C120.176 88.112 124 76.5026 124 64C124 30.8629 97.1376 4 64.0005 4C30.8634 4 4.00049 30.8629 4.00049 64C4.00049 76.5026 7.82454 88.112 14.3668 97.7225Z" fill="#FF8047"/>
<path d="M27.481 33.2468C25.8249 33.2468 24.4824 34.5895 24.4824 36.2457V91.7246C24.4824 93.3808 25.8249 94.7235 27.481 94.7235H56.7176C59.6157 94.7235 61.9651 97.0731 61.9651 99.9715C61.9651 101.214 62.972 102.221 64.2141 102.221C65.4562 102.221 66.4631 101.214 66.4631 99.9715C66.4631 97.0731 68.8125 94.7235 71.7106 94.7235H100.947C102.603 94.7235 103.946 93.3808 103.946 91.7246V36.2457C103.946 34.5895 102.603 33.2468 100.947 33.2468H27.481Z" fill="#FFFF01"/>
<path d="M83.144 87.2264C84.386 87.2264 85.3929 86.2194 85.3929 84.9773C85.3929 83.7351 84.386 82.7281 83.144 82.7281L70.9621 82.7281C69.72 82.7281 68.7131 83.7351 68.7131 84.9773C68.7131 86.2194 69.72 87.2264 70.9621 87.2264L83.144 87.2264Z" fill="#01D098"/>
<path d="M99.449 84.9773C99.449 86.2194 98.4421 87.2264 97.2 87.2264H91.3902C90.1481 87.2264 89.1412 86.2194 89.1412 84.9773C89.1412 83.7351 90.1481 82.7281 91.3902 82.7281H97.2C98.4421 82.7281 99.449 83.7351 99.449 84.9773Z" fill="#01D098"/>
<path d="M99.449 75.9806C99.449 77.2228 98.4421 78.2298 97.2 78.2298L70.9621 78.2298C69.72 78.2298 68.7131 77.2228 68.7131 75.9806C68.7131 74.7385 69.72 73.7315 70.9621 73.7315L97.2 73.7315C98.4421 73.7315 99.449 74.7385 99.449 75.9806Z" fill="#01D098"/>
<path d="M75.4601 66.984C75.4601 68.2262 74.4532 69.2332 73.2111 69.2332L70.9621 69.2332C69.7201 69.2332 68.7132 68.2262 68.7132 66.984C68.7132 65.7418 69.7201 64.7349 70.9621 64.7349L73.2111 64.7349C74.4532 64.7349 75.4601 65.7418 75.4601 66.984Z" fill="#01D098"/>
<path d="M97.2 69.2332C98.4421 69.2332 99.449 68.2262 99.449 66.984C99.449 65.7418 98.4421 64.7349 97.2 64.7349L82.207 64.7349C80.9649 64.7349 79.958 65.7418 79.958 66.984C79.958 68.2262 80.9649 69.2332 82.207 69.2332L97.2 69.2332Z" fill="#01D098"/>
<path d="M28.9814 66.9841C28.9814 65.7419 29.9883 64.735 31.2304 64.735H57.4683C58.7104 64.735 59.7173 65.7419 59.7173 66.9841C59.7173 68.2263 58.7104 69.2332 57.4683 69.2332H31.2304C29.9883 69.2332 28.9814 68.2263 28.9814 66.9841Z" fill="#01D098"/>
<path d="M28.9814 75.9807C28.9814 74.7385 29.9883 73.7315 31.2304 73.7315H37.0402C38.2823 73.7315 39.2892 74.7385 39.2892 75.9807C39.2892 77.2229 38.2823 78.2298 37.0402 78.2298H31.2304C29.9883 78.2298 28.9814 77.2229 28.9814 75.9807Z" fill="#01D098"/>
<path d="M45.2864 73.7315C44.0444 73.7315 43.0375 74.7385 43.0375 75.9807C43.0375 77.2229 44.0444 78.2298 45.2864 78.2298H57.4683C58.7104 78.2298 59.7173 77.2229 59.7173 75.9807C59.7173 74.7385 58.7104 73.7315 57.4683 73.7315H45.2864Z" fill="#01D098"/>
<path d="M52.9704 84.9773C52.9704 83.7351 53.9773 82.7281 55.2193 82.7281H57.4683C58.7104 82.7281 59.7173 83.7351 59.7173 84.9773C59.7173 86.2194 58.7104 87.2264 57.4683 87.2264H55.2193C53.9773 87.2264 52.9704 86.2194 52.9704 84.9773Z" fill="#01D098"/>
<path d="M31.2304 82.7281C29.9883 82.7281 28.9814 83.7351 28.9814 84.9773C28.9814 86.2194 29.9883 87.2264 31.2304 87.2264H46.2235C47.4656 87.2264 48.4725 86.2194 48.4725 84.9773C48.4725 83.7351 47.4656 82.7281 46.2235 82.7281H31.2304Z" fill="#01D098"/>
<path d="M61.9657 42.6184C61.9657 50.0714 56.9312 56.1133 50.7209 56.1133C44.5105 56.1133 39.4761 50.0714 39.4761 42.6184C39.4761 35.1654 44.5105 29.1235 50.7209 29.1235C56.9312 29.1235 61.9657 35.1654 61.9657 42.6184Z" fill="white"/>
<path d="M88.9533 42.6184C88.9533 50.0714 83.9188 56.1133 77.7084 56.1133C71.4981 56.1133 66.4636 50.0714 66.4636 42.6184C66.4636 35.1654 71.4981 29.1235 77.7084 29.1235C83.9188 29.1235 88.9533 35.1654 88.9533 42.6184Z" fill="white"/>
<path d="M58.2177 42.6183C58.2177 47.587 54.8614 51.6149 50.7212 51.6149C46.5809 51.6149 43.2246 47.587 43.2246 42.6183C43.2246 37.6496 46.5809 33.6217 50.7212 33.6217C54.8614 33.6217 58.2177 37.6496 58.2177 42.6183Z" fill="#1E4DF8"/>
<path d="M85.2053 42.6183C85.2053 47.587 81.8489 51.6149 77.7087 51.6149C73.5685 51.6149 70.2122 47.587 70.2122 42.6183C70.2122 37.6496 73.5685 33.6217 77.7087 33.6217C81.8489 33.6217 85.2053 37.6496 85.2053 42.6183Z" fill="#1E4DF8"/>
<path fill-rule="evenodd" clip-rule="evenodd" d="M50.7204 60.2366C56.7481 60.2366 61.564 56.6546 64.2142 51.6743C66.8644 56.6546 71.6802 60.2366 77.7079 60.2366C86.2511 60.2366 92.3599 53.0411 93.3189 44.8674H99.4479C100.69 44.8674 101.697 43.8605 101.697 42.6183C101.697 41.3761 100.69 40.3692 99.4479 40.3692H93.3189C92.3599 32.1955 86.2511 25 77.7079 25C71.6802 25 66.8644 28.582 64.2142 33.5623C61.564 28.582 56.7481 25 50.7204 25C42.1772 25 36.0684 32.1955 35.1095 40.3692H28.9804C27.7383 40.3692 26.7314 41.3761 26.7314 42.6183C26.7314 43.8605 27.7383 44.8674 28.9804 44.8674H35.1095C36.0684 53.0411 42.1772 60.2366 50.7204 60.2366ZM66.4631 42.6183C66.4631 49.8643 71.4976 55.7383 77.7079 55.7383C83.9183 55.7383 88.9528 49.8643 88.9528 42.6183C88.9528 35.3723 83.9183 29.4983 77.7079 29.4983C71.4976 29.4983 66.4631 35.3723 66.4631 42.6183ZM61.9652 42.6183C61.9652 49.8643 56.9307 55.7383 50.7204 55.7383C44.51 55.7383 39.4756 49.8643 39.4756 42.6183C39.4756 35.3723 44.51 29.4983 50.7204 29.4983C56.9307 29.4983 61.9652 35.3723 61.9652 42.6183Z" fill="#01A182"/>
</svg>
