<svg width="64" height="64" viewBox="0 0 64 64" fill="none" xmlns="http://www.w3.org/2000/svg">
<g clip-path="url(#clip0_1008_234)">
<path d="M21.1148 15.3916V49.0689H32.3279C36.306 49.0689 39.4317 48.1918 41.7049 46.4378C43.9781 44.6838 45.1148 42.2939 45.1148 39.2682C45.1148 37.2511 44.5683 35.5409 43.4754 34.1377C42.4262 32.6906 40.9617 31.704 39.082 31.1778C40.4809 30.52 41.5738 29.5773 42.3607 28.3494C43.1475 27.0778 43.541 25.6745 43.541 24.1398C43.541 22.1226 43.1038 20.5221 42.2295 19.3381C41.3552 18.1542 40.3279 17.2771 39.1475 16.7071C37.9672 16.137 36.765 15.7862 35.541 15.6547C34.3607 15.4793 33.4645 15.3916 32.8525 15.3916H21.1148ZM32 0C36.4153 0 40.5683 0.855087 44.459 2.56526C48.3497 4.23159 51.7377 6.51182 54.6229 9.40596C57.5082 12.3001 59.7814 15.6985 61.4426 19.6012C63.1475 23.5039 64 27.6698 64 32.0987C64 36.5276 63.1475 40.6934 61.4426 44.5961C59.7814 48.455 57.5082 51.8314 54.6229 54.7256C51.7377 57.5759 48.3497 59.8342 44.459 61.5005C40.5683 63.1668 36.4153 64 32 64C27.5847 64 23.4317 63.1668 19.541 61.5005C15.6503 59.8342 12.2623 57.5759 9.37705 54.7256C6.4918 51.8314 4.19672 48.455 2.4918 44.5961C0.830601 40.6934 0 36.5276 0 32.0987C0 27.6698 0.830601 23.5039 2.4918 19.6012C4.19672 15.6985 6.4918 12.3001 9.37705 9.40596C12.2623 6.51182 15.6503 4.23159 19.541 2.56526C23.4317 0.855087 27.5847 0 32 0ZM26.6885 44.1357V34.0719H32.3279C37.0929 34.0719 39.4754 35.7383 39.4754 39.0709C39.4754 40.1672 39.2131 41.0442 38.6885 41.702C38.1639 42.3597 37.5082 42.8859 36.7213 43.2806C35.9781 43.6314 35.1475 43.8726 34.2295 44.0041C33.3552 44.0918 32.5683 44.1357 31.8689 44.1357H26.6885ZM38.0328 24.6002C38.0328 26.0473 37.5082 27.1874 36.459 28.0206C35.4098 28.8099 33.9672 29.2045 32.1311 29.2045H26.6885V20.1932H31.4098C35.8251 20.1932 38.0328 21.6622 38.0328 24.6002Z" fill="#111827"/>
</g>
<defs>
<clipPath id="clip0_1008_234">
<rect width="64" height="64" fill="white"/>
</clipPath>
</defs>
</svg>
