<svg width="64" height="64" viewBox="0 0 64 64" fill="none" xmlns="http://www.w3.org/2000/svg">
<g clip-path="url(#clip0_1008_236)">
<path d="M32.2954 48.2138L47.1959 23.3505C47.2834 23.2628 47.2834 23.1751 47.1959 23.0874C47.1084 22.9558 46.999 22.89 46.8677 22.89H17.1323C17.001 22.89 16.8916 22.9558 16.8041 23.0874C16.7603 23.1751 16.7822 23.2628 16.8697 23.3505L31.7703 48.2138C31.8578 48.4769 32.0328 48.4769 32.2954 48.2138ZM32.0328 0C34.9648 0 37.7874 0.394656 40.5005 1.18397C43.2574 1.92943 45.8174 3.00377 48.1805 4.40699C50.5436 5.81021 52.6879 7.49846 54.6133 9.47174C56.5826 11.4012 58.2455 13.5498 59.6021 15.9178C61.0024 18.2857 62.0745 20.851 62.8185 23.6136C63.6062 26.3323 64 29.1607 64 32.0987C64 36.5276 63.1467 40.6934 61.44 44.5961C59.7771 48.455 57.5015 51.8314 54.6133 54.7256C51.7251 57.5759 48.3337 59.8342 44.439 61.5005C40.5443 63.1668 36.4089 64 32.0328 64C27.613 64 23.4557 63.1668 19.561 61.5005C15.6663 59.8342 12.2749 57.5759 9.38667 54.7256C6.49846 51.8314 4.20103 48.455 2.49436 44.5961C0.831453 40.6934 0 36.5276 0 32.0987C0 27.6698 0.831453 23.5039 2.49436 19.6012C4.20103 15.6985 6.49846 12.3001 9.38667 9.40596C12.2749 6.51182 15.6663 4.23159 19.561 2.56526C23.4557 0.855087 27.613 0 32.0328 0Z" fill="#111827"/>
</g>
<defs>
<clipPath id="clip0_1008_236">
<rect width="64" height="64" fill="white"/>
</clipPath>
</defs>
</svg>
