<svg width="64" height="64" viewBox="0 0 64 64" fill="none" xmlns="http://www.w3.org/2000/svg">
<path d="M64 32.3171C64 30.6258 63.6643 29.019 62.9929 27.4968C62.3635 25.9746 61.4822 24.6638 60.3492 23.5645C59.2582 22.4651 57.9574 21.5983 56.4467 20.9641C54.936 20.2875 53.3415 19.9493 51.6629 19.9493C49.9844 19.9493 48.3898 20.2875 46.8792 20.9641C45.4105 21.5983 44.1096 22.4651 42.9767 23.5645C41.8856 24.6638 41.0044 25.9746 40.333 27.4968C39.7036 29.019 39.3888 30.6258 39.3888 32.3171C39.3888 34.0507 39.7036 35.6786 40.333 37.2008C41.0044 38.6808 41.8856 39.9704 42.9767 41.0698C44.1096 42.1691 45.4105 43.0571 46.8792 43.7336C48.3898 44.3679 49.9844 44.685 51.6629 44.685C53.3415 44.685 54.936 44.3679 56.4467 43.7336C57.9574 43.0571 59.2582 42.1691 60.3492 41.0698C61.4822 39.9704 62.3635 38.6808 62.9929 37.2008C63.6643 35.6786 64 34.0507 64 32.3171ZM13.0782 21.1543C14.5888 21.1543 16.0156 21.4503 17.3584 22.0423C18.7012 22.6342 19.8761 23.4376 20.8832 24.4524C21.8904 25.4672 22.6667 26.6512 23.2122 28.0042C23.7997 29.3573 24.0934 30.7949 24.0934 32.3171C24.0934 33.8393 23.7997 35.277 23.2122 36.63C22.6667 37.9831 21.8904 39.167 20.8832 40.1818C19.8761 41.1966 18.7012 42 17.3584 42.592C16.0156 43.1839 14.5888 43.4799 13.0782 43.4799C11.5675 43.4799 10.1408 43.1839 8.79797 42.592C7.45516 42 6.2802 41.1966 5.2731 40.1818C4.26599 39.167 3.4687 37.9831 2.88122 36.63C2.29374 35.277 2 33.8393 2 32.3171C2 30.7949 2.29374 29.3573 2.88122 28.0042C3.4687 26.6512 4.26599 25.4672 5.2731 24.4524C6.2802 23.4376 7.45516 22.6342 8.79797 22.0423C10.1408 21.4503 11.5675 21.1543 13.0782 21.1543ZM13.0782 25.5307C12.155 25.5307 11.2738 25.7209 10.4345 26.1015C9.63723 26.4397 8.92386 26.926 8.29442 27.5603C7.70694 28.1522 7.22437 28.871 6.8467 29.7167C6.511 30.5201 6.34315 31.3869 6.34315 32.3171C6.34315 33.2474 6.511 34.1353 6.8467 34.981C7.22437 35.7844 7.70694 36.5032 8.29442 37.1374C8.92386 37.7294 9.63723 38.2156 10.4345 38.5962C11.2738 38.9345 12.155 39.1036 13.0782 39.1036C14.0014 39.1036 14.8616 38.9345 15.6589 38.5962C16.4981 38.2156 17.2115 37.7294 17.799 37.1374C18.4284 36.5032 18.911 35.7844 19.2467 34.981C19.6244 34.1353 19.8132 33.2474 19.8132 32.3171C19.8132 31.3869 19.6244 30.5201 19.2467 29.7167C18.911 28.871 18.4284 28.1522 17.799 27.5603C17.2115 26.926 16.4981 26.4397 15.6589 26.1015C14.8616 25.7209 14.0014 25.5307 13.0782 25.5307ZM43.1655 13.1628C43.1655 14.685 42.8717 16.1226 42.2843 17.4757C41.6968 18.8288 40.8995 20.0127 39.8924 21.0275C38.8853 22.0423 37.7103 22.8457 36.3675 23.4376C35.0247 23.9873 33.598 24.2622 32.0873 24.2622C30.5767 24.2622 29.1499 23.9873 27.8071 23.4376C26.4643 22.8457 25.2893 22.0423 24.2822 21.0275C23.2751 20.0127 22.4778 18.8288 21.8904 17.4757C21.3448 16.1226 21.0721 14.685 21.0721 13.1628C21.0721 11.6406 21.3448 10.203 21.8904 8.84989C22.4778 7.49683 23.2751 6.3129 24.2822 5.2981C25.2893 4.2833 26.4643 3.47992 27.8071 2.88795C29.1499 2.29598 30.5767 2 32.0873 2C33.598 2 35.0247 2.29598 36.3675 2.88795C37.7103 3.47992 38.8853 4.2833 39.8924 5.2981C40.8995 6.3129 41.6968 7.49683 42.2843 8.84989C42.8717 10.203 43.1655 11.6406 43.1655 13.1628ZM38.8223 13.1628C38.8223 12.2326 38.6335 11.3658 38.2558 10.5624C37.9201 9.7167 37.4376 8.97674 36.8081 8.34249C36.2206 7.70825 35.5073 7.22199 34.668 6.88372C33.8707 6.50317 33.0105 6.3129 32.0873 6.3129C31.1641 6.3129 30.2829 6.50317 29.4437 6.88372C28.6464 7.22199 27.933 7.70825 27.3036 8.34249C26.7161 8.97674 26.2335 9.7167 25.8558 10.5624C25.5201 11.3658 25.3523 12.2326 25.3523 13.1628C25.3523 14.093 25.5201 14.981 25.8558 15.8266C26.2335 16.63 26.7161 17.3488 27.3036 17.9831C27.933 18.5751 28.6464 19.0613 29.4437 19.4419C30.2829 19.7801 31.1641 19.9493 32.0873 19.9493C33.0105 19.9493 33.8707 19.7801 34.668 19.4419C35.5073 19.0613 36.2206 18.5751 36.8081 17.9831C37.4376 17.3488 37.9201 16.63 38.2558 15.8266C38.6335 14.981 38.8223 14.093 38.8223 13.1628ZM43.1655 51.2178C43.1655 52.6977 42.8717 54.093 42.2843 55.4038C41.6968 56.7146 40.8995 57.8562 39.8924 58.8288C38.8853 59.8013 37.7103 60.5624 36.3675 61.112C35.0247 61.704 33.598 62 32.0873 62C30.5767 62 29.1499 61.704 27.8071 61.112C26.4643 60.5624 25.2893 59.8013 24.2822 58.8288C23.2751 57.8562 22.4778 56.7146 21.8904 55.4038C21.3448 54.093 21.0721 52.6977 21.0721 51.2178C21.0721 49.6956 21.3448 48.2579 21.8904 46.9049C22.4778 45.5518 23.2751 44.3679 24.2822 43.3531C25.2893 42.3383 26.4643 41.5349 27.8071 40.9429C29.1499 40.351 30.5767 40.055 32.0873 40.055C33.598 40.055 35.0247 40.351 36.3675 40.9429C37.7103 41.5349 38.8853 42.3383 39.8924 43.3531C40.8995 44.3679 41.6968 45.5518 42.2843 46.9049C42.8717 48.2579 43.1655 49.6956 43.1655 51.2178ZM38.8223 51.2178C38.8223 50.2875 38.6335 49.4207 38.2558 48.6173C37.9201 47.7717 37.4376 47.0317 36.8081 46.3975C36.2206 45.7632 35.5073 45.277 34.668 44.9387C33.8707 44.5581 33.0105 44.3679 32.0873 44.3679C31.1641 44.3679 30.2829 44.5581 29.4437 44.9387C28.6464 45.277 27.933 45.7632 27.3036 46.3975C26.7161 47.0317 26.2335 47.7717 25.8558 48.6173C25.5201 49.4207 25.3523 50.2875 25.3523 51.2178C25.3523 53.1205 26.0027 54.685 27.3036 55.9112C28.6044 57.0951 30.199 57.6871 32.0873 57.6871C33.9756 57.6871 35.5702 57.0951 36.8711 55.9112C38.1719 54.685 38.8223 53.1205 38.8223 51.2178Z" fill="#111827"/>
</svg>
