<svg width="64" height="64" viewBox="0 0 64 64" fill="none" xmlns="http://www.w3.org/2000/svg">
<path d="M13.046 21.1543C14.5523 21.1543 15.9749 21.4503 17.3138 22.0423C18.6527 22.6342 19.8243 23.4376 20.8285 24.4524C21.8326 25.4672 22.6067 26.6512 23.1506 28.0042C23.7364 29.3573 24.0293 30.7949 24.0293 32.3171C24.0293 33.8393 23.7364 35.277 23.1506 36.63C22.6067 37.9831 21.8326 39.167 20.8285 40.1818C19.8243 41.1966 18.6527 42 17.3138 42.592C15.9749 43.1839 14.5523 43.4799 13.046 43.4799C11.5397 43.4799 10.1172 43.1839 8.77824 42.592C7.43933 42 6.26778 41.1966 5.2636 40.1818C4.25941 39.167 3.46444 37.9831 2.87866 36.63C2.29289 35.277 2 33.8393 2 32.3171C2 30.7949 2.29289 29.3573 2.87866 28.0042C3.46444 26.6512 4.25941 25.4672 5.2636 24.4524C6.26778 23.4376 7.43933 22.6342 8.77824 22.0423C10.1172 21.4503 11.5397 21.1543 13.046 21.1543ZM13.046 25.5307C12.1255 25.5307 11.2469 25.7209 10.41 26.1015C9.61506 26.4397 8.90377 26.926 8.27615 27.5603C7.69038 28.1522 7.20921 28.871 6.83264 29.7167C6.49791 30.5201 6.33054 31.3869 6.33054 32.3171C6.33054 33.2474 6.49791 34.1353 6.83264 34.981C7.20921 35.7844 7.69038 36.5032 8.27615 37.1374C8.90377 37.7294 9.61506 38.2156 10.41 38.5962C11.2469 38.9345 12.1255 39.1036 13.046 39.1036C13.9665 39.1036 14.8243 38.9345 15.6192 38.5962C16.4561 38.2156 17.1674 37.7294 17.7531 37.1374C18.3808 36.5032 18.8619 35.7844 19.1967 34.981C19.5732 34.1353 19.7615 33.2474 19.7615 32.3171C19.7615 31.3869 19.5732 30.5201 19.1967 29.7167C18.8619 28.871 18.3808 28.1522 17.7531 27.5603C17.1674 26.926 16.4561 26.4397 15.6192 26.1015C14.8243 25.7209 13.9665 25.5307 13.046 25.5307ZM50.954 43.4799C49.4477 43.4799 48.0251 43.1839 46.6862 42.592C45.3473 42 44.1757 41.1966 43.1715 40.1818C42.1674 39.167 41.3724 37.9831 40.7866 36.63C40.2427 35.277 39.9707 33.8393 39.9707 32.3171C39.9707 30.7949 40.2427 29.3573 40.7866 28.0042C41.3724 26.6512 42.1674 25.4672 43.1715 24.4524C44.1757 23.4376 45.3473 22.6342 46.6862 22.0423C48.0251 21.4503 49.4477 21.1543 50.954 21.1543C52.4603 21.1543 53.8828 21.4503 55.2218 22.0423C56.5607 22.6342 57.7322 23.4376 58.7364 24.4524C59.7406 25.4672 60.5356 26.6512 61.1213 28.0042C61.7071 29.3573 62 30.7949 62 32.3171C62 33.8393 61.7071 35.277 61.1213 36.63C60.5356 37.9831 59.7406 39.167 58.7364 40.1818C57.7322 41.1966 56.5607 42 55.2218 42.592C53.8828 43.1839 52.4603 43.4799 50.954 43.4799ZM50.954 39.1036C51.8745 39.1036 52.7531 38.9345 53.59 38.5962C54.4268 38.2156 55.1381 37.7294 55.7238 37.1374C56.3515 36.5032 56.8326 35.7844 57.1674 34.981C57.5439 34.1353 57.7322 33.2474 57.7322 32.3171C57.7322 31.3869 57.5439 30.5201 57.1674 29.7167C56.8326 28.871 56.3515 28.1522 55.7238 27.5603C55.1381 26.926 54.4268 26.4397 53.59 26.1015C52.7531 25.7209 51.8745 25.5307 50.954 25.5307C50.0335 25.5307 49.1548 25.7209 48.318 26.1015C47.523 26.4397 46.8117 26.926 46.1841 27.5603C45.5983 28.1522 45.1172 28.871 44.7406 29.7167C44.4059 30.5201 44.2385 31.3869 44.2385 32.3171C44.2385 33.2474 44.4059 34.1353 44.7406 34.981C45.1172 35.7844 45.5983 36.5032 46.1841 37.1374C46.8117 37.7294 47.523 38.2156 48.318 38.5962C49.1548 38.9345 50.0335 39.1036 50.954 39.1036ZM43.046 13.1628C43.046 14.685 42.7531 16.1226 42.1674 17.4757C41.5816 18.8288 40.7866 20.0127 39.7824 21.0275C38.7782 22.0423 37.6067 22.8457 36.2678 23.4376C34.9289 23.9873 33.5063 24.2622 32 24.2622C30.4937 24.2622 29.0711 23.9873 27.7322 23.4376C26.3933 22.8457 25.2218 22.0423 24.2176 21.0275C23.2134 20.0127 22.4184 18.8288 21.8326 17.4757C21.2887 16.1226 21.0167 14.685 21.0167 13.1628C21.0167 11.6406 21.2887 10.203 21.8326 8.84989C22.4184 7.49683 23.2134 6.3129 24.2176 5.2981C25.2218 4.2833 26.3933 3.47992 27.7322 2.88795C29.0711 2.29598 30.4937 2 32 2C33.5063 2 34.9289 2.29598 36.2678 2.88795C37.6067 3.47992 38.7782 4.2833 39.7824 5.2981C40.7866 6.3129 41.5816 7.49683 42.1674 8.84989C42.7531 10.203 43.046 11.6406 43.046 13.1628ZM38.7155 13.1628C38.7155 12.2326 38.5272 11.3658 38.1506 10.5624C37.8159 9.7167 37.3347 8.97674 36.7071 8.34249C36.1213 7.70825 35.41 7.22199 34.5732 6.88372C33.7782 6.50317 32.9205 6.3129 32 6.3129C31.0795 6.3129 30.2008 6.50317 29.364 6.88372C28.569 7.22199 27.8577 7.70825 27.2301 8.34249C26.6444 8.97674 26.1632 9.7167 25.7866 10.5624C25.4519 11.3658 25.2845 12.2326 25.2845 13.1628C25.2845 14.093 25.4519 14.981 25.7866 15.8266C26.1632 16.63 26.6444 17.3488 27.2301 17.9831C27.8577 18.5751 28.569 19.0613 29.364 19.4419C30.2008 19.7801 31.0795 19.9493 32 19.9493C32.9205 19.9493 33.7782 19.7801 34.5732 19.4419C35.41 19.0613 36.1213 18.5751 36.7071 17.9831C37.3347 17.3488 37.8159 16.63 38.1506 15.8266C38.5272 14.981 38.7155 14.093 38.7155 13.1628ZM43.046 51.2178C43.046 52.6977 42.7531 54.093 42.1674 55.4038C41.5816 56.7146 40.7866 57.8562 39.7824 58.8288C38.7782 59.8013 37.6067 60.5624 36.2678 61.112C34.9289 61.704 33.5063 62 32 62C30.4937 62 29.0711 61.704 27.7322 61.112C26.3933 60.5624 25.2218 59.8013 24.2176 58.8288C23.2134 57.8562 22.4184 56.7146 21.8326 55.4038C21.2887 54.093 21.0167 52.6977 21.0167 51.2178C21.0167 49.6956 21.2887 48.2579 21.8326 46.9049C22.4184 45.5518 23.2134 44.3679 24.2176 43.3531C25.2218 42.3383 26.3933 41.5349 27.7322 40.9429C29.0711 40.351 30.4937 40.055 32 40.055C33.5063 40.055 34.9289 40.351 36.2678 40.9429C37.6067 41.5349 38.7782 42.3383 39.7824 43.3531C40.7866 44.3679 41.5816 45.5518 42.1674 46.9049C42.7531 48.2579 43.046 49.6956 43.046 51.2178ZM38.7155 51.2178C38.7155 50.2875 38.5272 49.4207 38.1506 48.6173C37.8159 47.7717 37.3347 47.0317 36.7071 46.3975C36.1213 45.7632 35.41 45.277 34.5732 44.9387C33.7782 44.5581 32.9205 44.3679 32 44.3679C31.0795 44.3679 30.2008 44.5581 29.364 44.9387C28.569 45.277 27.8577 45.7632 27.2301 46.3975C26.6444 47.0317 26.1632 47.7717 25.7866 48.6173C25.4519 49.4207 25.2845 50.2875 25.2845 51.2178C25.2845 53.1205 25.9331 54.685 27.2301 55.9112C28.5272 57.0951 30.1172 57.6871 32 57.6871C33.8828 57.6871 35.4728 57.0951 36.7699 55.9112C38.0669 54.685 38.7155 53.1205 38.7155 51.2178Z" fill="#111827"/>
</svg>
