<svg width="64" height="64" viewBox="0 0 64 64" fill="none" xmlns="http://www.w3.org/2000/svg">
<path d="M0.327869 19H63.6721C63.8907 19 64 19.1152 64 19.3457V30.6862C64 32.6684 63.6284 34.5355 62.8852 36.2872C62.1858 37.9929 61.224 39.4911 60 40.7819C58.776 42.0727 57.3333 43.1099 55.6721 43.8936C54.0546 44.6312 52.306 45 50.4262 45H13.5738C11.694 45 9.9235 44.6312 8.26229 43.8936C6.64481 43.1099 5.22404 42.0727 4 40.7819C2.77596 39.4911 1.79235 37.9929 1.04918 36.2872C0.349727 34.5355 0 32.6684 0 30.6862V19.3457C0 19.1152 0.10929 19 0.327869 19ZM38.2951 37.7394C38.2951 38.477 38.5355 39.1223 39.0164 39.6755C39.541 40.1826 40.153 40.4362 40.8525 40.4362C41.5956 40.4362 42.2076 40.1826 42.6885 39.6755C43.1694 39.1223 43.4098 38.477 43.4098 37.7394C43.4098 36.9557 43.1694 36.3103 42.6885 35.8032C42.2076 35.2961 41.5956 35.0426 40.8525 35.0426C40.153 35.0426 39.541 35.2961 39.0164 35.8032C38.5355 36.3103 38.2951 36.9557 38.2951 37.7394ZM14.8852 32C14.8852 33.6596 15.4317 35.0656 16.5246 36.2181C17.6175 37.3706 18.9508 37.9468 20.5246 37.9468C22.0984 37.9468 23.4317 37.3706 24.5246 36.2181C25.6175 35.0656 26.1639 33.6596 26.1639 32C26.1639 30.3404 25.6175 28.9344 24.5246 27.7819C23.4317 26.6294 22.0984 26.0532 20.5246 26.0532C18.9508 26.0532 17.6175 26.6294 16.5246 27.7819C15.4317 28.9344 14.8852 30.3404 14.8852 32ZM40.8525 23.5638C40.153 23.5638 39.541 23.8404 39.0164 24.3936C38.5355 24.9007 38.2951 25.523 38.2951 26.2606C38.2951 27.0443 38.5355 27.6897 39.0164 28.1968C39.541 28.7039 40.153 28.9574 40.8525 28.9574C41.5956 28.9574 42.2076 28.7039 42.6885 28.1968C43.1694 27.6897 43.4098 27.0443 43.4098 26.2606C43.4098 25.523 43.1694 24.9007 42.6885 24.3936C42.2076 23.8404 41.5956 23.5638 40.8525 23.5638ZM35.4098 34.6968C36.153 34.6968 36.765 34.4433 37.2459 33.9362C37.7268 33.4291 37.9672 32.7837 37.9672 32C37.9672 31.2163 37.7268 30.5709 37.2459 30.0638C36.765 29.5567 36.153 29.3032 35.4098 29.3032C34.7104 29.3032 34.0984 29.5567 33.5738 30.0638C33.0929 30.5709 32.8525 31.2163 32.8525 32C32.8525 32.7837 33.0929 33.4291 33.5738 33.9362C34.0984 34.4433 34.7104 34.6968 35.4098 34.6968ZM43.7377 32C43.7377 32.7837 43.9781 33.4291 44.459 33.9362C44.9399 34.4433 45.5519 34.6968 46.2951 34.6968C47.0383 34.6968 47.6503 34.4433 48.1311 33.9362C48.612 33.4291 48.8525 32.7837 48.8525 32C48.8525 31.2163 48.612 30.5709 48.1311 30.0638C47.6503 29.5567 47.0383 29.3032 46.2951 29.3032C45.5519 29.3032 44.9399 29.5567 44.459 30.0638C43.9781 30.5709 43.7377 31.2163 43.7377 32Z" fill="#111827"/>
</svg>
