<svg width="64" height="64" viewBox="0 0 64 64" fill="none" xmlns="http://www.w3.org/2000/svg">
<path d="M30.7123 15.2392H20.0885V49.4796H25.2394V34.7118H29.3602L37.666 49.4796H44.4266L35.1549 34.0583C37.6016 33.5356 39.4903 32.4901 40.8209 30.9218C42.1516 29.31 42.8169 27.3279 42.8169 24.9755C42.8169 22.8845 42.3877 21.2073 41.5292 19.944C40.7136 18.6371 39.6834 17.6352 38.4386 16.9382C37.2368 16.2412 35.9276 15.7837 34.5111 15.5659C33.0946 15.3481 31.8283 15.2392 30.7123 15.2392ZM0.321932 4H45.1992C47.7746 4 50.1999 4.50097 52.4748 5.50292C54.7928 6.50486 56.7887 7.87709 58.4628 9.6196C60.1797 11.3621 61.5319 13.3878 62.5191 15.6966C63.5064 18.0054 64 20.4885 64 23.1459V59.6733C64 59.8911 63.9141 60 63.7425 60H0.321932C0.107311 60 0 59.8911 0 59.6733V4.32672C0 4.10891 0.107311 4 0.321932 4ZM37.2153 24.9755C37.2153 28.1991 34.833 29.811 30.0684 29.811H25.2394V20.2054H30.326C31.0986 20.2054 31.8927 20.2707 32.7082 20.4014C33.5238 20.5321 34.2535 20.7717 34.8974 21.1202C35.5842 21.4687 36.1422 21.9697 36.5714 22.6231C37.0007 23.233 37.2153 24.0171 37.2153 24.9755Z" fill="#111827"/>
</svg>
