<svg width="64" height="64" viewBox="0 0 64 64" fill="none" xmlns="http://www.w3.org/2000/svg">
<path d="M18.8008 6H63.7425C63.9141 6 64 6.10915 64 6.32746V58H63.9356H63.7425H18.8008C16.2254 58 13.7787 57.5634 11.4608 56.6902C9.18578 55.817 7.18981 54.5726 5.47284 52.9572C3.79879 51.3417 2.46814 49.4425 1.48089 47.2594C0.493628 45.0327 0 42.5659 0 39.8589V25.1889C0 22.5256 0.493628 20.0369 1.48089 17.7229C2.46814 15.4089 3.79879 13.3787 5.47284 11.6322C7.18981 9.88581 9.18578 8.5105 11.4608 7.5063C13.7787 6.5021 16.2254 6 18.8008 6ZM25.0463 30.1662C23.5439 29.686 22.4064 29.2275 21.6338 28.7909C20.9041 28.3107 20.5392 27.5466 20.5392 26.4987C20.5392 25.8438 20.6895 25.2981 20.9899 24.8615C21.2904 24.4249 21.6553 24.0974 22.0845 23.8791C22.5137 23.6171 22.9645 23.4425 23.4366 23.3552C23.9088 23.2242 24.3166 23.1587 24.66 23.1587C25.5184 23.1587 26.3125 23.3333 27.0423 23.6826C27.8149 24.0319 28.4158 24.534 28.8451 25.1889L29.2314 25.7783L32.5795 22.4383L32.1932 21.9798C31.3347 20.9757 30.2401 20.2334 28.9095 19.7531C27.6217 19.2292 26.2482 18.9673 24.7887 18.9673C23.6727 18.9673 22.5781 19.1201 21.505 19.4257C20.4748 19.7313 19.5305 20.2116 18.672 20.8665C17.8565 21.4777 17.1911 22.2636 16.6761 23.2242C16.161 24.1847 15.9034 25.3199 15.9034 26.6297C15.9034 27.8086 16.0751 28.8128 16.4185 29.6423C16.8048 30.4719 17.2985 31.1923 17.8994 31.8035C18.5433 32.3711 19.273 32.8514 20.0885 33.2443C20.9041 33.5936 21.7411 33.8992 22.5996 34.1612L22.7284 34.2267C24.3595 34.707 25.6258 35.2091 26.5272 35.733C27.4286 36.2569 27.8793 37.1083 27.8793 38.2872C27.8793 39.5097 27.4286 40.4047 26.5272 40.9723C25.6258 41.5399 24.6814 41.8237 23.6942 41.8237C22.7069 41.8237 21.784 41.6054 20.9256 41.1688C20.0671 40.6885 19.3588 40.0336 18.8008 39.204L18.4145 38.6146L14.8089 41.7582L15.1952 42.2821C16.0966 43.5046 17.2985 44.4433 18.8008 45.0982C20.3032 45.7531 21.9128 46.0806 23.6298 46.0806C24.7458 46.0806 25.8404 45.9278 26.9135 45.6222C27.9866 45.2729 28.9309 44.7708 29.7465 44.1159C30.605 43.461 31.2917 42.6314 31.8068 41.6272C32.3219 40.5793 32.5795 39.3568 32.5795 37.9597C32.5795 36.6062 32.3219 35.4929 31.8068 34.6196C31.3347 33.7464 30.7337 33.026 30.004 32.4584C29.2743 31.8908 28.4588 31.4324 27.5573 31.0831C26.6989 30.7338 25.8618 30.4282 25.0463 30.1662ZM37.1509 23.0932V45.2292H50.4789V41.2997H41.2716V23.0932H37.1509Z" fill="#111827"/>
</svg>
