<svg width="64" height="64" viewBox="0 0 64 64" fill="none" xmlns="http://www.w3.org/2000/svg">
<path d="M25.7545 29.8227C26.5701 30.0788 27.4071 30.3777 28.2656 30.7192C29.167 31.0181 29.9611 31.445 30.6479 32C31.3776 32.5123 31.9571 33.1741 32.3863 33.9852C32.8585 34.7964 33.0946 35.8424 33.0946 37.1232C33.0946 38.4466 32.837 39.5993 32.3219 40.5813C31.8498 41.5205 31.2059 42.3103 30.3903 42.9507C29.5748 43.5484 28.6304 43.9967 27.5573 44.2956C26.5272 44.5944 25.4755 44.7438 24.4024 44.7438C22.7713 44.7438 21.226 44.4236 19.7666 43.7833C18.3072 43.1429 17.1482 42.2677 16.2897 41.1576L15.9678 40.8374L19.3159 38.0197L19.5734 38.468C20.1315 39.2365 20.8397 39.8555 21.6982 40.3251C22.5567 40.7521 23.4795 40.9655 24.4668 40.9655C25.497 40.9655 26.4628 40.688 27.3642 40.133C28.3085 39.578 28.7807 38.6814 28.7807 37.4434C28.7807 36.2479 28.3085 35.3941 27.3642 34.8818C26.4628 34.3695 25.218 33.8785 23.6298 33.4089L23.501 33.3448C22.6425 33.0887 21.827 32.7898 21.0543 32.4483C20.2817 32.1067 19.5949 31.6585 18.994 31.1034C18.393 30.5484 17.8994 29.8867 17.5131 29.1182C17.1697 28.3498 16.998 27.4105 16.998 26.3005C16.998 25.0624 17.2555 23.9951 17.7706 23.0985C18.2857 22.202 18.9296 21.4548 19.7022 20.8571C20.5178 20.2594 21.4406 19.8325 22.4708 19.5764C23.501 19.2775 24.5312 19.1281 25.5614 19.1281C26.9779 19.1281 28.3085 19.3842 29.5533 19.8966C30.7981 20.4089 31.8498 21.092 32.7082 21.9458L33.0302 22.266L29.9396 25.2759L29.6177 24.8276C28.6304 23.4614 27.2354 22.7783 25.4326 22.7783C24.4453 22.7783 23.501 23.0558 22.5996 23.6108C21.6982 24.1658 21.2475 25.0197 21.2475 26.1724C21.2475 27.2397 21.6338 28.0082 22.4064 28.4778C23.222 28.9048 24.338 29.353 25.7545 29.8227ZM40.499 40.3892H49.4487V44.1034H36.4427V22.9064H40.499V40.3892ZM18.8008 52.8768H58.9779V10.9951H18.8008C16.9121 10.9951 15.1308 11.358 13.4567 12.0837C11.7827 12.8095 10.3233 13.8128 9.07847 15.0936C7.83367 16.3317 6.84641 17.7833 6.1167 19.4483C5.38699 21.1133 5.02213 22.8851 5.02213 24.7635V39.1084C5.02213 40.9869 5.38699 42.78 6.1167 44.4877C6.84641 46.1527 7.83367 47.6043 9.07847 48.8424C10.3233 50.0805 11.7827 51.0624 13.4567 51.7882C15.1308 52.514 16.9121 52.8768 18.8008 52.8768ZM18.8008 6H63.7425C63.9141 6 64 6.10673 64 6.3202V58H63.9356H63.7425H18.8008C16.2254 58 13.7787 57.509 11.4608 56.5271C9.18578 55.5452 7.18981 54.2003 5.47284 52.4926C3.79879 50.7849 2.46814 48.7997 1.48089 46.5369C0.493628 44.2315 0 41.7553 0 39.1084V24.7635C0 22.1593 0.493628 19.7258 1.48089 17.4631C2.46814 15.2003 3.79879 13.2151 5.47284 11.5074C7.18981 9.79967 9.18578 8.45484 11.4608 7.47291C13.7787 6.49097 16.2254 6 18.8008 6Z" fill="#111827"/>
</svg>
