<svg width="64" height="64" viewBox="0 0 64 64" fill="none" xmlns="http://www.w3.org/2000/svg">
<path d="M0.321932 6H45.1992C47.7746 6 50.1999 6.5021 52.4748 7.5063C54.7928 8.5105 56.7887 9.88581 58.4628 11.6322C60.1797 13.3787 61.5319 15.4089 62.5191 17.7229C63.5064 20.0369 64 22.5256 64 25.1889V39.8589C64 42.5659 63.5064 45.0327 62.5191 47.2594C61.5319 49.4425 60.1797 51.3417 58.4628 52.9572C56.7887 54.5726 54.7928 55.817 52.4748 56.6902C50.1999 57.5634 47.7746 58 45.1992 58H0.321932H0.0643863H0V6.32746C0 6.10915 0.107311 6 0.321932 6ZM22.2777 30.1662C20.7753 29.686 19.6378 29.2275 18.8652 28.7909C18.1355 28.3107 17.7706 27.5466 17.7706 26.4987C17.7706 25.8438 17.8994 25.2981 18.1569 24.8615C18.4574 24.4249 18.8223 24.0974 19.2515 23.8791C19.6808 23.6171 20.1315 23.4425 20.6036 23.3552C21.0758 23.2242 21.4836 23.1587 21.827 23.1587C22.6854 23.1587 23.4795 23.3552 24.2093 23.7481C24.939 24.0974 25.5399 24.5777 26.0121 25.1889L26.4628 25.7783L29.8109 22.4383L29.4245 21.9798C28.5661 20.9757 27.4715 20.2334 26.1408 19.7531C24.8531 19.2292 23.4795 18.9673 22.0201 18.9673C20.947 18.9673 19.8739 19.1201 18.8008 19.4257C17.7277 19.7313 16.7619 20.2116 15.9034 20.8665C15.0879 21.4777 14.4011 22.2636 13.8431 23.2242C13.328 24.1847 13.0704 25.3199 13.0704 26.6297C13.0704 27.8086 13.2421 28.8128 13.5855 29.6423C13.9718 30.4719 14.4655 31.1923 15.0664 31.8035C15.7103 32.3711 16.44 32.8514 17.2555 33.2443C18.0711 33.5936 18.9296 33.8992 19.831 34.1612H19.9598C21.5909 34.6851 22.8357 35.2091 23.6942 35.733C24.5956 36.2569 25.0463 37.1083 25.0463 38.2872C25.0463 39.5097 24.5956 40.4047 23.6942 40.9723C22.8357 41.5399 21.8913 41.8237 20.8612 41.8237C19.9168 41.8237 18.994 41.5835 18.0926 41.1033C17.2341 40.623 16.5473 39.9899 16.0322 39.204L15.6459 38.6146L11.9759 41.7582L12.3622 42.2821C13.2636 43.5046 14.4655 44.4433 15.9678 45.0982C17.4702 45.7531 19.0798 46.0806 20.7968 46.0806C21.9128 46.0806 23.0074 45.9278 24.0805 45.6222C25.1965 45.2729 26.1623 44.7708 26.9779 44.1159C27.8364 43.461 28.5231 42.6314 29.0382 41.6272C29.5533 40.5793 29.8109 39.3568 29.8109 37.9597C29.8109 36.6062 29.5533 35.4929 29.0382 34.6196C28.5661 33.7464 27.9651 33.026 27.2354 32.4584C26.5057 31.8908 25.6901 31.4324 24.7887 31.0831C23.8873 30.7338 23.0503 30.4282 22.2777 30.1662ZM41.4648 23.0932H34.2535V45.2292H38.4386V35.9295H40.499L45.7143 45.2292H50.672L44.8129 35.471C46.2723 35.0344 47.4098 34.2922 48.2254 33.2443C49.0409 32.1965 49.4487 30.9521 49.4487 29.5113C49.4487 27.4156 48.7619 25.822 47.3883 24.7305C46.0148 23.639 44.0402 23.0932 41.4648 23.0932ZM41.0785 32.1965H38.4386V26.8262H41.2716C43.9329 26.8262 45.2636 27.7212 45.2636 29.5113C45.2636 29.686 45.2421 29.9261 45.1992 30.2317C45.1563 30.5374 45.006 30.843 44.7485 31.1486C44.4909 31.4106 44.0617 31.6507 43.4608 31.869C42.9027 32.0873 42.1087 32.1965 41.0785 32.1965Z" fill="#111827"/>
</svg>
