<svg width="64" height="64" viewBox="0 0 64 64" fill="none" xmlns="http://www.w3.org/2000/svg">
<path d="M0.321932 6H45.1992C47.7746 6 50.1999 6.49097 52.4748 7.47291C54.7928 8.45484 56.7887 9.79967 58.4628 11.5074C60.1797 13.2151 61.5319 15.2003 62.5191 17.4631C63.5064 19.7258 64 22.1593 64 24.7635V39.1084C64 41.7553 63.5064 44.2315 62.5191 46.5369C61.5319 48.7997 60.1797 50.7849 58.4628 52.4926C56.7887 54.2003 54.7928 55.5452 52.4748 56.5271C50.1999 57.509 47.7746 58 45.1992 58H0.321932H0.0643863H0V6.3202C0 6.10673 0.107311 6 0.321932 6ZM45.1992 10.9951H5.02213V52.8768H45.1992C47.0879 52.8768 48.8692 52.514 50.5433 51.7882C52.2173 51.0624 53.6767 50.0805 54.9215 48.8424C56.1663 47.6043 57.1536 46.1527 57.8833 44.4877C58.613 42.78 58.9779 40.9869 58.9779 39.1084V24.7635C58.9779 22.8851 58.613 21.1133 57.8833 19.4483C57.1536 17.7833 56.1663 16.3317 54.9215 15.0936C53.6767 13.8128 52.2173 12.8095 50.5433 12.0837C48.8692 11.358 47.0879 10.9951 45.1992 10.9951ZM44.3622 29.0542C44.3622 27.3465 43.053 26.4926 40.4346 26.4926H37.666V31.6158H40.2414C41.2716 31.6158 42.0657 31.509 42.6237 31.2956C43.1818 31.0821 43.5895 30.8473 43.8471 30.5911C44.1046 30.2923 44.2549 30.0148 44.2978 29.7586C44.3407 29.4598 44.3622 29.225 44.3622 29.0542ZM43.9115 34.7537L49.6418 44.1034H44.7485L39.662 35.202H37.666V44.1034H33.6097V22.9064H40.6278C43.1174 22.9064 45.0275 23.4401 46.3581 24.5074C47.7317 25.5747 48.4185 27.0903 48.4185 29.0542C48.4185 30.4204 48.0107 31.6158 47.1952 32.6404C46.4225 33.6223 45.328 34.3268 43.9115 34.7537ZM22.9859 29.8227C23.8015 30.0788 24.6385 30.3777 25.497 30.7192C26.3984 31.0181 27.1925 31.445 27.8793 32C28.609 32.5123 29.1885 33.1741 29.6177 33.9852C30.0899 34.7964 30.326 35.8424 30.326 37.1232C30.326 38.4466 30.0684 39.5993 29.5533 40.5813C29.0812 41.5205 28.4373 42.3103 27.6217 42.9507C26.8062 43.5484 25.8618 43.9967 24.7887 44.2956C23.7586 44.5944 22.7069 44.7438 21.6338 44.7438C20.0027 44.7438 18.4574 44.4236 16.998 43.7833C15.5815 43.1429 14.4225 42.2677 13.5211 41.1576L13.1992 40.8374L16.5473 38.0197L16.8048 38.468C17.3628 39.2365 18.0711 39.8555 18.9296 40.3251C19.7881 40.7521 20.7109 40.9655 21.6982 40.9655C22.7284 40.9655 23.6942 40.688 24.5956 40.133C25.5399 39.578 26.0121 38.6814 26.0121 37.4434C26.0121 36.2479 25.5399 35.3941 24.5956 34.8818C23.6942 34.3695 22.4494 33.8785 20.8612 33.4089L20.7324 33.3448C19.8739 33.0887 19.0583 32.7898 18.2857 32.4483C17.5131 32.1067 16.8263 31.6585 16.2254 31.1034C15.6244 30.5484 15.1308 29.8867 14.7445 29.1182C14.4011 28.3498 14.2294 27.4105 14.2294 26.3005C14.2294 25.0624 14.4869 23.9951 15.002 23.0985C15.5171 22.202 16.161 21.4548 16.9336 20.8571C17.7492 20.2594 18.672 19.8325 19.7022 19.5764C20.7324 19.2775 21.7626 19.1281 22.7928 19.1281C24.2093 19.1281 25.5399 19.3842 26.7847 19.8966C28.0295 20.4089 29.0812 21.092 29.9396 21.9458L30.2616 22.266L27.171 25.2759L26.9135 24.8276C25.8833 23.4614 24.4668 22.7783 22.664 22.7783C21.6767 22.7783 20.7324 23.0558 19.831 23.6108C18.9725 24.1658 18.5433 25.0197 18.5433 26.1724C18.5433 27.2397 18.9296 28.0082 19.7022 28.4778C20.4748 28.9048 21.5694 29.353 22.9859 29.8227Z" fill="#111827"/>
</svg>
