<svg width="64" height="64" viewBox="0 0 64 64" fill="none" xmlns="http://www.w3.org/2000/svg">
<g clip-path="url(#clip0_1008_248)">
<path d="M26.3642 38.7351H39.8647V34.8036H30.5035V16.1772H26.3642V38.7351ZM31.9682 6.50957C35.1947 6.50957 38.209 7.08963 41.0109 8.24975C43.8554 9.3669 46.3177 10.9137 48.398 12.8902C50.5207 14.8238 52.1977 17.101 53.4289 19.7221C54.66 22.3431 55.2756 25.136 55.2756 28.1007C55.2756 31.0655 54.66 33.8583 53.4289 36.4794C52.1977 39.1004 50.5207 41.3991 48.398 43.3756C46.3177 45.3092 43.8554 46.856 41.0109 48.0161C38.209 49.1333 35.1947 49.6918 31.9682 49.6918C28.7841 49.6918 25.7698 49.1333 22.9254 48.0161C20.1234 46.856 17.661 45.3092 15.5383 43.3756C13.458 41.3991 11.8023 39.1004 10.5711 36.4794C9.33997 33.8583 8.72438 31.0655 8.72438 28.1007C8.72438 25.136 9.33997 22.3431 10.5711 19.7221C11.8023 17.101 13.458 14.8238 15.5383 12.8902C17.661 10.9137 20.1234 9.3669 22.9254 8.24975C25.7698 7.08963 28.7841 6.50957 31.9682 6.50957ZM31.9682 55.7503C35.874 55.7503 39.5463 55.0843 42.9851 53.7523C46.4239 52.3773 49.4169 50.5082 51.9642 48.145C54.5114 45.7818 56.528 43.0319 58.0139 39.8953C59.4998 36.7157 60.2428 33.3427 60.2428 29.7764C60.2428 26.1672 59.4998 22.7942 58.0139 19.6576C56.528 16.478 54.5114 13.7281 51.9642 11.4079C49.4169 9.04465 46.4239 7.17556 42.9851 5.8006C39.5463 4.42565 35.874 3.73817 31.9682 3.73817C28.0624 3.73817 24.3901 4.42565 20.9512 5.8006C17.5549 7.17556 14.5619 9.04465 11.9721 11.4079C9.42488 13.7281 7.40829 16.478 5.92239 19.6576C4.43648 22.7942 3.69353 26.1672 3.69353 29.7764C3.69353 33.3427 4.43648 36.7157 5.92239 39.8953C7.40829 43.0319 9.42488 45.7818 11.9721 48.145C14.5619 50.5082 17.5549 52.3773 20.9512 53.7523C24.3901 55.0843 28.0624 55.7503 31.9682 55.7503ZM31.9682 0C34.6428 0 37.2962 0.322256 39.9284 0.966767C42.5605 1.56831 45.0441 2.47063 47.3791 3.67372C49.7566 4.8768 51.9642 6.35918 54.002 8.12085C56.0398 9.88251 57.7804 11.8805 59.2239 14.1148C60.7098 16.3061 61.8773 18.7338 62.7264 21.3978C63.5755 24.0618 64 26.9191 64 29.9698C64 35.8993 63.1509 41.0124 61.4527 45.3092C59.7546 49.6059 57.4408 53.1507 54.5114 55.9436C51.6245 58.6935 48.2282 60.713 44.3224 62.002C40.459 63.334 36.341 64 31.9682 64C27.5954 64 23.4773 63.334 19.6139 62.002C15.7506 60.713 12.3542 58.6935 9.42488 55.9436C6.53798 53.1507 4.24544 49.6059 2.54726 45.3092C0.849088 41.0124 0 35.8993 0 29.9698C0 25.4152 0.91277 21.2904 2.73831 17.5952C4.56385 13.9 6.96252 10.7419 9.93433 8.12085C12.9486 5.49983 16.3662 3.50185 20.1871 2.12689C24.008 0.708963 27.935 0 31.9682 0Z" fill="#111827"/>
</g>
<defs>
<clipPath id="clip0_1008_248">
<rect width="64" height="64" fill="white"/>
</clipPath>
</defs>
</svg>
