<svg width="64" height="64" viewBox="0 0 64 64" fill="none" xmlns="http://www.w3.org/2000/svg">
<path d="M26.8492 20.7233L27.804 21.5641L31.9749 25.0263C32.0754 25.1582 32.1926 25.1582 32.3266 25.0263L35.2412 22.5533L37.402 20.7728C39.2446 21.3004 40.9363 22.0752 42.4774 23.0974C44.0519 24.0866 45.4087 25.2736 46.5477 26.6584C47.6868 28.0103 48.5745 29.527 49.2111 31.2087C49.8476 32.8573 50.1658 34.6048 50.1658 36.4513C50.1658 38.7264 49.6801 40.8202 48.7085 42.7326C47.7705 44.645 46.4807 46.2937 44.8392 47.6785C43.1977 49.0634 41.2714 50.1515 39.0603 50.9428C36.8492 51.7012 34.4874 52.0804 31.9749 52.0804C29.4623 52.0804 27.1005 51.7012 24.8894 50.9428C22.7119 50.1515 20.7856 49.0634 19.1106 47.6785C17.469 46.2937 16.1625 44.645 15.191 42.7326C14.2529 40.8202 13.7839 38.7264 13.7839 36.4513C13.7839 34.6048 14.1022 32.8408 14.7387 31.1592C15.4087 29.4776 16.3132 27.9444 17.4523 26.5595C18.6248 25.1747 20.0151 23.9876 21.6231 22.9985C23.2312 21.9763 24.9732 21.2179 26.8492 20.7233ZM27.5528 44.5626H38.1558V41.5951H30.8191V27.4003H27.5528V44.5626ZM32.1256 20.5255C32.0586 20.5255 32.0084 20.509 31.9749 20.476L31.4724 20.0804H31.9749H32.7789L32.3266 20.476C32.2931 20.509 32.2261 20.5255 32.1256 20.5255ZM39.4121 19.0912L41.9749 17.0139C44.0854 17.8382 46.0452 18.9263 47.8543 20.2782C49.6968 21.5971 51.2881 23.1468 52.6281 24.9274C54.0017 26.7079 55.0737 28.7027 55.8442 30.9119C56.6147 33.0881 57 35.4292 57 37.9351C57 42.1886 56.33 45.9474 54.99 49.2117C53.6834 52.4431 51.8911 55.1468 49.6131 57.323C47.3685 59.5322 44.7219 61.1973 41.6734 62.3184C38.6248 63.4395 35.392 64 31.9749 64C28.5578 64 25.325 63.4395 22.2764 62.3184C19.2613 61.1973 16.6147 59.5322 14.3367 57.323C12.0921 55.1468 10.2998 52.4431 8.9598 49.2117C7.65327 45.9474 7 42.1886 7 37.9351C7 35.3632 7.38526 32.9892 8.15578 30.813C8.9598 28.6038 10.0486 26.609 11.4221 24.8284C12.7956 23.0479 14.4037 21.4982 16.2462 20.1793C18.0888 18.8274 20.0821 17.7393 22.2261 16.915L24.7889 19.0417C22.6114 19.7012 20.6181 20.6409 18.809 21.8609C17 23.0809 15.4255 24.5152 14.0854 26.1638C12.7454 27.7795 11.7069 29.5765 10.9698 31.5549C10.2328 33.5003 9.86432 35.561 9.86432 37.7372C9.86432 40.474 10.4338 42.9964 11.5729 45.3045C12.7454 47.6126 14.3367 49.6239 16.3467 51.3385C18.3568 53.0201 20.7018 54.339 23.3819 55.2952C26.062 56.2514 28.9263 56.7295 31.9749 56.7295C35.0235 56.7295 37.8878 56.2514 40.5678 55.2952C43.2814 54.339 45.6432 53.0201 47.6533 51.3385C49.6633 49.6239 51.2379 47.6126 52.3769 45.3045C53.5494 42.9964 54.1357 40.474 54.1357 37.7372C54.1357 35.594 53.7672 33.5497 53.0302 31.6043C52.2931 29.626 51.2714 27.829 49.9648 26.2133C48.6583 24.5976 47.1005 23.1798 45.2915 21.9598C43.5159 20.7398 41.5561 19.7836 39.4121 19.0912ZM38.1055 0.247295V7.3694H47.3518C47.4858 7.3694 47.5695 7.43534 47.603 7.56723C47.67 7.69912 47.6533 7.79804 47.5528 7.86399L32.3266 20.476C32.2931 20.509 32.2261 20.5255 32.1256 20.5255C32.0586 20.5255 32.0084 20.509 31.9749 20.476L16.7487 7.86399C16.6482 7.79804 16.6147 7.69912 16.6482 7.56723C16.6817 7.43534 16.7655 7.3694 16.8995 7.3694H26.1457V0.247295C26.1457 0.0824317 26.2462 0 26.4472 0H37.8543C38.0218 0 38.1055 0.0824317 38.1055 0.247295Z" fill="#111827"/>
</svg>
