<svg width="64" height="64" viewBox="0 0 64 64" fill="none" xmlns="http://www.w3.org/2000/svg">
<path d="M35.1627 32.3957C35.1627 32.5276 35.1459 32.7089 35.1125 32.9397C35.079 33.1705 34.9451 33.4013 34.7108 33.6321C34.51 33.863 34.1754 34.0608 33.7068 34.2257C33.2718 34.3905 32.6359 34.473 31.7992 34.473H29.6406V30.2689H31.9498C34.0917 30.2689 35.1627 30.9778 35.1627 32.3957ZM26.8293 20.7233L27.7831 21.5641L31.9498 25.0263C32.0502 25.1582 32.1673 25.1582 32.3012 25.0263L35.2129 22.5533L37.3715 20.7728C39.2122 21.3004 40.919 22.0752 42.492 23.0974C44.0649 24.0866 45.4203 25.2736 46.5582 26.6584C47.6961 28.0103 48.583 29.527 49.2189 31.2087C49.8548 32.8573 50.1727 34.6048 50.1727 36.4513C50.1727 38.7264 49.6874 40.8202 48.7169 42.7326C47.7798 44.645 46.4913 46.2937 44.8514 47.6785C43.2115 49.0634 41.2871 50.1515 39.0783 50.9428C36.8695 51.7012 34.51 52.0804 32 52.0804C29.49 52.0804 27.1305 51.7012 24.9217 50.9428C22.7129 50.1515 20.7885 49.0634 19.1486 47.6785C17.5087 46.2937 16.2035 44.645 15.2329 42.7326C14.2959 40.8202 13.8273 38.7264 13.8273 36.4513C13.8273 34.6048 14.1452 32.8408 14.7811 31.1592C15.4505 29.4776 16.3541 27.9444 17.492 26.5595C18.6633 25.1747 20.0355 23.9876 21.6084 22.9985C23.2149 21.9763 24.9552 21.2179 26.8293 20.7233ZM32.1506 27.4003H26.3775V44.5626H29.6406V37.3416H31.3474L35.5141 44.5626H39.4297L34.761 36.9459C35.9324 36.6491 36.836 36.1051 37.4719 35.3138C38.1412 34.4894 38.4759 33.5167 38.4759 32.3957C38.4759 30.813 37.9237 29.593 36.8193 28.7357C35.7149 27.8454 34.1586 27.4003 32.1506 27.4003ZM32.1004 20.5255C32.0335 20.5255 31.9833 20.509 31.9498 20.476L31.4478 20.0804H32H32.753L32.3012 20.476C32.2677 20.509 32.2008 20.5255 32.1004 20.5255ZM39.3795 19.0912L41.9398 16.9645C44.0482 17.7888 46.006 18.8769 47.8133 20.2287C49.654 21.5477 51.2436 23.0974 52.5823 24.8779C53.9545 26.6584 55.0254 28.6533 55.7952 30.8624C56.5984 33.0386 57 35.3962 57 37.9351C57 42.1886 56.3307 45.9474 54.992 49.2117C53.6867 52.4431 51.8963 55.1468 49.6205 57.323C47.3447 59.5322 44.6841 61.1973 41.6386 62.3184C38.6265 63.4395 35.4137 64 32 64C28.5863 64 25.3568 63.4395 22.3112 62.3184C19.2992 61.1973 16.6553 59.5322 14.3795 57.323C12.1037 55.1468 10.2965 52.4431 8.95783 49.2117C7.65261 45.9474 7 42.1886 7 37.9351C7 35.3632 7.38487 32.9892 8.15462 30.813C8.95783 28.6038 10.0455 26.609 11.4177 24.8284C12.7898 23.0479 14.3963 21.4982 16.2369 20.1793C18.1111 18.8274 20.1024 17.7393 22.2108 16.915L24.7711 19.0417C22.5957 19.7012 20.6044 20.6409 18.7972 21.8609C16.99 23.0809 15.417 24.5152 14.0783 26.1638C12.7731 27.7795 11.7523 29.5765 11.0161 31.5549C10.2798 33.5003 9.91165 35.561 9.91165 37.7372C9.91165 40.474 10.4806 42.9964 11.6185 45.3045C12.7898 47.6126 14.3795 49.6239 16.3876 51.3385C18.3956 53.0201 20.7383 54.339 23.4157 55.2952C26.093 56.2514 28.9545 56.7295 32 56.7295C35.0455 56.7295 37.907 56.2514 40.5843 55.2952C43.2617 54.339 45.6044 53.0201 47.6125 51.3385C49.6205 49.6239 51.1934 47.6126 52.3313 45.3045C53.5027 42.9964 54.0884 40.474 54.0884 37.7372C54.0884 35.561 53.7202 33.5003 52.9839 31.5549C52.2811 29.6095 51.2771 27.829 49.9719 26.2133C48.6667 24.5976 47.1104 23.1798 45.3032 21.9598C43.496 20.7398 41.5214 19.7836 39.3795 19.0912ZM38.0743 0.247295V7.3694H47.3112C47.4451 7.3694 47.5288 7.43534 47.5623 7.56723C47.6292 7.69912 47.6125 7.79804 47.512 7.86399L32.3012 20.476C32.2677 20.509 32.2008 20.5255 32.1004 20.5255C32.0335 20.5255 31.9833 20.509 31.9498 20.476L16.739 7.86399C16.6386 7.79804 16.6051 7.69912 16.6386 7.56723C16.672 7.43534 16.7557 7.3694 16.8896 7.3694H26.1265V0.247295C26.1265 0.0824317 26.2269 0 26.4277 0H37.8233C37.9906 0 38.0743 0.0824317 38.0743 0.247295Z" fill="#111827"/>
</svg>
