<svg width="64" height="64" viewBox="0 0 64 64" fill="none" xmlns="http://www.w3.org/2000/svg">
<g clip-path="url(#clip0_1008_242)">
<path d="M34.9508 49.4635V34.8613L47.7377 15.3916H40.8525L32.1311 29.5334L23.4754 15.3916H16.2623L29.0492 34.8613V49.4635H34.9508ZM32 0C36.4153 0 40.5683 0.855087 44.459 2.56526C48.3497 4.23159 51.7377 6.51182 54.6229 9.40596C57.5082 12.3001 59.7814 15.6985 61.4426 19.6012C63.1475 23.5039 64 27.6698 64 32.0987C64 36.5276 63.1475 40.6934 61.4426 44.5961C59.7814 48.455 57.5082 51.8314 54.6229 54.7256C51.7377 57.5759 48.3497 59.8342 44.459 61.5005C40.5683 63.1668 36.4153 64 32 64C27.5847 64 23.4317 63.1668 19.541 61.5005C15.6503 59.8342 12.2623 57.5759 9.37705 54.7256C6.4918 51.8314 4.19672 48.455 2.4918 44.5961C0.830601 40.6934 0 36.5276 0 32.0987C0 27.6698 0.830601 23.5039 2.4918 19.6012C4.19672 15.6985 6.4918 12.3001 9.37705 9.40596C12.2623 6.51182 15.6503 4.23159 19.541 2.56526C23.4317 0.855087 27.5847 0 32 0Z" fill="#111827"/>
</g>
<defs>
<clipPath id="clip0_1008_242">
<rect width="64" height="64" fill="white"/>
</clipPath>
</defs>
</svg>
