<svg width="64" height="64" viewBox="0 0 64 64" fill="none" xmlns="http://www.w3.org/2000/svg">
<g clip-path="url(#clip0_1008_228)">
<path d="M42.6234 34.6916H39.7645V28.9097H42.8183C45.6338 28.9097 47.0416 29.8622 47.0416 31.7674C47.0416 31.9889 47.02 32.2769 46.9766 32.6314C46.9333 32.9415 46.7384 33.2738 46.3919 33.6282C46.0887 33.8941 45.6338 34.1378 45.0274 34.3593C44.4643 34.5808 43.6629 34.6916 42.6234 34.6916ZM14.2294 0H32.2924C36.6673 0 40.7824 0.863967 44.6376 2.5919C48.4927 4.27553 51.8497 6.57944 54.7086 9.50363C57.5675 12.4278 59.82 15.8615 61.466 19.8048C63.1553 23.748 64 27.9571 64 32.432V64H0V14.621C0 12.6272 0.36819 10.7442 1.10457 8.97196C1.84095 7.19972 2.85888 5.64901 4.15838 4.31983C5.45787 2.99065 6.97394 1.94946 8.7066 1.19626C10.4393 0.398754 12.2802 0 14.2294 0ZM30.4731 21.001H10.7208V21.0675V25.5867H24.1706L10.3959 44.3281V48.4486H30.668V48.3821V43.8629H16.6985L30.4731 25.1215V21.001ZM43.0782 24.9221H35.4761V24.9886H35.4112V48.4486H39.7645V38.6127H41.9736L47.4964 48.4486H52.6944L46.5218 38.081C47.7347 37.7709 48.8176 37.1284 49.7706 36.1537C50.8535 35.046 51.3949 33.5839 51.3949 31.7674C51.3949 29.5964 50.6585 27.9128 49.1858 26.7165C47.7563 25.5202 45.7205 24.9221 43.0782 24.9221ZM42.6234 34.6916H39.7645V28.9097H42.8183C45.6338 28.9097 47.0416 29.8622 47.0416 31.7674C47.0416 31.9889 47.02 32.2769 46.9766 32.6314C46.9333 32.9415 46.7384 33.2738 46.3919 33.6282C46.0887 33.8941 45.6338 34.1378 45.0274 34.3593C44.4643 34.5808 43.6629 34.6916 42.6234 34.6916Z" fill="#111827"/>
</g>
<defs>
<clipPath id="clip0_1008_228">
<rect width="64" height="64" fill="white"/>
</clipPath>
</defs>
</svg>
