<svg width="128" height="128" viewBox="0 0 128 128" fill="none" xmlns="http://www.w3.org/2000/svg">
<path d="M70.5107 8.20359C67.5033 3.28361 62.0818 0 55.8934 0C46.4386 0 38.774 7.66459 38.774 17.1193C38.774 23.3123 42.0624 28.7372 46.9884 31.7432C35.1132 40.3743 25.1601 54.3122 20.1461 73.9383C11.3093 108.528 27.2642 127.93 50.8754 127.93C74.363 127.93 88.4747 114.156 94.0227 109.494L105.348 65.7737H66.3683L60.8375 86.3169H78.6153L75.0597 99.4856C75.0597 99.4856 69.5288 105.28 57.5453 105.28C44.5083 105.28 37.0688 94.7449 42.4013 74.3898C47.2803 55.7654 59.7578 42.7284 73.4795 42.7284C85.0996 42.7284 89.5915 49.8993 91.9157 54.7119L109.957 39.963C109.011 37.756 106.26 31.3974 99.3527 26.6477C101.181 23.9239 102.247 20.6462 102.247 17.1193C102.247 7.66459 94.5827 0 85.128 0C78.9395 0 73.518 3.28361 70.5107 8.20359Z" fill="#0D1131"/>
<path fill-rule="evenodd" clip-rule="evenodd" d="M68.3234 17.1193C68.3234 23.9558 62.7813 29.4979 55.9448 29.4979C49.8921 29.4979 44.854 25.1538 43.7783 19.4134C45.3799 22.1381 48.3418 23.967 51.7309 23.967C56.8219 23.967 60.949 19.8399 60.949 14.7489C60.949 9.65783 56.8219 5.53074 51.7309 5.53074C51.6807 5.53074 51.6306 5.53114 51.5807 5.53194C52.9379 5.02052 54.4086 4.74072 55.9448 4.74072C62.7813 4.74072 68.3234 10.2828 68.3234 17.1193ZM97.5067 17.1193C97.5067 23.9559 91.9646 29.4979 85.1281 29.4979C79.0755 29.4979 74.0374 25.1539 72.9617 19.4135C74.5633 22.1381 77.5252 23.967 80.9142 23.967C86.0052 23.967 90.1323 19.8399 90.1323 14.7489C90.1323 9.65785 86.0052 5.53076 80.9142 5.53076C80.864 5.53076 80.814 5.53116 80.764 5.53196C82.1212 5.02054 83.592 4.74074 85.1281 4.74074C91.9646 4.74074 97.5067 10.2828 97.5067 17.1193Z" fill="white"/>
</svg>
