<svg width="77" height="40" viewBox="0 0 77 40" fill="none" xmlns="http://www.w3.org/2000/svg">
<path d="M38.9973 11.2866C37.3134 7.7999 34.6011 4.76436 30.995 2.68238C21.4307 -2.83954 9.20098 0.437414 3.67906 10.0017C-1.84287 19.5659 1.43409 31.7957 10.9983 37.3176C20.5626 42.8395 32.7924 39.5626 38.3143 29.9983C38.5587 29.575 38.7859 29.1464 38.9961 28.7134C40.68 32.2001 43.3923 35.2356 46.9983 37.3176C56.5626 42.8395 68.7924 39.5626 74.3143 29.9983C79.8362 20.4341 76.5593 8.20431 66.995 2.68238C57.4308 -2.83954 45.201 0.437414 39.6791 10.0017C39.4346 10.425 39.2074 10.8536 38.9973 11.2866Z" fill="#161E4B"/>
<path d="M21 36.0034C29.8365 36.0034 37 28.8399 37 20.0034C37 11.1668 29.8365 4.00336 21 4.00336C18.1904 4.00336 15.5499 4.72754 13.255 5.99948C16.3021 5.09555 19.7001 5.39645 22.6699 7.11105C28.4094 10.4247 30.3759 17.7638 27.0622 23.5034C23.7484 29.2429 16.4094 31.2094 10.6699 27.8957C7.70425 26.1835 5.74597 23.3966 5.0029 20.311C5.16684 29.0056 12.2662 36.0034 21 36.0034Z" fill="white"/>
<path d="M57 36.0034C65.8365 36.0034 73 28.8399 73 20.0034C73 11.1668 65.8365 4.00336 57 4.00336C54.1904 4.00336 51.5499 4.72754 49.255 5.99948C52.3021 5.09555 55.7001 5.39645 58.6699 7.11105C64.4094 10.4247 66.3759 17.7638 63.0622 23.5034C59.7484 29.2429 52.4094 31.2094 46.6699 27.8957C43.7043 26.1835 41.746 23.3966 41.0029 20.311C41.1668 29.0056 48.2662 36.0034 57 36.0034Z" fill="white"/>
</svg>
