<svg width="40" height="48" viewBox="0 0 40 48" fill="none" xmlns="http://www.w3.org/2000/svg">
<path d="M17.25 16V14.75H16H13.8864C13.2763 14.75 12.9215 14.0605 13.2761 13.5641L19.3897 5.00499C19.6888 4.58623 20.3112 4.58623 20.6103 5.00499L26.7239 13.5641C27.0785 14.0605 26.7237 14.75 26.1136 14.75H24H22.75V16V19V20.25H24H28C28.9665 20.25 29.75 21.0335 29.75 22V41C29.75 41.9665 28.9665 42.75 28 42.75H12C11.0335 42.75 10.25 41.9665 10.25 41V22C10.25 21.0335 11.0335 20.25 12 20.25H15.5H16H17.25V19V16Z" fill="white" stroke="#FF004D" stroke-width="2.5"/>
<rect x="11" y="30" width="18" height="12" fill="#FF004D"/>
</svg>
