<svg width="64" height="64" viewBox="0 0 64 64" fill="none" xmlns="http://www.w3.org/2000/svg">
<path d="M32 0C36.4153 0 40.5683 0.855087 44.459 2.56526C48.3497 4.23159 51.7377 6.51182 54.6229 9.40596C57.5082 12.3001 59.7814 15.6985 61.4426 19.6012C63.1475 23.5039 64 27.6697 64 32.0987C64 36.5276 63.1475 40.6934 61.4426 44.5961C59.7814 48.455 57.5082 51.8314 54.6229 54.7256C51.7377 57.5759 48.3497 59.8342 44.459 61.5005C40.5683 63.1668 36.4153 64 32 64C27.5847 64 23.4317 63.1668 19.541 61.5005C15.6503 59.8342 12.2623 57.5759 9.37705 54.7256C6.4918 51.8314 4.19672 48.455 2.4918 44.5961C0.830601 40.6934 0 36.5276 0 32.0987C0 27.6697 0.830601 23.5039 2.4918 19.6012C4.19672 15.6985 6.4918 12.3001 9.37705 9.40596C12.2623 6.51182 15.6503 4.23159 19.541 2.56526C23.4317 0.855087 27.5847 0 32 0ZM32 5.13052C28.2842 5.13052 24.7869 5.85406 21.5082 7.30113C18.2732 8.70435 15.4317 10.6338 12.9836 13.0894C10.5792 15.5012 8.65574 18.3515 7.21311 21.6403C5.81421 24.8852 5.11475 28.3714 5.11475 32.0987C5.11475 35.826 5.81421 39.334 7.21311 42.6228C8.65574 45.8678 10.5792 48.6961 12.9836 51.1079C15.4317 53.5197 18.2732 55.4272 21.5082 56.8304C24.7869 58.1898 28.2842 58.8695 32 58.8695C35.7158 58.8695 39.1913 58.1898 42.4262 56.8304C45.7049 55.4272 48.5464 53.5197 50.9508 51.1079C53.3989 48.6961 55.3224 45.8678 56.7213 42.6228C58.1639 39.334 58.8852 35.826 58.8852 32.0987C58.8852 28.3714 58.1639 24.8852 56.7213 21.6403C55.3224 18.3515 53.3989 15.5012 50.9508 13.0894C48.5464 10.6338 45.7049 8.70435 42.4262 7.30113C39.1913 5.85406 35.7158 5.13052 32 5.13052ZM22.1639 47.7533V16.6413H32.8525C34.0328 16.6413 35.1913 16.7729 36.3279 17.036C37.5082 17.2991 38.5574 17.7376 39.4754 18.3515C40.4372 18.9654 41.2022 19.7766 41.7705 20.7852C42.3388 21.7938 42.623 23.0435 42.623 24.5344C42.623 26.2446 42.1202 27.6917 41.1148 28.8756C40.1093 30.0158 38.7978 30.827 37.1803 31.3094V31.3751C39.1913 31.5944 40.8306 32.3618 42.0984 33.6773C43.4098 34.949 44.0656 36.703 44.0656 38.9394C44.0656 40.4741 43.7596 41.7897 43.1475 42.8859C42.5355 43.9822 41.7049 44.903 40.6557 45.6485C39.6066 46.3501 38.3607 46.8763 36.918 47.2271C35.5191 47.5779 34.0109 47.7533 32.3934 47.7533H22.1639ZM26.4918 20.3248V29.7965H32.1967C33.8579 29.7965 35.2787 29.4238 36.459 28.6783C37.6393 27.889 38.2295 26.6612 38.2295 24.9949C38.2295 23.3285 37.6175 22.1446 36.3934 21.443C35.2131 20.6975 33.5738 20.3248 31.4754 20.3248H26.4918ZM26.4918 33.48V44.0699H31.9344C32.8525 44.0699 33.7705 44.0041 34.6885 43.8726C35.6066 43.6972 36.4372 43.4121 37.1803 43.0175C37.9235 42.579 38.5137 42.0308 38.9508 41.3731C39.4317 40.6715 39.6721 39.7945 39.6721 38.742C39.6721 36.9003 39.0383 35.5629 37.7705 34.7297C36.5027 33.8965 34.6885 33.48 32.3279 33.48H26.4918Z" fill="#1B1E50"/>
</svg>
