<svg width="64" height="64" viewBox="0 0 64 64" fill="none" xmlns="http://www.w3.org/2000/svg">
<path d="M42.5574 0.405063V22.0759H63.6066C63.8689 22.0759 64 22.1885 64 22.4135V43.4768C64 43.7018 63.8689 43.8143 63.6066 43.8143H42.5574V63.5949C42.5574 63.865 42.4481 64 42.2295 64H21.7705C21.5519 64 21.4426 63.865 21.4426 63.5949V43.8143H0.393443C0.131148 43.8143 0 43.7018 0 43.4768V22.4135C0 22.1885 0.131148 22.0759 0.393443 22.0759H21.4426V0.405063C21.4426 0.135021 21.5519 0 21.7705 0H42.2295C42.4481 0 42.5574 0.135021 42.5574 0.405063ZM32.2623 58.9367L36.8525 50.7004C36.9399 50.6104 36.9399 50.5204 36.8525 50.4304C36.8087 50.2954 36.7213 50.2278 36.5902 50.2278H27.4098C27.2787 50.2278 27.1694 50.2954 27.082 50.4304C27.0383 50.5204 27.0601 50.6104 27.1475 50.7004L31.7377 58.9367C31.9126 59.1167 32.0874 59.1167 32.2623 58.9367Z" fill="#1B1E50"/>
</svg>
