<svg width="64" height="64" viewBox="0 0 64 64" fill="none" xmlns="http://www.w3.org/2000/svg">
<path d="M36.8525 49.7257L32.2623 57.8346C32.0874 58.0133 31.9126 58.0133 31.7377 57.8346L27.1475 49.7257C26.929 49.3682 27.0164 49.1895 27.4098 49.1895H36.5902C36.9836 49.1895 37.071 49.3682 36.8525 49.7257ZM20.1967 0H43.8033C44.0219 0 44.1311 0.134031 44.1311 0.402094V20.3058H63.6066C63.8689 20.3058 64 20.4175 64 20.6408V44.7665C64 44.9899 63.8689 45.1016 63.6066 45.1016H44.1311V63.5979C44.1311 63.866 44.0219 64 43.8033 64H20.1967C19.9781 64 19.8689 63.866 19.8689 63.5979V45.1016H0.393443C0.131148 45.1016 0 44.9899 0 44.7665V20.6408C0 20.4175 0.131148 20.3058 0.393443 20.3058H19.8689V0.402094C19.8689 0.134031 19.9781 0 20.1967 0ZM39.6721 4.62408H24.3279V20.3058V24.8628H19.8689H4.52459V40.5445H19.8689H24.3279V45.1016V59.3759H39.6721V45.1016V40.5445H44.1311H59.4754V24.8628H44.1311H39.6721V20.3058V4.62408Z" fill="#1B1E50"/>
</svg>
