<svg width="64" height="64" viewBox="0 0 64 64" fill="none" xmlns="http://www.w3.org/2000/svg">
<path d="M50.8372 42.9715C49.315 42.9715 47.8774 42.6775 46.5243 42.0894C45.1712 41.5014 43.9873 40.7033 42.9725 39.6951C41.9577 38.687 41.1543 37.5108 40.5624 36.1667C40.0127 34.8225 39.7378 33.3943 39.7378 31.8821C39.7378 30.3699 40.0127 28.9417 40.5624 27.5976C41.1543 26.2534 41.9577 25.0772 42.9725 24.0691C43.9873 23.061 45.1712 22.2629 46.5243 21.6748C47.8774 21.0867 49.315 20.7927 50.8372 20.7927C52.3594 20.7927 53.797 21.0867 55.1501 21.6748C56.5032 22.2629 57.6871 23.061 58.7019 24.0691C59.7167 25.0772 60.5201 26.2534 61.112 27.5976C61.704 28.9417 62 30.3699 62 31.8821C62 33.3943 61.704 34.8225 61.112 36.1667C60.5201 37.5108 59.7167 38.687 58.7019 39.6951C57.6871 40.7033 56.5032 41.5014 55.1501 42.0894C53.797 42.6775 52.3594 42.9715 50.8372 42.9715ZM50.8372 38.624C51.7674 38.624 52.6342 38.435 53.4376 38.0569C54.2833 37.7209 55.0233 37.2378 55.6575 36.6077C56.2918 36.0196 56.778 35.3056 57.1163 34.4654C57.4968 33.6673 57.6871 32.8062 57.6871 31.8821C57.6871 30.958 57.4968 30.0759 57.1163 29.2358C56.778 28.4377 56.2918 27.7236 55.6575 27.0935C55.0233 26.5054 54.2833 26.0224 53.4376 25.6443C52.6342 25.3083 51.7674 25.1402 50.8372 25.1402C49.907 25.1402 49.019 25.3083 48.1734 25.6443C47.37 26.0224 46.6512 26.5054 46.0169 27.0935C45.4249 27.7236 44.9387 28.4377 44.5581 29.2358C44.2199 30.0759 44.0507 30.958 44.0507 31.8821C44.0507 32.8062 44.2199 33.6673 44.5581 34.4654C44.9387 35.3056 45.4249 36.0196 46.0169 36.6077C46.6512 37.2378 47.37 37.7209 48.1734 38.0569C49.019 38.435 49.907 38.624 50.8372 38.624ZM31.6829 24.5732C33.3742 24.5732 34.981 24.2371 36.5032 23.565C38.0254 22.935 39.3362 22.0528 40.4355 20.9187C41.5349 19.8266 42.4017 18.5244 43.0359 17.0122C43.7125 15.542 44.0507 13.9668 44.0507 12.2866C44.0507 10.5644 43.7125 8.94715 43.0359 7.43496C42.4017 5.96477 41.5349 4.6836 40.4355 3.59146C39.3362 2.49932 38.0254 1.61721 36.5032 0.945122C34.981 0.315041 33.3742 7.39305e-08 31.6829 0C29.9493 -7.57787e-08 28.3214 0.31504 26.7992 0.945122C25.3192 1.61721 24.0296 2.49932 22.9302 3.59146C21.8309 4.6836 20.9429 5.96477 20.2664 7.43496C19.6321 8.94715 19.315 10.5644 19.315 12.2866C19.315 13.9668 19.6321 15.542 20.2664 17.0122C20.9429 18.5244 21.8309 19.8266 22.9302 20.9187C24.0296 22.0528 25.3192 22.935 26.7992 23.565C28.3214 24.2371 29.9493 24.5732 31.6829 24.5732ZM12.7822 42.9715C11.3023 42.9715 9.90697 42.6775 8.59619 42.0894C7.28541 41.5014 6.14376 40.7033 5.17125 39.6951C4.19873 38.687 3.43763 37.5108 2.88795 36.1667C2.29598 34.8225 2 33.3943 2 31.8821C2 30.3699 2.29598 28.9417 2.88795 27.5976C3.43763 26.2534 4.19873 25.0772 5.17125 24.0691C6.14376 23.061 7.28541 22.2629 8.59619 21.6748C9.90697 21.1287 11.3023 20.8557 12.7822 20.8557C14.3044 20.8557 15.7421 21.1287 17.0951 21.6748C18.4482 22.2629 19.6321 23.061 20.6469 24.0691C21.6617 25.0772 22.4651 26.2534 23.0571 27.5976C23.649 28.9417 23.945 30.3699 23.945 31.8821C23.945 33.3943 23.649 34.8225 23.0571 36.1667C22.4651 37.5108 21.6617 38.687 20.6469 39.6951C19.6321 40.7033 18.4482 41.5014 17.0951 42.0894C15.7421 42.6775 14.3044 42.9715 12.7822 42.9715ZM12.7822 38.624C13.7125 38.624 14.5793 38.435 15.3827 38.0569C16.2283 37.7209 16.9683 37.2378 17.6025 36.6077C18.2368 36.0196 18.723 35.3056 19.0613 34.4654C19.4419 33.6673 19.6321 32.8062 19.6321 31.8821C19.6321 30.958 19.4419 30.0759 19.0613 29.2358C18.723 28.4377 18.2368 27.7236 17.6025 27.0935C16.9683 26.5054 16.2283 26.0224 15.3827 25.6443C14.5793 25.3083 13.7125 25.1402 12.7822 25.1402C10.8795 25.1402 9.31501 25.7913 8.08879 27.0935C6.90486 28.3957 6.31289 29.9919 6.31289 31.8821C6.31289 33.7724 6.90486 35.3686 8.08879 36.6707C9.31501 37.9729 10.8795 38.624 12.7822 38.624Z" fill="#1B1E50"/>
<path d="M31.6829 39.4268C33.3742 39.4268 34.981 39.7629 36.5032 40.435C38.0254 41.065 39.3361 41.9472 40.4355 43.0813C41.5349 44.1734 42.4017 45.4756 43.0359 46.9878C43.7125 48.458 44.0507 50.0332 44.0507 51.7134C44.0507 53.4356 43.7125 55.0528 43.0359 56.565C42.4017 58.0352 41.5349 59.3164 40.4355 60.4085C39.3361 61.5007 38.0254 62.3828 36.5032 63.0549C34.981 63.685 33.3742 64 31.6829 64C29.9493 64 28.3213 63.685 26.7992 63.0549C25.3192 62.3828 24.0296 61.5007 22.9302 60.4085C21.8309 59.3164 20.9429 58.0352 20.2664 56.565C19.6321 55.0528 19.315 53.4356 19.315 51.7134C19.315 50.0332 19.6321 48.458 20.2664 46.9878C20.9429 45.4756 21.8309 44.1734 22.9302 43.0813C24.0296 41.9472 25.3192 41.065 26.7992 40.435C28.3214 39.7629 29.9493 39.4268 31.6829 39.4268Z" fill="#1B1E50"/>
</svg>
