<svg width="64" height="64" viewBox="0 0 64 64" fill="none" xmlns="http://www.w3.org/2000/svg">
<path d="M5.90164 17H10.2295H10.3607H53.6393H53.7705H58.0984C59.7596 17 61.1585 17.5677 62.2951 18.7031C63.4317 19.8384 64 21.2358 64 22.8952V41.1048C64 42.7642 63.4317 44.1616 62.2951 45.2969C61.1585 46.4323 59.7596 47 58.0984 47H53.7705H53.6393H10.3607H10.2295H5.90164C4.24044 47 2.84153 46.4323 1.70492 45.2969C0.568306 44.1616 0 42.7642 0 41.1048V22.8952C0 21.2358 0.568306 19.8384 1.70492 18.7031C2.84153 17.5677 4.24044 17 5.90164 17ZM5.90164 28.0699C6.64481 28.0699 7.25683 27.8297 7.7377 27.3493C8.21858 26.869 8.45902 26.2576 8.45902 25.5153C8.45902 24.7729 8.21858 24.1616 7.7377 23.6812C7.25683 23.2009 6.64481 22.9607 5.90164 22.9607C5.20219 22.9607 4.59016 23.2009 4.06557 23.6812C3.5847 24.1616 3.34426 24.7729 3.34426 25.5153C3.34426 26.2576 3.5847 26.869 4.06557 27.3493C4.59016 27.8297 5.20219 28.0699 5.90164 28.0699ZM11.8033 21.1266V42.8734H52.1967V21.1266H11.8033ZM58.0984 37.2402C58.8415 37.2402 59.4536 37 59.9344 36.5197C60.4153 36.0393 60.6557 35.4279 60.6557 34.6856C60.6557 33.9869 60.4153 33.3974 59.9344 32.917C59.4536 32.393 58.8415 32.131 58.0984 32.131C57.3552 32.131 56.7432 32.393 56.2623 32.917C55.7814 33.3974 55.541 33.9869 55.541 34.6856C55.541 35.4279 55.7814 36.0393 56.2623 36.5197C56.7432 37 57.3552 37.2402 58.0984 37.2402Z" fill="#1B1E50"/>
</svg>
