<svg width="64" height="64" viewBox="0 0 64 64" fill="none" xmlns="http://www.w3.org/2000/svg">
<path d="M54.9213 20.4398C55.6854 20.4398 56.3146 20.1941 56.809 19.7026C57.3034 19.2112 57.5506 18.5857 57.5506 17.8262C57.5506 17.1113 57.3034 16.5082 56.809 16.0168C56.3146 15.4806 55.6854 15.2126 54.9213 15.2126C54.1573 15.2126 53.5281 15.4806 53.0337 16.0168C52.5393 16.5082 52.2921 17.1113 52.2921 17.8262C52.2921 18.5857 52.5393 19.2112 53.0337 19.7026C53.5281 20.1941 54.1573 20.4398 54.9213 20.4398ZM49.3258 44.4314C50.9438 44.4314 52.3146 43.8729 53.4382 42.756C54.5618 41.5944 55.1236 40.2094 55.1236 38.601C55.1236 37.7969 54.9663 37.0597 54.6517 36.3895C54.382 35.6747 53.9775 35.0716 53.4382 34.5801C52.8989 34.044 52.2697 33.6195 51.5506 33.3068C50.8764 32.9941 50.1348 32.8377 49.3258 32.8377C48.5169 32.8377 47.7528 32.9941 47.0337 33.3068C46.3596 33.6195 45.7528 34.044 45.2135 34.5801C44.7191 35.0716 44.3146 35.6747 44 36.3895C43.6854 37.0597 43.5281 37.7969 43.5281 38.601C43.5281 39.4052 43.6854 40.1647 44 40.8796C44.3146 41.5944 44.7191 42.2199 45.2135 42.756C45.7528 43.2475 46.3596 43.6496 47.0337 43.9623C47.7528 44.275 48.5169 44.4314 49.3258 44.4314ZM41.1011 17.8262C41.1011 18.5857 41.3483 19.2112 41.8427 19.7026C42.382 20.1941 43.0112 20.4398 43.7303 20.4398C44.4944 20.4398 45.1236 20.1941 45.618 19.7026C46.1124 19.2112 46.3596 18.5857 46.3596 17.8262C46.3596 17.1113 46.1124 16.5082 45.618 16.0168C45.1236 15.4806 44.4944 15.2126 43.7303 15.2126C43.0112 15.2126 42.382 15.4806 41.8427 16.0168C41.3483 16.5082 41.1011 17.1113 41.1011 17.8262ZM49.3258 20.7749C48.6067 20.7749 47.9775 21.0206 47.4382 21.512C46.9438 22.0035 46.6966 22.629 46.6966 23.3885C46.6966 24.1033 46.9438 24.7288 47.4382 25.2649C47.9775 25.7564 48.6067 26.0021 49.3258 26.0021C50.0899 26.0021 50.7191 25.7564 51.2135 25.2649C51.7079 24.7288 51.9551 24.1033 51.9551 23.3885C51.9551 22.629 51.7079 22.0035 51.2135 21.512C50.7191 21.0206 50.0899 20.7749 49.3258 20.7749ZM49.3258 9.65026C48.6067 9.65026 47.9775 9.91832 47.4382 10.4545C46.9438 10.9459 46.6966 11.549 46.6966 12.2639C46.6966 13.0234 46.9438 13.6489 47.4382 14.1403C47.9775 14.6318 48.6067 14.8775 49.3258 14.8775C50.0899 14.8775 50.7191 14.6318 51.2135 14.1403C51.7079 13.6489 51.9551 13.0234 51.9551 12.2639C51.9551 11.549 51.7079 10.9459 51.2135 10.4545C50.7191 9.91832 50.0899 9.65026 49.3258 9.65026ZM36.9888 0H48.1124C50 0 51.7753 0.379756 53.4382 1.13927C55.1461 1.8541 56.6292 2.837 57.8876 4.08796C59.1461 5.33892 60.1348 6.81326 60.8539 8.51099C61.618 10.164 62 11.9511 62 13.8723V51.5351C62 53.3668 61.618 55.0422 60.8539 56.5613C60.1348 58.0803 59.1461 59.3759 57.8876 60.4482C56.6292 61.5651 55.1461 62.4363 53.4382 63.0618C51.7753 63.6873 49.9775 64 48.0449 64H36.9888C36.809 64 36.7191 63.8883 36.7191 63.6649V0.335079C36.7191 0.111693 36.809 0 36.9888 0ZM20.2697 39.6063C20.9888 39.6063 21.5955 39.3606 22.0899 38.8691C22.6292 38.3777 22.8989 37.7522 22.8989 36.9927C22.8989 36.2778 22.6292 35.6747 22.0899 35.1832C21.5955 34.6471 20.9888 34.3791 20.2697 34.3791C19.5056 34.3791 18.8764 34.6471 18.382 35.1832C17.8876 35.6747 17.6404 36.2778 17.6404 36.9927C17.6404 37.7522 17.8876 38.3777 18.382 38.8691C18.8764 39.3606 19.5056 39.6063 20.2697 39.6063ZM14.6742 34.044C15.3933 34.044 16 33.7983 16.4944 33.3068C17.0337 32.8154 17.3034 32.1899 17.3034 31.4304C17.3034 30.7155 17.0337 30.1124 16.4944 29.6209C16 29.0848 15.3933 28.8168 14.6742 28.8168C13.9101 28.8168 13.2809 29.0848 12.7865 29.6209C12.2921 30.1124 12.0449 30.7155 12.0449 31.4304C12.0449 32.1899 12.2921 32.8154 12.7865 33.3068C13.2809 33.7983 13.9101 34.044 14.6742 34.044ZM14.6742 45.1686C15.3933 45.1686 16 44.9229 16.4944 44.4314C17.0337 43.8953 17.3034 43.2698 17.3034 42.555C17.3034 41.7955 17.0337 41.17 16.4944 40.6785C16 40.1871 15.3933 39.9414 14.6742 39.9414C13.9101 39.9414 13.2809 40.1871 12.7865 40.6785C12.2921 41.17 12.0449 41.7955 12.0449 42.555C12.0449 43.2698 12.2921 43.8953 12.7865 44.4314C13.2809 44.9229 13.9101 45.1686 14.6742 45.1686ZM9.07865 39.6063C9.8427 39.6063 10.4719 39.3606 10.9663 38.8691C11.4607 38.3777 11.7079 37.7522 11.7079 36.9927C11.7079 36.2332 11.4607 35.6077 10.9663 35.1162C10.4719 34.6248 9.8427 34.3791 9.07865 34.3791C8.35955 34.3791 7.73034 34.6248 7.19101 35.1162C6.69663 35.6077 6.44944 36.2332 6.44944 36.9927C6.44944 37.7522 6.69663 38.3777 7.19101 38.8691C7.73034 39.3606 8.35955 39.6063 9.07865 39.6063ZM14.6742 10.3874C13.0562 10.3874 11.6629 10.9682 10.4944 12.1298C9.37079 13.2468 8.80899 14.6094 8.80899 16.2178C8.80899 17.022 8.96629 17.7815 9.2809 18.4963C9.59551 19.1665 10 19.7696 10.4944 20.3058C11.0337 20.7972 11.6629 21.1993 12.382 21.512C13.1011 21.8248 13.8652 21.9812 14.6742 21.9812C15.4831 21.9812 16.2247 21.8248 16.8989 21.512C17.618 21.1993 18.2247 20.7972 18.7191 20.3058C19.2584 19.7696 19.6854 19.1665 20 18.4963C20.3146 17.7815 20.4719 17.022 20.4719 16.2178C20.4719 15.4136 20.3146 14.6541 20 13.9393C19.6854 13.2244 19.2584 12.6213 18.7191 12.1298C18.2247 11.5937 17.618 11.1693 16.8989 10.8565C16.2247 10.5438 15.4831 10.3874 14.6742 10.3874ZM15.9551 0H27.0112C27.236 0 27.3483 0.111693 27.3483 0.335079V63.6649C27.3483 63.8883 27.236 64 27.0112 64H15.9551C14.0225 64 12.2022 63.6873 10.4944 63.0618C8.83146 62.4363 7.37079 61.5651 6.11236 60.4482C4.85393 59.3759 3.8427 58.0803 3.07865 56.5613C2.35955 55.0422 2 53.3668 2 51.5351V13.8723C2 11.9511 2.35955 10.164 3.07865 8.51099C3.8427 6.81326 4.85393 5.33892 6.11236 4.08796C7.37079 2.837 8.83146 1.8541 10.4944 1.13927C12.2022 0.379756 14.0225 0 15.9551 0Z" fill="#1B1E50"/>
</svg>
