<svg width="64" height="64" viewBox="0 0 64 64" fill="none" xmlns="http://www.w3.org/2000/svg">
<path d="M37.98 38.0649C38.7167 38.0649 39.3233 37.8192 39.8 37.3277C40.2767 36.8363 40.515 36.2332 40.515 35.5183C40.515 34.7588 40.2767 34.1333 39.8 33.6419C39.3233 33.1504 38.7167 32.9047 37.98 32.9047C37.2867 32.9047 36.68 33.1504 36.16 33.6419C35.6833 34.1333 35.445 34.7588 35.445 35.5183C35.445 36.2332 35.6833 36.8363 36.16 37.3277C36.68 37.8192 37.2867 38.0649 37.98 38.0649ZM32.65 32.5696C33.3433 32.5696 33.9283 32.3239 34.405 31.8325C34.925 31.2963 35.185 30.6709 35.185 29.956C35.185 29.1965 34.925 28.571 34.405 28.0796C33.9283 27.5881 33.3433 27.3424 32.65 27.3424C31.9133 27.3424 31.3067 27.5881 30.83 28.0796C30.3533 28.571 30.115 29.1965 30.115 29.956C30.115 30.6709 30.3533 31.2963 30.83 31.8325C31.3067 32.3239 31.9133 32.5696 32.65 32.5696ZM32.65 43.6272C33.3433 43.6272 33.9283 43.3815 34.405 42.8901C34.925 42.3986 35.185 41.7731 35.185 41.0136C35.185 40.2988 34.925 39.6956 34.405 39.2042C33.9283 38.6681 33.3433 38.4 32.65 38.4C31.9133 38.4 31.3067 38.6681 30.83 39.2042C30.3533 39.6956 30.115 40.2988 30.115 41.0136C30.115 41.7731 30.3533 42.3986 30.83 42.8901C31.3067 43.3815 31.9133 43.6272 32.65 43.6272ZM27.255 38.1319C27.9483 38.1319 28.5333 37.8862 29.01 37.3948C29.53 36.8586 29.79 36.2332 29.79 35.5183C29.79 34.7588 29.53 34.1333 29.01 33.6419C28.5333 33.1058 27.9483 32.8377 27.255 32.8377C26.5183 32.8377 25.9117 33.1058 25.435 33.6419C24.9583 34.1333 24.72 34.7588 24.72 35.5183C24.72 36.2332 24.9583 36.8586 25.435 37.3948C25.9117 37.8862 26.5183 38.1319 27.255 38.1319ZM32.65 8.91309C31.09 8.91309 29.7467 9.47155 28.62 10.5885C27.5367 11.7054 26.995 13.0681 26.995 14.6764C26.995 16.2848 27.5367 17.6475 28.62 18.7644C29.7467 19.8813 31.09 20.4398 32.65 20.4398C33.43 20.4398 34.145 20.3058 34.795 20.0377C35.4883 19.725 36.0733 19.3005 36.55 18.7644C37.07 18.2283 37.4817 17.6251 37.785 16.955C38.0883 16.2401 38.24 15.4806 38.24 14.6764C38.24 13.8723 38.0883 13.1351 37.785 12.4649C37.4817 11.7501 37.07 11.1246 36.55 10.5885C36.0733 10.0524 35.4883 9.65026 34.795 9.3822C34.145 9.06946 33.43 8.91309 32.65 8.91309ZM33.625 0H44.675C44.8917 0 45 0.111693 45 0.335079V63.6649C45 63.8883 44.8917 64 44.675 64H33.625C31.675 64 29.8117 63.6649 28.035 62.9948C26.2583 62.3693 24.6983 61.4534 23.355 60.2471C22.0117 59.0855 20.95 57.6782 20.17 56.0251C19.39 54.3274 19 52.4286 19 50.3288V14.7435C19 12.6883 19.39 10.7672 20.17 8.9801C20.95 7.19302 22.0117 5.62932 23.355 4.28901C24.6983 2.94869 26.2583 1.89878 28.035 1.13927C29.8117 0.379756 31.675 0 33.625 0Z" fill="#1B1E50"/>
</svg>
