<svg width="64" height="64" viewBox="0 0 64 64" fill="none" xmlns="http://www.w3.org/2000/svg">
<path d="M36.745 21.1099C37.4817 21.1099 38.0883 20.8642 38.565 20.3728C39.0417 19.8813 39.28 19.2558 39.28 18.4963C39.28 17.7815 39.0417 17.1784 38.565 16.6869C38.0883 16.1508 37.4817 15.8827 36.745 15.8827C36.0083 15.8827 35.4017 16.1508 34.925 16.6869C34.4483 17.1784 34.21 17.7815 34.21 18.4963C34.21 19.2558 34.4483 19.8813 34.925 20.3728C35.4017 20.8642 36.0083 21.1099 36.745 21.1099ZM31.35 45.1016C32.91 45.1016 34.2317 44.5431 35.315 43.4262C36.4417 42.2646 37.005 40.8796 37.005 39.2712C37.005 38.467 36.8533 37.7298 36.55 37.0597C36.2467 36.3449 35.835 35.7417 35.315 35.2503C34.8383 34.7141 34.2533 34.2897 33.56 33.977C32.8667 33.6642 32.13 33.5079 31.35 33.5079C30.57 33.5079 29.8333 33.6642 29.14 33.977C28.49 34.2897 27.905 34.7141 27.385 35.2503C26.9083 35.7417 26.5183 36.3449 26.215 37.0597C25.9117 37.7298 25.76 38.467 25.76 39.2712C25.76 40.0754 25.9117 40.8349 26.215 41.5497C26.5183 42.2646 26.9083 42.8901 27.385 43.4262C27.905 43.9176 28.49 44.3197 29.14 44.6325C29.8333 44.9452 30.57 45.1016 31.35 45.1016ZM23.485 18.4963C23.485 19.2558 23.7233 19.8813 24.2 20.3728C24.6767 20.8642 25.2833 21.1099 26.02 21.1099C26.7133 21.1099 27.2983 20.8642 27.775 20.3728C28.295 19.8813 28.555 19.2558 28.555 18.4963C28.555 17.7815 28.295 17.1784 27.775 16.6869C27.2983 16.1508 26.7133 15.8827 26.02 15.8827C25.2833 15.8827 24.6767 16.1508 24.2 16.6869C23.7233 17.1784 23.485 17.7815 23.485 18.4963ZM31.35 21.445C30.6567 21.445 30.05 21.6908 29.53 22.1822C29.0533 22.6736 28.815 23.2991 28.815 24.0586C28.815 24.7735 29.0533 25.399 29.53 25.9351C30.05 26.4265 30.6567 26.6723 31.35 26.6723C32.0867 26.6723 32.6933 26.4265 33.17 25.9351C33.6467 25.399 33.885 24.7735 33.885 24.0586C33.885 23.2991 33.6467 22.6736 33.17 22.1822C32.6933 21.6908 32.0867 21.445 31.35 21.445ZM31.35 10.3204C30.6567 10.3204 30.05 10.5885 29.53 11.1246C29.0533 11.6161 28.815 12.2192 28.815 12.934C28.815 13.6935 29.0533 14.319 29.53 14.8105C30.05 15.3019 30.6567 15.5476 31.35 15.5476C32.0867 15.5476 32.6933 15.3019 33.17 14.8105C33.6467 14.319 33.885 13.6935 33.885 12.934C33.885 12.2192 33.6467 11.6161 33.17 11.1246C32.6933 10.5885 32.0867 10.3204 31.35 10.3204ZM19.325 0H30.375C32.325 0 34.1883 0.402094 35.965 1.20628C37.7417 2.01047 39.3017 3.10506 40.645 4.49005C41.9883 5.83037 43.05 7.4164 43.83 9.24817C44.61 11.0799 45 13.0234 45 15.0785V50.6639C45 52.6743 44.61 54.5061 43.83 56.1592C43.05 57.7675 41.9883 59.1525 40.645 60.3141C39.3017 61.5204 37.7417 62.4363 35.965 63.0618C34.1883 63.6873 32.325 64 30.375 64H19.325C19.1083 64 19 63.8883 19 63.6649V0.335079C19 0.111693 19.1083 0 19.325 0Z" fill="#1B1E50"/>
</svg>
