<svg width="64" height="64" viewBox="0 0 64 64" fill="none" xmlns="http://www.w3.org/2000/svg">
<path d="M55 30.7794V47.0588C55 48.3382 54.7132 49.6838 54.1396 51.0956C53.5659 52.5074 52.8379 53.6985 51.9554 54.6691L51.095 55.5956C50.8302 55.9044 50.5655 56.3456 50.3007 56.9191C50.036 57.4926 49.9036 57.9559 49.9036 58.3088V59.9632C49.9036 61.0221 49.352 61.9706 48.2489 62.8088C47.2341 63.6029 45.9986 64 44.5424 64H24.6863C23.9803 64 23.2964 63.8897 22.6345 63.6691C22.0168 63.4485 21.4432 63.1397 20.9137 62.7426C20.4283 62.3897 20.0312 61.9706 19.7223 61.4853C19.4576 61 19.3252 60.4926 19.3252 59.9632V58.3088C19.3252 58.0882 19.1928 57.7574 18.9281 57.3162C18.7074 56.875 18.4647 56.5441 18.2 56.3235L12.905 52.4853C11.7578 51.6471 10.8091 50.5221 10.059 49.1103C9.353 47.6544 9 46.2206 9 44.8088V36.8015C9 35.4338 9.353 34.0662 10.059 32.6985C10.765 31.2868 11.7137 30.1397 12.905 29.2574L15.6849 27.2059V26.9412C15.6849 25.8382 15.8835 24.8015 16.2806 23.8309C16.7218 22.8603 17.2734 22.0221 17.9353 21.3162C18.6412 20.6103 19.4576 20.0588 20.3842 19.6618C21.3549 19.2206 22.3698 19 23.4288 19C24.7525 19 25.7233 19.1324 26.341 19.3971C27.0029 19.6176 27.6206 19.9265 28.1942 20.3235C28.5472 20.0588 29.0767 19.7721 29.7827 19.4632C30.4887 19.1544 31.305 19 32.2317 19C33.2465 19 34.2393 19.2206 35.2101 19.6618C36.2249 20.0588 37.1074 20.6544 37.8576 21.4485C38.6077 21.2721 39.1813 21.1397 39.5784 21.0515C40.0197 20.9632 40.2844 20.9191 40.3727 20.9191C41.4758 20.9191 42.5127 21.1397 43.4835 21.5809C44.4983 22.0221 45.3146 22.6618 45.9324 23.5C46.4177 23.4118 46.8149 23.3456 47.1237 23.3015C47.4326 23.2132 47.6753 23.1691 47.8518 23.1691C48.8225 23.1691 49.7492 23.3676 50.6317 23.7647C51.5142 24.1618 52.2643 24.7132 52.882 25.4191C53.5439 26.0809 54.0513 26.875 54.4043 27.8015C54.8014 28.7279 55 29.7206 55 30.7794ZM50.3007 47.0588V29.7206C50.3007 29.0147 49.9918 28.5074 49.3741 28.1985C48.8005 27.8897 48.3592 27.7353 48.0504 27.7353C47.6532 27.7353 47.1679 27.8897 46.5942 28.1985C46.0206 28.4632 45.7338 28.9485 45.7338 29.6544V30.8456H43.0201V27.6029C43.0201 26.9853 42.7554 26.4779 42.2259 26.0809C41.7405 25.6838 41.189 25.4853 40.5712 25.4853C40.0417 25.4853 39.4902 25.6838 38.9165 26.0809C38.3429 26.4338 38.0561 26.9191 38.0561 27.5368V30.8456H35.2101V26.0809C35.2101 25.4632 34.8791 24.8897 34.2173 24.3603C33.5995 23.8309 32.9377 23.5662 32.2317 23.5662C31.5698 23.5662 30.952 23.8309 30.3784 24.3603C29.8048 24.8456 29.518 25.3971 29.518 26.0147V30.8456H26.6719V26.8088C26.6719 25.8824 26.3631 25.1324 25.7453 24.5588C25.1276 23.9412 24.3554 23.6324 23.4288 23.6324C22.5463 23.6324 21.7962 23.9412 21.1784 24.5588C20.5607 25.1324 20.2518 25.8824 20.2518 26.8088V38.9853H16.8101V32.1029L15.6849 32.8971C15.1113 33.2941 14.6259 33.8897 14.2288 34.6838C13.8317 35.4779 13.6331 36.1838 13.6331 36.8015V44.8088C13.6331 45.5147 13.8317 46.2647 14.2288 47.0588C14.67 47.8088 15.1554 48.3824 15.6849 48.7794L20.9799 52.6838C21.8182 53.3015 22.5242 54.1397 23.0978 55.1985C23.6715 56.2574 23.9583 57.2941 23.9583 58.3088V58.5074C23.9583 58.6838 24.0465 58.8603 24.223 59.0368C24.3995 59.2132 24.5981 59.3015 24.8187 59.3015H44.4101C44.6307 59.3015 44.8293 59.2132 45.0058 59.0368C45.1823 58.9044 45.2705 58.75 45.2705 58.5735V58.3088C45.2705 57.2941 45.4911 56.2574 45.9324 55.1985C46.3736 54.1397 46.9693 53.2132 47.7194 52.4191L48.5137 51.5588C48.999 51.0294 49.4182 50.3235 49.7712 49.4412C50.1242 48.5147 50.3007 47.7206 50.3007 47.0588ZM34.2173 36.3382C35.0115 36.3382 35.7837 36.4485 36.5338 36.6691C37.2839 36.8897 37.9458 37.2206 38.5194 37.6618C39.1372 38.1029 39.6225 38.6544 39.9755 39.3162C40.3285 39.9779 40.505 40.75 40.505 41.6324C40.505 42.7353 40.2182 43.7279 39.6446 44.6103C39.071 45.4485 38.3871 46.2647 37.5928 47.0588C36.7986 47.8529 35.9602 48.6691 35.0777 49.5074C34.2393 50.3015 33.5333 51.2059 32.9597 52.2206H40.7036V55.0662H28.2604C28.1722 54.9779 28.1281 54.8676 28.1281 54.7353C28.1281 54.3382 28.2825 53.8088 28.5914 53.1471C28.9002 52.4412 29.165 51.9118 29.3856 51.5588C30.0034 50.5 30.7314 49.4853 31.5698 48.5147C32.4523 47.5 33.3568 46.5735 34.2835 45.7353C34.8571 45.2059 35.4748 44.6324 36.1367 44.0147C36.8427 43.3971 37.1957 42.625 37.1957 41.6985C37.1957 40.7279 36.8868 40.0662 36.2691 39.7132C35.6513 39.3162 34.9233 39.1176 34.0849 39.1176C32.8935 39.1176 32.0552 39.5147 31.5698 40.3088C31.1285 41.1029 30.8859 42.0074 30.8417 43.0221L27.9295 42.2941C28.0177 40.4412 28.6134 38.9853 29.7165 37.9265C30.8638 36.8676 32.364 36.3382 34.2173 36.3382Z" fill="#1B1E50"/>
</svg>
