<svg width="64" height="64" viewBox="0 0 64 64" fill="none" xmlns="http://www.w3.org/2000/svg">
<path d="M54.2952 25.506C54.983 25.506 55.5419 25.2663 55.9718 24.7868C56.4447 24.3073 56.6811 23.7406 56.6811 23.0868C56.6811 22.4329 56.4447 21.8663 55.9718 21.3868C55.5419 20.9073 54.983 20.6675 54.2952 20.6675C53.6504 20.6675 53.0915 20.9073 52.6186 21.3868C52.1888 21.8663 51.9738 22.4329 51.9738 23.0868C51.9738 23.7406 52.1888 24.3073 52.6186 24.7868C53.0915 25.2663 53.6504 25.506 54.2952 25.506ZM49.33 21.0599C49.9748 21.0599 50.5122 20.8419 50.9421 20.406C51.4149 19.9265 51.6514 19.3599 51.6514 18.706C51.6514 18.0086 51.4149 17.4419 50.9421 17.006C50.5122 16.5265 49.9748 16.2868 49.33 16.2868C48.6422 16.2868 48.0618 16.5265 47.5889 17.006C47.159 17.4419 46.9441 18.0086 46.9441 18.706C46.9441 19.3599 47.159 19.9265 47.5889 20.406C48.0618 20.8419 48.6422 21.0599 49.33 21.0599ZM49.33 29.8868C49.9748 29.8868 50.5122 29.6689 50.9421 29.233C51.4149 28.7535 51.6514 28.165 51.6514 27.4676C51.6514 26.8137 51.4149 26.2688 50.9421 25.8329C50.5122 25.3535 49.9748 25.1137 49.33 25.1137C48.6422 25.1137 48.0618 25.3535 47.5889 25.8329C47.159 26.2688 46.9441 26.8137 46.9441 27.4676C46.9441 28.165 47.159 28.7535 47.5889 29.233C48.0618 29.6689 48.6422 29.8868 49.33 29.8868ZM44.3003 25.506C44.9451 25.506 45.5039 25.2663 45.9768 24.7868C46.4497 24.3073 46.6861 23.7406 46.6861 23.0868C46.6861 22.4329 46.4497 21.8663 45.9768 21.3868C45.5039 20.9073 44.9451 20.6675 44.3003 20.6675C43.6554 20.6675 43.0966 20.9073 42.6237 21.3868C42.1508 21.8663 41.9144 22.4329 41.9144 23.0868C41.9144 23.7406 42.1508 24.3073 42.6237 24.7868C43.0966 25.2663 43.6554 25.506 44.3003 25.506ZM40.4957 37.0137C41.4845 37.0137 42.3228 36.665 43.0106 35.9676C43.7414 35.2266 44.1068 34.3548 44.1068 33.3522C44.1068 32.3496 43.7414 31.4996 43.0106 30.8022C42.3228 30.0612 41.4845 29.6906 40.4957 29.6906C39.507 29.6906 38.6472 30.0612 37.9164 30.8022C37.2285 31.4996 36.8846 32.3496 36.8846 33.3522C36.8846 34.3548 37.2285 35.2266 37.9164 35.9676C38.6472 36.665 39.507 37.0137 40.4957 37.0137ZM26.8897 34.3984V33.3522V32.306C26.8897 32.0009 26.7177 31.8483 26.3738 31.8483H23.9234C23.7515 31.8483 23.6655 31.7612 23.6655 31.5868V29.1022C23.6655 28.7535 23.515 28.5791 23.2141 28.5791H21.1506C20.8067 28.5791 20.6348 28.7535 20.6348 29.1022V31.5868C20.6348 31.7176 20.5918 31.783 20.5058 31.783L20.4413 31.8483H17.9264C17.6255 31.8483 17.4751 32.0009 17.4751 32.306V33.3522V34.3984C17.4751 34.7471 17.6255 34.9214 17.9264 34.9214H20.4413C20.5273 34.9214 20.5703 34.965 20.5703 35.0522C20.6133 35.0522 20.6348 35.074 20.6348 35.1176V37.6676C20.6348 37.9727 20.8067 38.1253 21.1506 38.1253H23.2141C23.515 38.1253 23.6655 37.9727 23.6655 37.6676V35.1176L23.73 35.0522C23.816 34.965 23.8804 34.9214 23.9234 34.9214H26.3738C26.7177 34.9214 26.8897 34.7471 26.8897 34.3984ZM14.0574 26.7483C15.0462 26.7483 15.8845 26.3996 16.5723 25.7022C17.3031 24.9611 17.6685 24.0894 17.6685 23.0868C17.6685 22.0842 17.3031 21.2342 16.5723 20.5368C15.8845 19.7958 15.0462 19.4252 14.0574 19.4252C13.0687 19.4252 12.2089 19.7958 11.4781 20.5368C10.7903 21.2342 10.4463 22.0842 10.4463 23.0868C10.4463 24.0894 10.7903 24.9611 11.4781 25.7022C12.2089 26.3996 13.0687 26.7483 14.0574 26.7483ZM63.9678 44.9253C64.0107 45.7535 64.0107 46.6471 63.9678 47.6061C63.9248 48.5651 63.7528 49.4804 63.4519 50.3522C63.194 51.224 62.7856 52.0304 62.2267 52.7715C61.7108 53.5125 60.98 54.0792 60.0343 54.4715C59.0025 54.951 58.0568 55.0817 57.197 54.8638C56.3802 54.6458 55.6279 54.2535 54.9401 53.6869C54.2952 53.0766 53.7149 52.3574 53.199 51.5292C52.7261 50.701 52.2962 49.8945 51.9093 49.1099C51.4364 48.1509 50.9851 47.192 50.5552 46.233C50.1253 45.2304 49.6094 44.2932 49.0076 43.4214C48.4057 42.5497 47.7394 42.0266 47.0086 41.8522C46.3207 41.6779 45.5039 41.5907 44.5582 41.5907H20.9572C20.3553 41.5907 19.7535 41.5907 19.1516 41.5907C18.5928 41.5471 18.0339 41.5907 17.4751 41.7214C16.4863 41.9394 15.7125 42.5061 15.1537 43.4214C14.6378 44.2932 14.1649 45.1432 13.735 45.9715C13.3051 46.8433 12.8752 47.715 12.4453 48.5868C12.0154 49.4586 11.5641 50.3304 11.0912 51.2022C10.6183 52.0304 10.0594 52.7933 9.41461 53.4907C8.76977 54.1881 7.95298 54.6458 6.96423 54.8638C6.10445 55.0817 5.26616 55.0381 4.44937 54.733C3.63258 54.3843 2.90176 53.9048 2.25693 53.2945C1.52611 52.5971 0.988749 51.8125 0.644836 50.9407C0.343913 50.0689 0.150462 49.1535 0.0644836 48.1945C-0.0214945 47.192 -0.0214945 46.2112 0.0644836 45.2522C0.150462 44.2497 0.257935 43.2907 0.386902 42.3753C0.687825 40.283 1.01024 38.2125 1.35416 36.1637C1.69807 34.115 2.06348 32.0445 2.45038 29.9522C2.79429 27.8599 3.1382 25.8111 3.48212 23.806C3.86902 21.7573 4.40638 19.7522 5.09421 17.7906C5.26616 17.3111 5.45961 16.897 5.67456 16.5483C5.93249 16.156 6.23342 15.7855 6.57733 15.4368C6.62032 15.306 6.74929 15.197 6.96423 15.1098C7.13619 14.8483 7.28665 14.456 7.41562 13.9329C7.58757 13.4098 7.75953 13.0175 7.93149 12.756C8.31839 12.1457 8.81276 11.6445 9.41461 11.2521C10.0594 10.8162 10.7473 10.4675 11.4781 10.206C12.2089 9.94445 12.9397 9.74829 13.6705 9.61752C14.4443 9.44316 15.1751 9.31239 15.863 9.22521C16.5938 9.13803 17.3246 9.07265 18.0554 9.02906C18.8292 8.94188 19.5815 9.05085 20.3123 9.35598C20.7422 9.57393 21.1506 9.90086 21.5375 10.3368C21.9244 10.7291 22.3328 11.0124 22.7627 11.1868H26.8897C29.0821 11.1868 31.2316 11.1868 33.338 11.1868C35.4445 11.1432 37.594 11.1432 39.7864 11.1868C40.0443 11.1868 40.3023 11.2086 40.5602 11.2521C40.8181 11.2521 41.0761 11.2521 41.334 11.2521C41.7639 11.0342 42.1723 10.7291 42.5592 10.3368C42.9461 9.90086 43.3545 9.57393 43.7844 9.35598C44.5152 9.05085 45.2675 8.94188 46.0413 9.02906C46.8151 9.07265 47.5674 9.13803 48.2982 9.22521C48.9431 9.31239 49.6309 9.44316 50.3617 9.61752C51.1355 9.74829 51.8878 9.94445 52.6186 10.206C53.3495 10.4675 54.0158 10.8162 54.6176 11.2521C55.2625 11.6445 55.7783 12.1457 56.1652 12.756C56.3372 13.0175 56.4877 13.4098 56.6166 13.9329C56.7886 14.456 56.9605 14.8483 57.1325 15.1098C57.2615 15.1534 57.4119 15.2624 57.5839 15.4368C58.1857 16.1342 58.6371 16.8752 58.938 17.6598C59.239 18.4445 59.4969 19.2727 59.7118 20.1445C60.2277 22.2368 60.6576 24.2855 61.0015 26.2906C61.3884 28.2958 61.7538 30.3445 62.0977 32.4368C62.4416 34.5291 62.7856 36.6214 63.1295 38.7137C63.4734 40.7625 63.7528 42.833 63.9678 44.9253Z" fill="#1B1E50"/>
</svg>
