<svg width="64" height="64" viewBox="0 0 64 64" fill="none" xmlns="http://www.w3.org/2000/svg">
<path d="M0.321932 4H45.1992C47.7746 4 50.1999 4.49634 52.4748 5.48902C54.7928 6.4817 56.7887 7.84123 58.4628 9.56763C60.1797 11.294 61.5319 13.301 62.5191 15.5884C63.5064 17.8759 64 20.336 64 22.9688V59.6763C64 59.8921 63.9141 60 63.7425 60H0.321932C0.107311 60 0 59.8921 0 59.6763V4.3237C0 4.1079 0.107311 4 0.321932 4ZM45.1992 9.04971H5.02213V55.1445H58.9779V22.9688C58.9779 21.0266 58.613 19.2139 57.8833 17.5306C57.1536 15.8474 56.1663 14.38 54.9215 13.1283C53.6767 11.8767 52.2173 10.884 50.5433 10.1503C48.8692 9.41657 47.0879 9.04971 45.1992 9.04971ZM30.2616 30.4786H25.2394V20.4439H30.5835C31.5278 20.4439 32.4078 20.5303 33.2233 20.7029C34.0818 20.8755 34.833 21.1561 35.4769 21.5445C36.1207 21.9329 36.6144 22.4509 36.9577 23.0983C37.3441 23.7025 37.5372 24.4794 37.5372 25.4289C37.5372 27.3279 36.829 28.6443 35.4125 29.378C34.0389 30.1118 32.3219 30.4786 30.2616 30.4786ZM20.9256 48.0879H25.2394V34.1688H29.9396L37.8592 48.0879H43.1388L34.3823 33.7156C36.6144 33.3272 38.4386 32.4424 39.8551 31.0613C41.2716 29.637 41.9799 27.7595 41.9799 25.4289C41.9799 23.832 41.6794 22.494 41.0785 21.415C40.4775 20.2929 39.662 19.3865 38.6318 18.696C37.6445 18.0054 36.4641 17.5091 35.0905 17.2069C33.7599 16.9048 32.3649 16.7538 30.9054 16.7538H20.9256V48.0879Z" fill="#1B1E50"/>
</svg>
