<svg width="64" height="64" viewBox="0 0 64 64" fill="none" xmlns="http://www.w3.org/2000/svg">
<path d="M32 55.7503C35.9097 55.7503 39.5857 55.0843 43.0279 53.7523C46.4701 52.3773 49.4661 50.5082 52.0159 48.145C54.5657 45.7818 56.5843 43.0319 58.0717 39.8953C59.5591 36.7157 60.3028 33.3427 60.3028 29.7764C60.3028 26.1672 59.5591 22.7942 58.0717 19.6576C56.5843 16.478 54.5657 13.7281 52.0159 11.4079C49.4661 9.04465 46.4701 7.17556 43.0279 5.8006C39.5857 4.42565 35.9097 3.73817 32 3.73817C28.0903 3.73817 24.4143 4.42565 20.9721 5.8006C17.5299 7.17556 14.5339 9.04465 11.9841 11.4079C9.43426 13.7281 7.41567 16.478 5.92829 19.6576C4.4409 22.7942 3.69721 26.1672 3.69721 29.7764C3.69721 33.3427 4.4409 36.7157 5.92829 39.8953C7.41567 43.0319 9.43426 45.7818 11.9841 48.145C14.5339 50.5082 17.5299 52.3773 20.9721 53.7523C24.4143 55.0843 28.0903 55.7503 32 55.7503ZM32 0C35.9947 0 39.9044 0.708963 43.7291 2.12689C47.5963 3.50185 51.0173 5.49983 53.992 8.12085C57.0093 10.7419 59.4316 13.9 61.259 17.5952C63.0863 21.2904 64 25.4152 64 29.9698C64 35.8993 63.1501 41.0124 61.4502 45.3092C59.7503 49.6059 57.4555 53.1507 54.5657 55.9436C51.676 58.6935 48.2762 60.713 44.3665 62.002C40.4993 63.334 36.3772 64 32 64C27.6228 64 23.5007 63.334 19.6335 62.002C15.7663 60.713 12.3665 58.6935 9.43426 55.9436C6.54449 53.1507 4.24967 49.6059 2.5498 45.3092C0.849934 41.0124 0 35.8993 0 29.9698C0 25.4152 0.913679 21.2904 2.74104 17.5952C4.56839 13.9 6.96946 10.7419 9.94422 8.12085C12.9615 5.49983 16.3825 3.50185 20.2072 2.12689C24.0319 0.708963 27.9628 0 32 0ZM8.73307 28.1007C8.73307 31.0655 9.32802 33.8583 10.5179 36.4794C11.7503 39.1004 13.4077 41.3991 15.49 43.3756C17.6149 45.3092 20.0797 46.856 22.8845 48.0161C25.7317 49.1333 28.7703 49.6918 32 49.6918C35.2297 49.6918 38.247 49.1333 41.0518 48.0161C43.8991 46.856 46.3639 45.3092 48.4462 43.3756C50.5711 41.3991 52.2284 39.1004 53.4183 36.4794C54.6507 33.8583 55.2669 31.0655 55.2669 28.1007C55.2669 25.136 54.6507 22.3431 53.4183 19.7221C52.2284 17.101 50.5711 14.8238 48.4462 12.8902C46.3639 10.9137 43.8991 9.3669 41.0518 8.24975C38.247 7.08963 35.2297 6.50957 32 6.50957C28.7703 6.50957 25.7317 7.08963 22.8845 8.24975C20.0797 9.3669 17.6149 10.9137 15.49 12.8902C13.4077 14.8238 11.7503 17.101 10.5179 19.7221C9.32802 22.3431 8.73307 25.136 8.73307 28.1007Z" fill="#1B1E50"/>
</svg>
