<svg width="64" height="64" viewBox="0 0 64 64" fill="none" xmlns="http://www.w3.org/2000/svg">
<path d="M34.552 36.7221L39.2101 44.5086H35.5927L31.4301 37.0738H29.5471V44.5086H26.5243V27.1272H32.1239C34.106 27.1272 35.6257 27.5625 36.6829 28.4333C37.773 29.2705 38.3181 30.4929 38.3181 32.1005C38.3181 33.2726 37.9878 34.2773 37.3271 35.1146C36.6663 35.9184 35.7413 36.4542 34.552 36.7221ZM35.2953 32.1005C35.2953 30.5934 34.1886 29.8399 31.9752 29.8399H29.5471V34.4113H31.8266C34.1391 34.4113 35.2953 33.641 35.2953 32.1005ZM24.6908 20.1947L26.8216 22.0031C25.2689 22.5055 23.8484 23.2088 22.56 24.113C21.2716 24.9838 20.1648 26.022 19.2398 27.2276C18.3148 28.3998 17.588 29.7059 17.0595 31.146C16.5309 32.5526 16.2666 34.0429 16.2666 35.617C16.2666 37.6264 16.6796 39.5186 17.5055 41.2936C18.3314 43.0351 19.4546 44.5589 20.8751 45.865C22.2957 47.1711 23.9475 48.2093 25.8305 48.9796C27.7466 49.7164 29.7948 50.0848 31.9752 50.0848C34.1556 50.0848 36.2038 49.7164 38.1199 48.9796C40.036 48.2093 41.7043 47.1711 43.1249 45.865C44.5454 44.5589 45.6686 43.0351 46.4945 41.2936C47.3204 39.5186 47.7334 37.6264 47.7334 35.617C47.7334 34.0429 47.4691 32.5526 46.9405 31.146C46.412 29.7059 45.6852 28.3998 44.7602 27.2276C43.8351 26.022 42.7119 24.9838 41.3905 24.113C40.1021 23.2088 38.6981 22.5055 37.1784 22.0031L39.3092 20.1444C40.8949 20.8142 42.3485 21.685 43.67 22.7567C45.0244 23.7949 46.1807 24.9838 47.1388 26.3234C48.0968 27.663 48.8401 29.1198 49.3687 30.6939C49.8973 32.2679 50.1615 33.9089 50.1615 35.617C50.1615 37.9948 49.6825 40.1884 48.7245 42.1978C47.7664 44.1737 46.4615 45.8985 44.8097 47.3721C43.1909 48.8121 41.2749 49.9508 39.0614 50.7881C36.848 51.5918 34.486 51.9937 31.9752 51.9937C29.4645 51.9937 27.1024 51.5918 24.889 50.7881C22.7086 49.9508 20.7925 48.8121 19.1407 47.3721C17.522 45.8985 16.2336 44.1737 15.2755 42.1978C14.3175 40.1884 13.8385 37.9948 13.8385 35.617C13.8385 33.8755 14.1027 32.2344 14.6313 30.6939C15.1599 29.1198 15.9032 27.663 16.8612 26.3234C17.8193 24.9838 18.959 23.7949 20.2805 22.7567C21.635 21.7185 23.1051 20.8645 24.6908 20.1947ZM41.2914 18.4867L43.7195 16.3768C45.6026 17.3145 47.3535 18.4699 48.9722 19.843C50.591 21.2161 51.995 22.7734 53.1843 24.5149C54.3736 26.2564 55.2986 28.1821 55.9594 30.292C56.6531 32.4019 57 34.6792 57 37.124C57 41.5113 56.3393 45.3794 55.0178 48.7284C53.6964 52.0774 51.8959 54.8739 49.6165 57.1177C47.337 59.3951 44.6776 61.1031 41.6383 62.2418C38.5989 63.4139 35.3779 64 31.9752 64C28.5725 64 25.3515 63.4139 22.3122 62.2418C19.3059 61.1031 16.663 59.3951 14.3835 57.1177C12.1041 54.8739 10.3036 52.0774 8.98216 48.7284C7.66072 45.3794 7 41.5113 7 37.124C7 34.6792 7.33036 32.4019 7.99108 30.292C8.68484 28.1821 9.60984 26.2564 10.7661 24.5149C11.9554 22.7734 13.3594 21.2161 14.9782 19.843C16.597 18.4699 18.3479 17.3145 20.2309 16.3768L22.7086 18.4867C20.8256 19.2904 19.0912 20.3286 17.5055 21.6013C15.9197 22.8404 14.5652 24.2637 13.442 25.8713C12.3188 27.4453 11.4433 29.1701 10.8157 31.0455C10.188 32.921 9.87413 34.8802 9.87413 36.9231C9.87413 39.7363 10.4523 42.3485 11.6085 44.7598C12.7648 47.1376 14.3505 49.1973 16.3657 50.9388C18.3809 52.6468 20.7265 53.9864 23.4024 54.9576C26.0783 55.9623 28.9359 56.4647 31.9752 56.4647C35.0145 56.4647 37.8721 55.9623 40.5481 54.9576C43.257 53.9864 45.6026 52.6468 47.5847 50.9388C49.5999 49.1973 51.1857 47.1376 52.3419 44.7598C53.4982 42.3485 54.0763 39.7363 54.0763 36.9231C54.0763 34.8802 53.7625 32.921 53.1348 31.0455C52.5071 29.1701 51.6316 27.4453 50.5084 25.8713C49.3852 24.2637 48.0307 22.8404 46.445 21.6013C44.8923 20.3286 43.1744 19.2904 41.2914 18.4867ZM37.8226 0.251177V8.13815H47.1883C47.3204 8.13815 47.403 8.20513 47.4361 8.33909C47.5021 8.47305 47.4856 8.57352 47.3865 8.6405L32.1734 21.6013C32.1074 21.6682 32.0413 21.7017 31.9752 21.7017C31.9422 21.7017 31.8926 21.6682 31.8266 21.6013L16.6135 8.6405C16.5144 8.57352 16.4813 8.47305 16.5144 8.33909C16.5474 8.20513 16.63 8.13815 16.7621 8.13815H25.8801V0.251177C25.8801 0.0837258 25.9627 0 26.1278 0H37.5748C37.74 0 37.8226 0.0837258 37.8226 0.251177Z" fill="#1B1E50"/>
</svg>
