<svg width="64" height="64" viewBox="0 0 64 64" fill="none" xmlns="http://www.w3.org/2000/svg">
<path d="M53.6531 19.8115L61.596 33.683C62.2202 34.7732 62.6442 36.0802 62.8678 37.6041C63.1289 39.1062 63.0923 40.4808 62.7581 41.7279L62.4478 42.8859C62.3364 43.3016 62.3298 43.8568 62.4281 44.5515C62.5422 45.1867 62.6854 45.6547 62.8576 45.9555L63.6003 47.2524C64.1384 48.1922 64.1332 49.2729 63.5847 50.4944C63.3451 51.0349 62.9983 51.5626 62.5443 52.0774C62.0903 52.5923 61.5826 53.0132 61.021 53.3401L44.1735 63.1477C42.938 63.8669 41.6665 64.131 40.359 63.9398C39.073 63.7862 38.1609 63.2395 37.6228 62.2997L36.9124 61.0591C36.7833 60.8336 36.488 60.5794 36.0266 60.2967C35.5652 60.0139 35.1978 59.8519 34.9245 59.8105L28.5591 59.1553C27.1767 59.0077 25.8121 58.4989 24.4653 57.6289C23.156 56.7371 22.1676 55.7085 21.5004 54.5431L17.5935 47.7201C16.9262 46.5548 16.5477 45.1962 16.4579 43.6446C16.384 42.0335 16.6293 40.5875 17.1937 39.3066L18.5837 36.2419L9.05875 19.6074C8.52061 18.6676 8.18324 17.6861 8.04663 16.6629C7.94746 15.6179 8.00647 14.6312 8.22365 13.7028C8.47826 12.7526 8.90182 11.8795 9.49431 11.0835C10.1027 10.2281 10.8562 9.53889 11.7547 9.01582C12.6907 8.47095 13.6594 8.15763 14.6609 8.07587C15.6783 7.93472 16.6587 7.99052 17.6021 8.24328C18.5455 8.49604 19.4225 8.93786 20.233 9.56874C21.081 10.1778 21.774 10.9523 22.3121 11.8921L27.8334 21.5345C27.8493 21.4751 27.9134 21.4127 28.0257 21.3473L28.5312 21.0531C29.4297 20.53 30.3984 20.2167 31.4373 20.1131C32.4922 19.9502 33.5315 20.0218 34.5555 20.3279C35.1058 19.8071 35.528 19.411 35.8219 19.1396C36.1532 18.8465 36.3563 18.6781 36.4312 18.6345C37.3672 18.0897 38.3654 17.7843 39.4258 17.7183C40.4647 17.6147 41.4694 17.7566 42.44 18.144C42.6965 17.8944 42.9342 17.6558 43.1532 17.428C43.3507 17.1627 43.5805 16.9537 43.8426 16.8012C44.6662 16.3217 45.5493 16.0332 46.4918 15.9356C47.4343 15.838 48.3399 15.9374 49.2084 16.2338C50.1144 16.5083 50.9432 16.9532 51.6947 17.5682C52.4837 18.1615 53.1365 18.9093 53.6531 19.8115ZM57.6087 36.0041L49.1815 21.2868C48.8802 20.7605 48.408 20.459 47.765 20.3822C47.0687 20.3865 46.5707 20.4759 46.2712 20.6503C45.9343 20.8464 45.5978 21.2177 45.2618 21.7642C44.9257 22.3107 44.9192 22.8659 45.242 23.4298L45.8232 24.4447L43.5207 25.7851L41.9709 23.0785C41.6695 22.5522 41.1786 22.2615 40.4982 22.2065C39.8337 22.0922 39.2206 22.1984 38.6591 22.5253C38.1724 22.8087 37.8199 23.2394 37.6018 23.8174C37.3622 24.3579 37.3931 24.8913 37.6944 25.4176L39.3088 28.237L36.894 29.6428L34.4724 25.4136C34.2141 24.9625 33.6858 24.6937 32.8874 24.6071C32.1265 24.4987 31.4278 24.6298 30.7913 25.0003C30.3046 25.2836 29.9176 25.7846 29.6302 26.5032C29.3588 27.1625 29.3522 27.7177 29.6105 28.1688L32.0644 32.4543L29.6496 33.86L18.3811 14.1805C17.929 13.3911 17.2902 12.8858 16.4647 12.6646C15.6177 12.4058 14.8011 12.5053 14.0149 12.963C13.2661 13.3989 12.7911 14.0513 12.5898 14.9203C12.367 15.7518 12.4816 16.5622 12.9337 17.3516L28.2059 44.0233L25.2857 45.7233L21.9277 39.8589L21.3605 41.0913C21.0675 41.713 20.9463 42.4602 20.9968 43.333C21.0473 44.2058 21.2232 44.9054 21.5246 45.4317L25.4314 52.2547C25.7543 52.8185 26.278 53.3407 27.0024 53.8212C27.7642 54.28 28.4666 54.5477 29.1096 54.6245L35.475 55.2797C36.5252 55.3701 37.5547 55.7732 38.5636 56.4891C39.5885 57.1455 40.3484 57.9061 40.8435 58.7707L40.8758 58.8271C40.9619 58.9775 41.1121 59.0655 41.3265 59.091C41.5623 59.1542 41.7738 59.1314 41.961 59.0224L58.5839 49.3456C58.7711 49.2366 58.8966 49.0633 58.9602 48.8258C59.0454 48.6258 59.0557 48.4695 58.9911 48.3567L58.9265 48.2439C58.4745 47.4545 58.1559 46.4621 57.9706 45.2667C57.7853 44.0714 57.8172 42.9501 58.0662 41.903L58.3203 40.7776C58.4739 40.0868 58.4851 39.2782 58.3541 38.352C58.2016 37.3882 57.9531 36.6056 57.6087 36.0041Z" fill="#1B1E50"/>
<path fill-rule="evenodd" clip-rule="evenodd" d="M26.7811 17.7444C26.9247 17.0185 27 16.268 27 15.5C27 14.732 26.9247 13.9815 26.7811 13.2556L30.7051 12.4794C30.899 13.4595 31 14.4699 31 15.5C31 16.5301 30.899 17.5405 30.7051 18.5206L26.7811 17.7444ZM25.063 9.11042L28.3869 6.88514C27.2564 5.19657 25.8034 3.74359 24.1149 2.61312L21.8896 5.937C23.1437 6.77659 24.2234 7.85633 25.063 9.11042ZM17.7444 4.21889L18.5206 0.29494C17.5405 0.101033 16.5301 0 15.5 0C14.4699 0 13.4595 0.101033 12.4794 0.29494L13.2556 4.21889C13.9815 4.07529 14.732 4 15.5 4C16.268 4 17.0185 4.07529 17.7444 4.21889ZM9.11042 5.937L6.88514 2.61312C5.19657 3.7436 3.74359 5.19657 2.61312 6.88514L5.937 9.11042C6.77659 7.85633 7.85633 6.77659 9.11042 5.937ZM4.21889 13.2556C4.07529 13.9815 4 14.732 4 15.5C4 16.268 4.07529 17.0185 4.21889 17.7444L0.29494 18.5206C0.101033 17.5405 0 16.5301 0 15.5C0 14.4699 0.101033 13.4595 0.29494 12.4794L4.21889 13.2556ZM5.937 21.8896L2.61312 24.1149C3.7436 25.8034 5.19657 27.2564 6.88514 28.3869L9.11042 25.063C7.85633 24.2234 6.77659 23.1437 5.937 21.8896Z" fill="#1B1E50"/>
</svg>
