<svg width="64" height="64" viewBox="0 0 64 64" fill="none" xmlns="http://www.w3.org/2000/svg">
<path d="M40.5442 24.5246V43.3443H50.0954V47.2787H36.3208V24.5246H40.5442ZM33.5919 47.2787H14.0345V43.541L27.6792 25.1148H14.2944V21.0492H33.397V24.7869L19.6873 43.2131H33.5919V47.2787ZM31.6426 0H49.7056C51.6548 0 53.4958 0.371585 55.2284 1.11475C56.9611 1.85792 58.4772 2.88525 59.7766 4.19672C61.0761 5.5082 62.0941 7.03825 62.8305 8.78689C63.6102 10.5355 64 12.3934 64 14.3607V64H0V32C0 27.5847 0.823012 23.4317 2.46904 19.541C4.15838 15.6503 6.43249 12.2623 9.29137 9.37705C12.1503 6.4918 15.4856 4.21858 19.2975 2.55738C23.1526 0.852459 27.2677 0 31.6426 0ZM49.7056 5.11475H31.6426C27.9607 5.11475 24.4954 5.83607 21.2467 7.27869C18.0413 8.6776 15.2257 10.6011 12.8 13.0492C10.4176 15.4536 8.53333 18.2951 7.14721 21.5738C5.76108 24.8087 5.06802 28.2842 5.06802 32V58.8852H58.867V14.3607C58.867 13.0929 58.6288 11.9126 58.1523 10.8197C57.6758 9.68306 57.0261 8.69945 56.203 7.86885C55.38 6.99454 54.4054 6.31694 53.2792 5.83607C52.153 5.35519 50.9618 5.11475 49.7056 5.11475Z" fill="#1B1E50"/>
</svg>
