<svg width="356" height="300" viewBox="0 0 356 300" fill="none" xmlns="http://www.w3.org/2000/svg">
<rect width="356" height="300" rx="16" fill="white"/>
<path d="M219.165 82.3876L227.883 89.6526C228.533 90.194 228.266 91.2468 227.436 91.4127C227.158 91.4682 226.87 91.4041 226.642 91.236L217.5 84.4999L177.333 159H170.598L215 83.9999L200.49 88.353C200.182 88.4454 199.848 88.3861 199.591 88.1932C198.929 87.6966 199.11 86.6584 199.901 86.415L215.428 81.6374C216.721 81.2397 218.126 81.5219 219.165 82.3876Z" fill="url(#paint0_linear_481_94)"/>
<path d="M177.57 39.7607C177.191 39.2803 176.612 39 176 39C175.388 39 174.81 39.2803 174.43 39.7607L159.43 58.7607C158.746 59.6277 158.894 60.8853 159.761 61.5698C160.628 62.2542 161.885 62.1062 162.57 61.2393L174 46.761V103H178V46.761L189.43 61.2393C190.115 62.1062 191.372 62.2542 192.239 61.5698C193.106 60.8853 193.254 59.6277 192.57 58.7607L177.57 39.7607Z" fill="url(#paint1_linear_481_94)"/>
<path d="M178 111H174V262C174 263.105 174.895 264 176 264C177.105 264 178 263.105 178 262V111Z" fill="url(#paint2_linear_481_94)"/>
<path d="M297.452 162.455C297.933 162.083 298.219 161.513 298.229 160.905C298.239 160.298 297.972 159.719 297.504 159.332L277.77 143.001C276.919 142.297 275.658 142.415 274.954 143.266C274.25 144.117 274.369 145.378 275.22 146.082L290.49 158.719L229 157.084V161.086L290.566 162.723L274.746 174.955C273.872 175.63 273.711 176.886 274.387 177.76C275.062 178.634 276.318 178.795 277.192 178.119L297.452 162.455Z" fill="url(#paint3_linear_481_94)"/>
<path d="M221 160.873V156.872L75.3161 152.999C74.2119 152.969 73.293 153.841 73.2637 154.945C73.2343 156.049 74.1056 156.968 75.2098 156.997L221 160.873Z" fill="url(#paint4_linear_481_94)"/>
<circle cx="175" cy="156" r="12" fill="#FF9C08"/>
<path d="M153.45 187.966L169.414 161H176.254L159.899 191.335C158.01 189.861 155.825 188.711 153.45 187.966Z" fill="url(#paint5_linear_481_94)"/>
<path d="M149.018 195.451L121.494 241.943C119.936 244.575 121.145 247.974 124.014 249.031C126.301 249.874 128.859 248.906 130.016 246.761L155.957 198.646C153.989 197.054 151.601 195.999 149.018 195.451Z" fill="url(#paint6_linear_481_94)"/>
<path d="M172.556 31.032C172.556 31.824 173.326 32.242 174.096 32.242C174.866 32.242 175.636 31.824 175.636 31.032V25.4L181.884 16.908C182.104 16.6 182.192 16.314 182.192 16.028C182.192 15.214 181.356 14.576 180.542 14.576C180.102 14.576 179.684 14.752 179.376 15.17L174.096 22.518L168.794 15.17C168.486 14.73 168.046 14.554 167.628 14.554C166.814 14.554 166 15.214 166 16.05C166 16.314 166.11 16.622 166.308 16.908L172.556 25.422V31.032Z" fill="#1AB306"/>
<path d="M194.891 26.654C195.617 26.654 195.969 25.95 195.969 25.246C195.969 24.542 195.617 23.838 194.891 23.838H190.865V19.768C190.865 19.042 190.161 18.668 189.457 18.668C188.731 18.668 188.027 19.042 188.027 19.768V23.838H183.979C183.275 23.838 182.901 24.542 182.901 25.246C182.901 25.95 183.275 26.654 183.979 26.654H188.027V31.076C188.027 31.78 188.731 32.154 189.457 32.154C190.161 32.154 190.865 31.78 190.865 31.076V26.654H194.891Z" fill="#1AB306"/>
<path d="M172.556 286.478C172.556 287.27 173.326 287.688 174.096 287.688C174.866 287.688 175.636 287.27 175.636 286.478V280.846L181.884 272.354C182.104 272.046 182.192 271.76 182.192 271.474C182.192 270.66 181.356 270.022 180.542 270.022C180.102 270.022 179.684 270.198 179.376 270.616L174.096 277.964L168.794 270.616C168.486 270.176 168.046 270 167.628 270C166.814 270 166 270.66 166 271.496C166 271.76 166.11 272.068 166.308 272.354L172.556 280.868V286.478Z" fill="#107004"/>
<path d="M189.219 282.298C190.033 282.298 190.429 281.506 190.429 280.714C190.429 279.922 190.033 279.13 189.219 279.13H183.323C182.509 279.13 182.113 279.922 182.113 280.714C182.113 281.506 182.509 282.298 183.323 282.298H189.219Z" fill="#107004"/>
<path d="M118.442 272C119.278 272 119.674 271.252 119.674 270.526C119.674 269.778 119.278 269.052 118.442 269.052H109.422L118.42 258.734C118.882 258.206 119.124 257.568 119.124 256.996C119.124 255.896 118.31 254.95 116.748 254.95H107.244C106.43 254.95 106.012 255.676 106.012 256.424C106.012 257.15 106.43 257.898 107.244 257.898H115.186L106.1 268.238C105.66 268.744 105.462 269.316 105.462 269.866C105.462 270.988 106.32 272 107.75 272H118.442Z" fill="#1638F0"/>
<path d="M127.919 266.852C128.733 266.852 129.129 266.06 129.129 265.268C129.129 264.476 128.733 263.684 127.919 263.684H122.023C121.209 263.684 120.813 264.476 120.813 265.268C120.813 266.06 121.209 266.852 122.023 266.852H127.919Z" fill="#1638F0"/>
<path d="M221.998 76C222.682 76 223.006 75.3881 223.006 74.7941C223.006 74.1821 222.682 73.588 221.998 73.588H214.618L221.98 65.146C222.358 64.714 222.556 64.192 222.556 63.724C222.556 62.824 221.89 62.05 220.612 62.05H212.836C212.17 62.05 211.828 62.644 211.828 63.256C211.828 63.85 212.17 64.462 212.836 64.462H219.334L211.9 72.9221C211.54 73.3361 211.378 73.804 211.378 74.254C211.378 75.172 212.08 76 213.25 76H221.998Z" fill="#3F95F2"/>
<path d="M233.496 71.626C234.09 71.626 234.378 71.05 234.378 70.474C234.378 69.898 234.09 69.3221 233.496 69.3221H230.202V65.992C230.202 65.398 229.626 65.092 229.05 65.092C228.456 65.092 227.88 65.398 227.88 65.992V69.3221H224.568C223.992 69.3221 223.686 69.898 223.686 70.474C223.686 71.05 223.992 71.626 224.568 71.626H227.88V75.244C227.88 75.82 228.456 76.126 229.05 76.126C229.626 76.126 230.202 75.82 230.202 75.244V71.626H233.496Z" fill="#3F95F2"/>
<path d="M316.55 169.626C316.88 170.066 317.32 170.264 317.782 170.264C318.618 170.264 319.476 169.626 319.476 168.79C319.476 168.526 319.388 168.24 319.168 167.954L314.196 161.09L318.662 154.908C318.882 154.622 318.97 154.336 318.97 154.072C318.97 153.236 318.09 152.576 317.254 152.576C316.836 152.576 316.418 152.73 316.132 153.126L312.282 158.582L308.432 153.126C308.146 152.73 307.728 152.576 307.31 152.576C306.474 152.576 305.616 153.214 305.616 154.05C305.616 154.314 305.704 154.622 305.924 154.908L310.39 161.09L305.418 167.932C305.22 168.218 305.11 168.504 305.11 168.79C305.11 169.604 305.924 170.264 306.76 170.264C307.222 170.264 307.684 170.066 308.014 169.604L312.282 163.576L316.55 169.626Z" fill="#FF4208"/>
<path d="M332.258 164.654C332.984 164.654 333.336 163.95 333.336 163.246C333.336 162.542 332.984 161.838 332.258 161.838H328.232V157.768C328.232 157.042 327.528 156.668 326.824 156.668C326.098 156.668 325.394 157.042 325.394 157.768V161.838H321.346C320.642 161.838 320.268 162.542 320.268 163.246C320.268 163.95 320.642 164.654 321.346 164.654H325.394V169.076C325.394 169.78 326.098 170.154 326.824 170.154C327.528 170.154 328.232 169.78 328.232 169.076V164.654H332.258Z" fill="#FF4208"/>
<path d="M52.44 161.05C52.77 161.49 53.21 161.688 53.672 161.688C54.508 161.688 55.366 161.05 55.366 160.214C55.366 159.95 55.278 159.664 55.058 159.378L50.086 152.514L54.552 146.332C54.772 146.046 54.86 145.76 54.86 145.496C54.86 144.66 53.98 144 53.144 144C52.726 144 52.308 144.154 52.022 144.55L48.172 150.006L44.322 144.55C44.036 144.154 43.618 144 43.2 144C42.364 144 41.506 144.638 41.506 145.474C41.506 145.738 41.594 146.046 41.814 146.332L46.28 152.514L41.308 159.356C41.11 159.642 41 159.928 41 160.214C41 161.028 41.814 161.688 42.65 161.688C43.112 161.688 43.574 161.49 43.904 161.028L48.172 155L52.44 161.05Z" fill="#FF4208"/>
<path d="M63.5723 156.276C64.3863 156.276 64.7823 155.484 64.7823 154.692C64.7823 153.9 64.3863 153.108 63.5723 153.108H57.6763C56.8623 153.108 56.4663 153.9 56.4663 154.692C56.4663 155.484 56.8623 156.276 57.6763 156.276H63.5723Z" fill="#FF4208"/>
<path d="M190.991 181C194.343 181 196 178.051 196 173.482C196 168.949 194.324 166 190.991 166C187.676 166 186 168.949 186 173.482C186 178.051 187.676 181 190.991 181ZM190.991 179.143C188.924 179.143 187.955 176.649 187.955 173.482C187.955 170.351 188.812 167.839 190.991 167.839C193.207 167.839 194.026 170.351 194.026 173.482C194.026 176.649 193.058 179.143 190.991 179.143Z" fill="#FF9C08"/>
<path d="M229 179C230.958 179 232.729 176.703 233.999 173H237.999C236.729 176.703 234.958 179 233 179H229Z" fill="#8F2100"/>
<path d="M229 139C231.129 139 233.036 141.715 234.32 146H230L237 152L243 146H238.32C237.036 141.715 235.129 139 233 139H229Z" fill="#8F2100"/>
<path d="M234 179C230.134 179 227 170.046 227 159C227 147.954 230.134 139 234 139H230C226.134 139 223 147.954 223 159C223 170.046 226.134 179 230 179H234Z" fill="#FF4A3D"/>
<path d="M195 103C195 101.042 192.703 99.2714 189 98.001V94.001C192.703 95.2714 195 97.0418 195 99V103Z" fill="#0D5903"/>
<path d="M155 103C155 100.871 157.715 98.9641 162 97.6803V102L168 95L162 89L162 93.6803C157.715 94.9641 155 96.8711 155 99L155 103Z" fill="#0D5903"/>
<path d="M195 98C195 101.866 186.046 105 175 105C163.954 105 155 101.866 155 98L155 102C155 105.866 163.954 109 175 109C186.046 109 195 105.866 195 102V98Z" fill="#1AB306"/>
<path d="M153 221C158.6 219.8 165.5 212.5 165 205C164.5 214.5 156.5 216.333 155 216.5L153 221Z" fill="#001382"/>
<path d="M128 207C127.6 202.2 131.333 197 132.5 196C130.5 198 130.333 203.333 131 204.5L134 201L132.5 214.5L124.5 211.5L128 207Z" fill="#001382"/>
<path d="M163.5 212C164.467 209.976 165 207.851 165 205.5C165 196.387 156.941 189 147 189C139.885 189 133.735 192.784 130.812 198.276C134.019 195.06 138.959 193 144.5 193C154.068 193 163.5 198.5 163.5 212Z" fill="#3954FE"/>
<defs>
<linearGradient id="paint0_linear_481_94" x1="217.5" y1="83" x2="123" y2="247" gradientUnits="userSpaceOnUse">
<stop offset="0.0400941" stop-color="#3F95F2"/>
<stop offset="0.733895" stop-color="#1638F0"/>
</linearGradient>
<linearGradient id="paint1_linear_481_94" x1="176" y1="39" x2="176" y2="264" gradientUnits="userSpaceOnUse">
<stop offset="0.558933" stop-color="#1AB306"/>
<stop offset="1" stop-color="#106F04"/>
</linearGradient>
<linearGradient id="paint2_linear_481_94" x1="176" y1="39" x2="176" y2="264" gradientUnits="userSpaceOnUse">
<stop offset="0.558933" stop-color="#1AB306"/>
<stop offset="1" stop-color="#106F04"/>
</linearGradient>
<linearGradient id="paint3_linear_481_94" x1="298.228" y1="160.925" x2="73.2279" y2="156.98" gradientUnits="userSpaceOnUse">
<stop stop-color="#FF4208"/>
<stop offset="0.571592" stop-color="#FF4208"/>
</linearGradient>
<linearGradient id="paint4_linear_481_94" x1="298.228" y1="160.925" x2="73.2279" y2="156.98" gradientUnits="userSpaceOnUse">
<stop stop-color="#FF4208"/>
<stop offset="0.571592" stop-color="#FF4208"/>
</linearGradient>
<linearGradient id="paint5_linear_481_94" x1="217.5" y1="83" x2="123" y2="247" gradientUnits="userSpaceOnUse">
<stop offset="0.0400941" stop-color="#3F95F2"/>
<stop offset="0.733895" stop-color="#1638F0"/>
</linearGradient>
<linearGradient id="paint6_linear_481_94" x1="217.5" y1="83" x2="123" y2="247" gradientUnits="userSpaceOnUse">
<stop offset="0.0400941" stop-color="#3F95F2"/>
<stop offset="0.733895" stop-color="#1638F0"/>
</linearGradient>
</defs>
</svg>
