<svg width="420" height="124" viewBox="0 0 420 124" fill="none" xmlns="http://www.w3.org/2000/svg">
<rect x="40" y="13" width="340" height="44" rx="3" fill="white" stroke="#FF004D" stroke-width="4"/>
<path d="M371 15L80 55H378V15H371Z" fill="#FF004D"/>
<path d="M56 6H74V64H56C50.4772 64 46 59.5228 46 54V16C46 10.4772 50.4772 6 56 6Z" fill="#FFEC00" stroke="#FF004D" stroke-width="4"/>
<path d="M380 64V6H398C403.523 6 408 10.4772 408 16V54C408 59.5228 403.523 64 398 64H380Z" fill="#FFEC00" stroke="#FF004D" stroke-width="4"/>
<path d="M176.25 90V88.75H175H172.886C172.276 88.75 171.922 88.0605 172.276 87.5641L178.39 79.005C178.689 78.5862 179.311 78.5862 179.61 79.005L185.724 87.5641C186.078 88.0605 185.724 88.75 185.114 88.75H183H181.75V90V93V94.25H183H187C187.966 94.25 188.75 95.0335 188.75 96V115C188.75 115.966 187.966 116.75 187 116.75H171C170.034 116.75 169.25 115.966 169.25 115V96C169.25 95.0335 170.034 94.25 171 94.25H174.5H175H176.25V93V90Z" fill="white" stroke="#FF004D" stroke-width="2.5"/>
<rect x="170" y="108" width="18" height="8" fill="#FF004D"/>
</svg>
