<svg width="24" height="24" viewBox="0 0 24 24" fill="none" xmlns="http://www.w3.org/2000/svg">
<path fill-rule="evenodd" clip-rule="evenodd" d="M12.2051 4.4793C13.1822 3.52105 14.4941 2.98816 15.8588 3.0002C17.2236 3.01224 18.526 3.56818 19.4863 4.54335C20.4462 5.51803 20.9881 6.83339 20.9998 8.20533C21.0115 9.57726 20.4923 10.9018 19.5494 11.8931L19.5373 11.9056L17.0256 14.456V14.456C16.5007 14.9892 15.8678 15.4027 15.1697 15.6671C14.4714 15.9316 13.7248 16.0406 12.9807 15.9865C12.2366 15.9324 11.5133 15.7164 10.86 15.354C10.2067 14.9916 9.63911 14.4915 9.19488 13.8884C8.86731 13.4438 8.96224 12.8178 9.40689 12.4902C9.85155 12.1626 10.4776 12.2576 10.8051 12.7022C11.08 13.0754 11.4299 13.383 11.8302 13.6051C12.2305 13.8272 12.6723 13.9588 13.1258 13.9918C13.5792 14.0247 14.0346 13.9584 14.4612 13.7968C14.8879 13.6351 15.2766 13.3818 15.6004 13.0529L18.1059 10.5088C18.6846 9.89731 19.0072 9.07687 18.9999 8.22245C18.9925 7.36528 18.6538 6.54832 18.0614 5.94672C17.4694 5.34562 16.6718 5.00745 15.8412 5.00012C15.0145 4.99283 14.2149 5.31384 13.6139 5.89907L13.1831 6.34325C12.7986 6.7397 12.1655 6.74938 11.769 6.36488C11.3726 5.98037 11.3629 5.34728 11.7474 4.95083L12.1875 4.49705C12.1933 4.49106 12.1992 4.48514 12.2051 4.4793ZM8.83035 8.33292C9.52857 8.06845 10.2752 7.95938 11.0193 8.01349C11.7634 8.06761 12.4867 8.28356 13.14 8.64599C13.7933 9.0084 14.3609 9.50853 14.8051 10.1116C15.1327 10.5562 15.0378 11.1822 14.5931 11.5098C14.1484 11.8374 13.5224 11.7424 13.1949 11.2978C12.92 10.9246 12.5701 10.617 12.1698 10.3949C11.7695 10.1728 11.3277 10.0412 10.8742 10.0082C10.4208 9.97525 9.96545 10.0416 9.53878 10.2032C9.11207 10.3649 8.72338 10.6182 8.39959 10.9471L5.89416 13.4911C5.31541 14.1027 4.99281 14.9231 5.00012 15.7776C5.00746 16.6347 5.34617 17.4517 5.93864 18.0533C6.53063 18.6544 7.32824 18.9925 8.1588 18.9999C8.98405 19.0072 9.78221 18.6873 10.3829 18.1041L10.8019 17.6637C11.1826 17.2635 11.8156 17.2478 12.2157 17.6285C12.6158 18.0092 12.6316 18.6421 12.2509 19.0422L11.8192 19.496C11.8112 19.5044 11.8031 19.5126 11.7949 19.5207C10.8178 20.4789 9.50591 21.0118 8.14116 20.9998C6.77642 20.9878 5.47405 20.4318 4.51367 19.4566C3.55377 18.482 3.01194 17.1666 3.00019 15.7947C2.98845 14.4227 3.50769 13.0982 4.45059 12.1069L4.46267 12.0944L6.97436 9.54403V9.54403C7.49934 9.01081 8.13223 8.59734 8.83035 8.33292Z" fill="black"/>
</svg>
