<svg width="724" height="128" viewBox="0 0 724 128" fill="none" xmlns="http://www.w3.org/2000/svg">
<circle cx="64" cy="64" r="62" fill="white" stroke="#FF8047" stroke-width="4"/>
<path fill-rule="evenodd" clip-rule="evenodd" d="M9.61816 97.7611C9.92759 97.7355 10.2406 97.7225 10.5566 97.7225H17.7363V42.2435C17.7363 39.7592 19.7501 37.7452 22.2342 37.7452H106.195C108.68 37.7452 110.693 39.7592 110.693 42.2435V97.7225H116.754C117.291 97.7225 117.819 97.7601 118.336 97.8328C107.033 115.947 86.9236 128 63.9993 128C41.0447 128 20.9127 115.915 9.61816 97.7611Z" fill="#FF8047"/>
<path d="M27.481 33.2468C25.8249 33.2468 24.4824 34.5895 24.4824 36.2457V91.7246C24.4824 93.3808 25.8249 94.7235 27.481 94.7235H56.7176C59.6157 94.7235 61.9651 97.0731 61.9651 99.9715C61.9651 101.214 62.972 102.221 64.2141 102.221C65.4562 102.221 66.4631 101.214 66.4631 99.9715C66.4631 97.0731 68.8125 94.7235 71.7106 94.7235H100.947C102.603 94.7235 103.946 93.3808 103.946 91.7246V36.2457C103.946 34.5895 102.603 33.2468 100.947 33.2468H27.481Z" fill="#FFFF01"/>
<path d="M83.144 87.2264C84.386 87.2264 85.3929 86.2194 85.3929 84.9773C85.3929 83.7351 84.386 82.7281 83.144 82.7281L70.9621 82.7281C69.72 82.7281 68.7131 83.7351 68.7131 84.9773C68.7131 86.2194 69.72 87.2264 70.9621 87.2264L83.144 87.2264Z" fill="#01D098"/>
<path d="M99.449 84.9773C99.449 86.2194 98.4421 87.2264 97.2 87.2264H91.3902C90.1481 87.2264 89.1412 86.2194 89.1412 84.9773C89.1412 83.7351 90.1481 82.7281 91.3902 82.7281H97.2C98.4421 82.7281 99.449 83.7351 99.449 84.9773Z" fill="#01D098"/>
<path d="M99.449 75.9806C99.449 77.2228 98.4421 78.2298 97.2 78.2298L70.9621 78.2298C69.72 78.2298 68.7131 77.2228 68.7131 75.9806C68.7131 74.7385 69.72 73.7315 70.9621 73.7315L97.2 73.7315C98.4421 73.7315 99.449 74.7385 99.449 75.9806Z" fill="#01D098"/>
<path d="M75.4601 66.984C75.4601 68.2262 74.4532 69.2332 73.2111 69.2332L70.9621 69.2332C69.7201 69.2332 68.7132 68.2262 68.7132 66.984C68.7132 65.7418 69.7201 64.7349 70.9621 64.7349L73.2111 64.7349C74.4532 64.7349 75.4601 65.7418 75.4601 66.984Z" fill="#01D098"/>
<path d="M97.2 69.2332C98.4421 69.2332 99.449 68.2262 99.449 66.984C99.449 65.7418 98.4421 64.7349 97.2 64.7349L82.207 64.7349C80.9649 64.7349 79.958 65.7418 79.958 66.984C79.958 68.2262 80.9649 69.2332 82.207 69.2332L97.2 69.2332Z" fill="#01D098"/>
<path d="M28.9814 66.9841C28.9814 65.7419 29.9883 64.735 31.2304 64.735H57.4683C58.7104 64.735 59.7173 65.7419 59.7173 66.9841C59.7173 68.2263 58.7104 69.2332 57.4683 69.2332H31.2304C29.9883 69.2332 28.9814 68.2263 28.9814 66.9841Z" fill="#01D098"/>
<path d="M28.9814 75.9807C28.9814 74.7385 29.9883 73.7315 31.2304 73.7315H37.0402C38.2823 73.7315 39.2892 74.7385 39.2892 75.9807C39.2892 77.2229 38.2823 78.2298 37.0402 78.2298H31.2304C29.9883 78.2298 28.9814 77.2229 28.9814 75.9807Z" fill="#01D098"/>
<path d="M45.2864 73.7315C44.0444 73.7315 43.0375 74.7385 43.0375 75.9807C43.0375 77.2229 44.0444 78.2298 45.2864 78.2298H57.4683C58.7104 78.2298 59.7173 77.2229 59.7173 75.9807C59.7173 74.7385 58.7104 73.7315 57.4683 73.7315H45.2864Z" fill="#01D098"/>
<path d="M52.9704 84.9773C52.9704 83.7351 53.9773 82.7281 55.2193 82.7281H57.4683C58.7104 82.7281 59.7173 83.7351 59.7173 84.9773C59.7173 86.2194 58.7104 87.2264 57.4683 87.2264H55.2193C53.9773 87.2264 52.9704 86.2194 52.9704 84.9773Z" fill="#01D098"/>
<path d="M31.2304 82.7281C29.9883 82.7281 28.9814 83.7351 28.9814 84.9773C28.9814 86.2194 29.9883 87.2264 31.2304 87.2264H46.2235C47.4656 87.2264 48.4725 86.2194 48.4725 84.9773C48.4725 83.7351 47.4656 82.7281 46.2235 82.7281H31.2304Z" fill="#01D098"/>
<path d="M61.9657 42.6184C61.9657 50.0714 56.9312 56.1133 50.7209 56.1133C44.5105 56.1133 39.4761 50.0714 39.4761 42.6184C39.4761 35.1654 44.5105 29.1235 50.7209 29.1235C56.9312 29.1235 61.9657 35.1654 61.9657 42.6184Z" fill="white"/>
<path d="M88.9533 42.6184C88.9533 50.0714 83.9188 56.1133 77.7084 56.1133C71.4981 56.1133 66.4636 50.0714 66.4636 42.6184C66.4636 35.1654 71.4981 29.1235 77.7084 29.1235C83.9188 29.1235 88.9533 35.1654 88.9533 42.6184Z" fill="white"/>
<path d="M58.2177 42.6183C58.2177 47.587 54.8614 51.6149 50.7212 51.6149C46.5809 51.6149 43.2246 47.587 43.2246 42.6183C43.2246 37.6496 46.5809 33.6217 50.7212 33.6217C54.8614 33.6217 58.2177 37.6496 58.2177 42.6183Z" fill="#1E4DF8"/>
<path d="M85.2053 42.6183C85.2053 47.587 81.8489 51.6149 77.7087 51.6149C73.5685 51.6149 70.2122 47.587 70.2122 42.6183C70.2122 37.6496 73.5685 33.6217 77.7087 33.6217C81.8489 33.6217 85.2053 37.6496 85.2053 42.6183Z" fill="#1E4DF8"/>
<path fill-rule="evenodd" clip-rule="evenodd" d="M50.7204 60.2366C56.7481 60.2366 61.564 56.6546 64.2142 51.6743C66.8644 56.6546 71.6802 60.2366 77.7079 60.2366C86.2511 60.2366 92.3599 53.0411 93.3189 44.8674H99.4479C100.69 44.8674 101.697 43.8605 101.697 42.6183C101.697 41.3761 100.69 40.3692 99.4479 40.3692H93.3189C92.3599 32.1955 86.2511 25 77.7079 25C71.6802 25 66.8644 28.582 64.2142 33.5623C61.564 28.582 56.7481 25 50.7204 25C42.1772 25 36.0684 32.1955 35.1095 40.3692H28.9804C27.7383 40.3692 26.7314 41.3761 26.7314 42.6183C26.7314 43.8605 27.7383 44.8674 28.9804 44.8674H35.1095C36.0684 53.0411 42.1772 60.2366 50.7204 60.2366ZM66.4631 42.6183C66.4631 49.8643 71.4976 55.7383 77.7079 55.7383C83.9183 55.7383 88.9528 49.8643 88.9528 42.6183C88.9528 35.3723 83.9183 29.4983 77.7079 29.4983C71.4976 29.4983 66.4631 35.3723 66.4631 42.6183ZM61.9652 42.6183C61.9652 49.8643 56.9307 55.7383 50.7204 55.7383C44.51 55.7383 39.4756 49.8643 39.4756 42.6183C39.4756 35.3723 44.51 29.4983 50.7204 29.4983C56.9307 29.4983 61.9652 35.3723 61.9652 42.6183Z" fill="#01A182"/>
<path d="M222.148 24.9275H204.386V60.1706C204.386 68.3902 204.723 77.1728 204.723 77.1728L171.448 24.9275H152V102.62H169.762V67.4894C169.762 59.2698 169.424 49.9242 169.424 49.9242L203.486 102.62H222.148V24.9275Z" fill="#201A36"/>
<path d="M293.419 75.0334C293.419 57.1304 280.266 46.0959 262.73 46.0959C245.193 46.0959 231.928 57.1304 231.928 75.0334C231.928 92.9365 245.193 103.858 262.73 103.858C280.266 103.858 293.419 92.9365 293.419 75.0334ZM275.32 74.6957C275.32 82.9153 270.599 89.1081 262.73 89.1081C254.748 89.1081 250.139 82.9153 250.139 74.6957C250.139 66.476 254.748 60.2832 262.73 60.2832C270.599 60.2832 275.32 66.476 275.32 74.6957Z" fill="#201A36"/>
<path d="M360.61 24.9275H342.624V53.8651C340.825 51.1628 335.204 46.0959 325.087 46.0959C309.012 46.0959 298.894 58.5942 298.894 74.9208C298.894 91.2475 309.012 103.858 325.087 103.858C332.506 103.858 339.139 101.043 343.298 95.4136L343.636 95.301L343.523 102.62H360.61V24.9275ZM343.186 74.6957C343.186 83.2531 338.015 89.1081 330.258 89.1081C322.501 89.1081 317.218 83.2531 317.218 74.6957C317.218 66.1382 322.501 60.2832 330.258 60.2832C338.015 60.2832 343.186 66.1382 343.186 74.6957Z" fill="#201A36"/>
<path d="M431.194 75.0334C431.194 57.1304 418.042 46.0959 400.505 46.0959C382.968 46.0959 369.703 57.1304 369.703 75.0334C369.703 92.9365 382.968 103.858 400.505 103.858C418.042 103.858 431.194 92.9365 431.194 75.0334ZM413.096 74.6957C413.096 82.9153 408.374 89.1081 400.505 89.1081C392.523 89.1081 387.914 82.9153 387.914 74.6957C387.914 66.476 392.523 60.2832 400.505 60.2832C408.374 60.2832 413.096 66.476 413.096 74.6957Z" fill="#201A36"/>
<path d="M501.871 74.9208C501.871 58.5942 491.753 46.0959 475.79 46.0959C467.359 46.0959 461.401 49.3612 457.354 54.2029H457.129L457.242 47.1093H440.154V123H458.141V95.6388C461.626 100.818 467.471 103.858 475.678 103.858C491.753 103.858 501.871 91.2475 501.871 74.9208ZM483.547 74.6957C483.547 83.2531 478.263 89.1081 470.507 89.1081C462.862 89.1081 457.579 83.2531 457.579 74.6957C457.579 66.1382 462.862 60.2832 470.507 60.2832C478.263 60.2832 483.547 66.1382 483.547 74.6957Z" fill="#201A36"/>
<path d="M564.928 73.2319C564.928 57.0178 553.574 46.0959 537.161 46.0959C520.749 46.0959 507.259 56.5674 507.259 74.9208C507.259 93.2742 519.737 103.858 536.824 103.858C554.024 103.858 561.331 96.2018 563.129 94.8506L556.047 85.505C552.9 87.6444 546.604 90.7971 539.41 90.7971C532.103 90.7971 526.032 87.194 525.245 79.1996H564.703C564.703 79.1996 564.928 75.9342 564.928 73.2319ZM525.358 68.9532C525.583 63.6611 529.405 57.806 536.824 57.806C544.356 57.806 548.066 63.8863 548.178 68.9532H525.358Z" fill="#201A36"/>
<path d="M631.66 24.9275H613.673V53.8651C611.875 51.1628 606.254 46.0959 596.137 46.0959C580.061 46.0959 569.944 58.5942 569.944 74.9208C569.944 91.2475 580.061 103.858 596.137 103.858C603.556 103.858 610.189 101.043 614.348 95.4136L614.685 95.301L614.573 102.62H631.66V24.9275ZM614.236 74.6957C614.236 83.2531 609.064 89.1081 601.308 89.1081C593.551 89.1081 588.267 83.2531 588.267 74.6957C588.267 66.1382 593.551 60.2832 601.308 60.2832C609.064 60.2832 614.236 66.1382 614.236 74.6957Z" fill="#201A36"/>
<path d="M663.461 31.3456C663.461 25.8283 659.301 22 653.231 22C647.16 22 643.001 25.8283 643.001 31.3456C643.001 36.9755 647.16 40.6912 653.231 40.6912C659.301 40.6912 663.461 36.9755 663.461 31.3456ZM662.224 47.1093H644.237V102.62H662.224V47.1093Z" fill="#201A36"/>
<path d="M724 71.3177C724 61.9721 721.639 56.5674 717.367 52.5139C712.983 48.4604 707.025 46.0959 696.683 46.0959C686.341 46.0959 677.685 49.3612 672.963 51.7258L677.685 63.4359C680.495 61.6343 687.577 58.4816 694.659 58.4816C701.854 58.4816 706.013 61.5217 706.013 67.3768V68.6154L692.074 69.1784C681.844 69.6288 670.49 73.7949 670.49 86.1806C670.49 98.5663 680.832 103.858 690.612 103.858C699.606 103.858 704.102 99.1293 706.463 96.7648L706.8 102.62H724V71.3177ZM706.126 87.3066C705.002 89.2207 701.742 92.3735 696.908 92.3735C691.961 92.3735 688.477 89.7837 688.477 85.505C688.477 81.3389 691.737 78.9744 697.245 78.7492L706.126 78.1862V87.3066Z" fill="#201A36"/>
</svg>
