<?xml version="1.0" encoding="UTF-8" standalone="no"?><!DOCTYPE svg PUBLIC "-//W3C//DTD SVG 1.1//EN" "http://www.w3.org/Graphics/SVG/1.1/DTD/svg11.dtd"><svg width="100%" height="100%" viewBox="0 0 413 244" version="1.1" xmlns="http://www.w3.org/2000/svg" xmlns:xlink="http://www.w3.org/1999/xlink" xml:space="preserve" xmlns:serif="http://www.serif.com/" style="fill-rule:evenodd;clip-rule:evenodd;stroke-linejoin:round;stroke-miterlimit:2;"><g id="image"><path d="M118.582,96.572c5.508,0.678 9.309,1.604 12.791,1.486c4.825,-0.163 4.74,0.567 8.935,0.93c15.889,1.374 15.986,0.347 26.173,2.848c5.525,1.356 11.86,1.548 13.278,1.992c14.904,4.66 15.704,2.217 25.132,4.765c1.511,0.408 1.71,11.31 2.792,11.577c0.557,0.138 5,-6.233 7.256,-8.054c0.696,-0.562 0.803,0.044 11.072,1.531c0.009,0.001 9.161,2.105 9.479,2.216c1.002,0.35 10.269,3.59 12.775,3.587c10.742,-0.015 19.58,6.32 27.875,7.954c15.657,3.085 15.313,4.18 15.656,4.575c-0.034,0.455 -0.091,1.202 0.543,5.681c0.17,2.828 0.288,2.756 0.771,5.588c2.177,12.774 -0.926,14.691 -3.217,22.234c-1.105,2.913 -1.063,2.923 -1.167,3.172c-0.173,0.414 -0.14,0.376 -0.301,0.812c-2.714,3.159 -3.258,5.337 -4.605,8.214c-1.443,3.082 -3.437,3.753 -5.894,6.84c-2.048,1.696 -8.916,4.837 -9.718,5.204c-0.853,0.387 -0.853,0.374 -0.921,0.417c-11.102,7.005 -17.838,5.018 -24.039,4.538c-7.338,-0.569 -7.335,-0.472 -14.48,-2.411c-6.679,-1.812 -7.235,-4.085 -11.519,-6.976c-10.293,-6.948 -11.041,-10.409 -13.146,-17.535c-0.848,-2.871 -3.218,-6.023 -4.069,-8.475c-2.231,-6.43 -0.995,-12.033 -3.164,-7.865c-2.809,5.398 -17.107,12.838 -25.504,16.024c-4.288,1.627 -23.068,-0.622 -24.355,-1.023c-5.554,-1.729 -9.175,-2.32 -12.157,-5.006c-4.33,-3.899 -5.026,-3.044 -8.872,-7.478c0.383,-0.311 4.699,-3.023 2.627,-8.508c-0.198,-0.524 -2.411,-6.384 -2.493,-6.546c-5.512,-10.928 -5.13,-19.283 -12.976,-27.516c0.946,-3.577 0.544,-3.605 1.412,-7.154c0.393,-1.609 3.304,-6.508 3.388,-6.708c0.128,-0.306 -0.171,-0.321 0.026,-0.605c0.229,-0.331 0.402,-0.013 0.617,-0.324Z" style="fill:#fefefe;"/><path d="M134.73,69.429c-6.48,0.147 -6.374,0.873 -12.809,1.117c-5.078,0.192 -5.481,0.708 -5.724,-0.189c-0.224,-0.824 -0.201,-0.906 3.63,-10.034c6.634,-15.805 9.295,-18.383 17.922,-29.36c2.931,-3.729 7.716,-6.324 11.409,-9.697c2.643,-2.414 2.652,-2.416 6.08,-3.513c0.859,-0.275 0.723,-0.633 10.598,-3.85c4.382,-1.428 4.278,-1.752 11.149,-2.839c1.158,-0.183 1.147,0.178 14.539,-1.817c0.702,-0.105 0.913,-0.136 8.864,0.437c2.841,0.205 -4.041,7.772 -5.068,12.712c-0.071,0.342 -3.146,11.411 -8.484,15.915c-4.545,3.835 -17.957,17.932 -38.771,17.711c-0.323,-0.003 -3.722,-0.04 -3.94,0.886c-0.164,0.701 -0.418,2.036 8.429,3.155c0.8,0.101 25.92,-0.641 36.973,-14.616c2.986,-3.775 3.619,-3.222 6.131,-7.288c0.934,-1.512 3.054,-2.738 5.448,-13.486c1.312,-5.891 1.059,-5.9 2.692,-11.707c1.032,-3.669 0.01,-10.184 12.207,-8.492c4.643,0.644 4.738,-0.239 8.24,0.947c9.051,3.065 9.053,3.645 17.896,3.759c4.582,0.059 6.052,5.301 5.74,7.687c-0.767,5.866 -0.536,5.874 -1.952,11.636c-0.315,1.284 -1.447,1.302 0.527,20.64c1.107,10.844 13.786,24.806 20.03,28.621c3.473,2.122 3.149,2.565 6.748,4.376c12.721,6.4 13.615,3.712 13.769,2.602c0.31,-2.229 -7.234,-2.286 -13.456,-8.017c-2.954,-2.721 -3.012,-2.575 -6.189,-4.971c-0.941,-0.71 -2.02,-1.523 -8.335,-12.155c-2.737,-4.607 -2.282,-4.807 -5.103,-9.405c-2.203,-3.591 -0.702,-4.92 -2.462,-12.716c-1.348,-5.969 0.04,-8.945 -0.07,-14.5c-0.056,-2.829 -0.333,-2.936 0.158,-3.409c1.711,-1.649 19.63,9.037 25.019,11.419c8.13,3.594 8.905,7.943 18.029,17.466c5.251,5.481 6.683,11.74 11.048,19.582c2.062,3.705 -0.093,4.832 2.233,15.039c1.253,5.5 0.699,5.549 1.612,11.145c0.371,2.277 -1,13.859 -1.59,14.023c-1.389,0.387 -1.091,-0.83 -16.325,-7.647c-8.723,-3.904 -8.58,-4.241 -13.823,-5.744c-6.681,-1.916 -6.025,-3.655 -17.171,-6.477c-11.377,-2.879 -15.483,-6.384 -19.564,-6.834c-5.227,-0.576 -5.131,-0.914 -10.06,-2.756c-3.813,-1.425 -10.216,-1.111 -21.047,-4.738c-10.216,-3.421 -12.348,-1.553 -19.485,-3.366c-2.462,-0.625 -26.914,-0.676 -39.564,-2.626c-0.284,-0.044 -0.269,-0.334 -16.128,1.372Z"/><path d="M412.704,165.471c-1.053,8.933 -3.735,12.279 -13.706,22.702c-0.418,0.437 -12.226,8.339 -20.473,8.363c-2.034,0.006 -13.673,-1.46 -19.303,-5.178c-4.042,-2.67 -4.313,-2.187 -8.016,-5.238c-4.597,-3.788 -16.685,-12.075 -18.162,-13.088c-8.629,-5.916 -12.669,-10.751 -18.386,-14.464c-3.489,-2.267 4.712,-10.03 0.189,-15.747c-1.213,-1.533 -1.708,-1.506 -1.225,-2.194c0.006,-0.008 3.008,-1.061 6.223,-4.33c3.917,-3.983 8.28,-18.406 -3.555,-23.944c-5.187,-2.427 -2.743,-4.057 -2.498,-9.79c0.115,-2.684 -0.044,-4.056 1.787,-3.648c6.498,1.447 6.436,1.615 12.271,4.258c5.529,2.504 27.188,10.528 27.739,10.781c14.254,6.544 15.261,4.041 29.17,11.223c6.817,3.52 13.03,2.418 20.166,12.849c5.251,7.675 6.622,7.702 7.779,27.446Z"/><path d="M118.582,96.572c-13.587,-2.431 -15.196,0.591 -18.218,-4.122c-0.75,-1.171 -2.068,-6.97 -1.312,-8.82c2.456,-6.007 5.406,-5.9 13.943,-7.826c0.706,-0.159 36.164,-3.884 37.862,-3.822c6.136,0.225 21.967,2.459 29.484,1.988c6.775,-0.424 7.864,1.124 12.817,1.409c16.034,0.922 15.45,4.149 22.288,4.723c12.24,1.027 11.935,2.47 24.492,5.13c7.194,1.524 7.892,4.791 19.973,7.026c4.673,0.865 9.948,4.024 14.501,5.37c9.02,2.668 10.295,4.783 19.457,7.87c4.77,1.608 4.128,2.818 11.619,6.235c4.078,1.86 3.744,2.468 7.928,4.153c4.657,1.876 7.427,10.015 5.412,13.33c-2.927,4.815 -4.673,10.01 -20.955,4.884c-3.103,-0.977 -2.917,-1.391 -6.077,-2.121c-0.343,-0.395 0.001,-1.49 -15.656,-4.575c-8.295,-1.634 -17.133,-7.969 -27.875,-7.954c-2.506,0.003 -11.773,-3.237 -12.775,-3.587c-0.318,-0.111 -9.47,-2.215 -9.479,-2.216c-10.269,-1.487 -10.376,-2.092 -11.072,-1.531c-2.257,1.821 -6.699,8.191 -7.256,8.054c-1.082,-0.267 -1.281,-11.169 -2.792,-11.577c-9.428,-2.548 -10.228,-0.105 -25.132,-4.765c-1.418,-0.443 -7.753,-0.635 -13.278,-1.992c-10.187,-2.501 -10.284,-1.474 -26.173,-2.848c-4.195,-0.363 -4.111,-1.093 -8.935,-0.93c-3.482,0.118 -7.283,-0.808 -12.791,-1.486Z"/><path d="M113.14,111.363c7.846,8.233 7.464,16.588 12.976,27.516c0.082,0.162 2.295,6.022 2.493,6.546c2.072,5.486 -2.244,8.197 -2.627,8.508c-0.702,0.387 -0.559,0.515 -1.3,0.936c-7.784,4.84 -5.714,-8.311 -30.643,-22.165c-0.444,-0.247 -9.759,-4.676 -11.17,-4.157c-1.104,0.406 -1.997,4.097 -8.263,3.948c-1.748,-0.042 -8.371,-3.001 -21.763,-6.395c-0.563,-0.143 -0.44,-0.42 -6.667,-2.859c-6.709,-2.628 -4.64,-11.005 -7.163,-11.884c-5.482,-1.909 -5.963,-0.891 -6.175,-0.443c-1.811,3.83 -3.718,8.769 -20.618,1.746c-6.611,-2.747 -3.897,-9.401 -3.57,-10.201c3.503,-8.589 2.345,-13.096 5.947,-20.986c3.221,-7.055 2.388,-16.056 11.571,-16.42c0.898,-0.036 14.582,3.843 16.583,8.067c2.489,5.254 -1.38,7.543 1.833,8.039c2.289,0.353 5.127,1.323 5.998,-0.34c0.461,-0.88 1.371,-5.228 7.863,-4.856c1.379,0.079 1.337,0.166 16.679,4.449c2.845,0.794 8.187,2.557 8.895,2.79c11.508,3.797 7.646,11.111 10.72,12.434c4.309,1.854 4.019,2.273 9.178,6.055c1.911,1.401 6.179,7.514 9.221,9.671Z"/><path d="M125.982,153.933c3.846,4.434 4.542,3.579 8.872,7.478c2.982,2.685 6.602,3.277 12.157,5.006c1.287,0.4 20.067,2.65 24.355,1.023c8.397,-3.186 22.695,-10.626 25.504,-16.024c2.169,-4.168 0.933,1.435 3.164,7.865c0.851,2.452 3.221,5.603 4.069,8.475c2.105,7.127 2.853,10.588 13.146,17.535c4.283,2.891 4.84,5.164 11.519,6.976c7.145,1.939 7.141,1.842 14.48,2.411c6.201,0.481 12.937,2.468 24.039,-4.538c0.068,-0.043 0.068,-0.031 0.921,-0.417c0.013,0.081 0.765,0.18 0.132,0.827c-1.111,1.138 -1.135,1.062 -2.334,2.116c-8.197,7.211 -25.495,14.654 -38.891,14.312c-16.412,-0.419 -16.389,-0.179 -17.813,-0.238c-10.328,-0.423 -19.345,-4.106 -23.939,-4.26c-6.547,-0.22 -6.317,-1.45 -12.788,-2.544c-1.065,-0.18 -5.913,-0.999 -12.665,-4.674c-9.094,-4.949 -23.802,-8.093 -32.824,-31.524c-2.214,-5.75 0.373,-7.413 -2.405,-8.869c0.741,-0.421 0.598,-0.55 1.3,-0.936Zm82.227,32.991c-5.3,-0.875 -10.648,-17.729 -16.135,-16.326c-8.869,2.268 -9.931,5.107 -17.165,9.002c-3.894,2.097 -4.571,-1.778 -7.345,-1.292c-2.984,0.523 1.459,4.478 1.799,4.851c3.865,4.24 8.12,1.555 18.337,-4.144c3.892,-2.171 4.394,-0.936 6.869,2.773c2.796,4.19 2.802,4.122 5.612,8.315c4.73,7.059 13.103,-0.586 13.125,-0.653c0.825,-2.425 -4.457,-2.435 -5.098,-2.526Z"/><path d="M250.745,142.627c0.088,1.633 0.584,10.878 -9.284,18.211c-10.363,7.701 -22.522,2.308 -26.255,-3.002c-4.196,-5.968 -5.638,-5.738 -5.285,-14.073c0.286,-6.774 0.661,-6.754 4.087,-12.655c2.552,-4.395 14.4,-11.912 26.368,-4.447c10.241,6.387 10.078,14.14 10.37,15.965Z" style="fill:#ff4e9b;"/><path d="M173.152,109.487c6.823,-0.33 19.529,5.036 21.434,17.613c2.228,14.71 -12.015,22.275 -15.955,23.068c-14.359,2.894 -21.454,-8.687 -22.008,-9.354c-4.796,-5.776 -2.472,-17.303 -0.641,-20.362c5.19,-8.672 8.819,-9.871 17.17,-10.966Z" style="fill:#00c5c5;"/><path d="M292.34,137.66c1.191,0.027 1.108,0.396 14.32,4.079c11.002,3.067 3.304,11.386 0.555,21.489c-1.615,5.935 -3.995,4.433 -11.645,3.477c-2.917,-0.365 -2.945,-0.145 -5.677,-1.224c2.291,-7.542 5.395,-9.459 3.217,-22.234c-0.483,-2.832 -0.6,-2.759 -0.771,-5.588Z"/><path d="M55.61,133.411c4.581,1.428 13.258,3.461 12.592,5.826c-0.91,3.232 -1.549,2.995 -2.525,7.861c-0.971,4.842 -2.912,2.968 -7.772,3.928c-2.529,0.5 -2.795,1.388 -4.798,-0.286c-8.345,-6.971 -13.689,-5.884 -13.179,-8.122c0.231,-1.013 3.86,-12.894 6.184,-11.95c4.609,1.871 4.657,1.616 9.498,2.743Z" style="fill:#010000;"/><path d="M3.219,217.008c-4.362,-8.703 -3.425,-9.383 0.072,-18.163c1.154,-2.896 3.405,-3.482 3.044,-5.024c-0.331,-1.417 -4.198,-8.591 3.852,-22.689c1.908,-3.342 4.796,-1.828 4.406,-5.673c-0.497,-4.903 2.829,-15.267 11.01,-17.836c3.954,-1.242 13.637,0.113 19.357,4.123c3.681,2.581 7.319,3.587 5.998,4.566c-4.598,3.406 -9.467,4.462 -11.513,21.399c-0.255,2.107 1.862,7.067 5.053,8.442c5.269,2.27 5.292,2.049 6.682,2.364c2.874,0.65 0.007,4.41 -1.814,10.858c-1.187,4.202 -1.098,4.215 -3.07,7.338c-0.477,0.755 -0.316,0.832 -3.902,10.295l-39.176,0Zm44.657,0c0.154,-0.701 0.137,-0.716 0.182,-0.788c2.958,-4.796 5.643,-16.32 6.433,-17.942c1.91,-3.919 1.457,-4.051 2.508,-8.261c0.745,-2.984 6.385,-1.89 9.17,-7.332c4.345,-8.49 4.35,-8.701 3.876,-9.358c-2.791,-3.872 -3.845,15.988 -21.603,9.387c-7.661,-2.848 -2.874,-20.195 10.666,-25.941c4.076,-1.73 13.055,-1.018 15.404,1.01c6.739,5.817 7.51,8.51 8.185,9.525c4.194,6.308 5.145,17.708 2.979,23.748c-6.421,17.91 -12.013,24.456 -12.746,25.951l-25.054,0Zm32.34,-0c1.36,-3.276 8.176,-13.419 11.416,-26.541c0.271,-1.099 -0.235,-4.202 3.467,-2.015c11.105,6.562 27.848,10.48 37.385,9.761c19.967,-1.505 20.073,-1.606 21.598,-0.79c4.102,2.193 4.129,2.014 8.461,3.69c4.212,1.629 3.958,2.189 8.365,3.29c6.352,1.587 6.115,3.653 14.465,3.495c6.825,-0.129 11.968,2.498 12.912,2.98c0.157,0.08 10.348,1.858 17.722,0.928c8.797,-1.109 15.772,2.54 29.541,-2.772c1.22,-0.471 6.272,-1.377 10.687,-4.353c5.575,-3.756 5.911,-3.617 6.45,-3.394c2.901,1.202 10.613,10.596 16.415,14.558c0.561,0.383 0.552,0.32 1.084,0.693c0.265,0.185 0.447,0.34 0.577,0.468l-200.545,0Zm206.385,0c-1.191,-2.374 -3.38,-4.532 -9.166,-13.271c-5.101,-7.704 -7.276,-7.859 -5.031,-10.842c3.275,-4.351 4.619,-4.561 5.523,-8.376c2.456,-3.087 4.45,-3.758 5.894,-6.84c1.347,-2.877 1.891,-5.054 4.605,-8.214c2.223,0.499 13.696,2.391 16.592,1.927c8.873,-1.422 4.682,-10.506 7.694,-7.967c4.361,3.677 3.827,4.193 8.247,7.862c0.653,0.542 0.444,0.754 7.626,7.365c2.55,2.348 4.621,2.836 13.068,11.448c8.611,8.78 10.768,6.434 21.533,19.128c0.899,1.06 0.998,0.917 1.871,1.978c2.305,2.802 3.432,4.362 3.715,4.753c0.383,0.529 0.536,0.697 0.456,1.049l-82.626,0Z"/></g></svg>