<svg width="456" height="128" viewBox="0 0 456 128" fill="none" xmlns="http://www.w3.org/2000/svg">
<path d="M0 16L9.23753 0L55.4402 80L46.1977 96L0 16Z" fill="url(#paint0_linear_327_35)"/>
<path d="M73.9203 48L64.6777 32L83.1578 0L92.4003 16L73.9203 48Z" fill="url(#paint1_linear_327_35)"/>
<path d="M249.478 0L240.241 16L286.439 96L295.681 80L249.478 0Z" fill="url(#paint2_linear_327_35)"/>
<path d="M295.681 16L304.919 0L314.161 16L304.919 32L295.681 16Z" fill="url(#paint3_linear_327_35)"/>
<path d="M354.357 0L345.12 16L382.08 80L363.6 112L372.837 128L400.56 80L354.357 0Z" fill="url(#paint4_linear_327_35)"/>
<path d="M147.841 16L157.078 0L166.321 16L157.078 32L147.841 16Z" fill="url(#paint5_linear_327_35)"/>
<path d="M409.802 32L419.04 48L437.52 16L428.282 0L409.802 32Z" fill="url(#paint6_linear_327_35)"/>
<path d="M184.801 16L175.558 32L194.038 64L203.281 48L184.801 16Z" fill="url(#paint7_linear_327_35)"/>
<path d="M120.118 32L110.88 48L138.598 96L147.841 80L120.118 32Z" fill="url(#paint8_linear_327_35)"/>
<path d="M221.761 80L230.998 64L240.241 80L230.998 96L221.761 80Z" fill="url(#paint9_linear_327_35)"/>
<path d="M73.9202 48L92.4003 16H110.88L92.4003 48H73.9202Z" fill="#FF9A8C"/>
<path d="M157.078 32L166.321 16H184.801L175.558 32H157.078Z" fill="#FF9A8C"/>
<path d="M314.161 16L304.919 32H323.399L332.641 16H314.161Z" fill="#FF9A8C"/>
<path d="M437.52 48H419.04L437.52 16H456L437.52 48Z" fill="#FF9A8C"/>
<path d="M55.4402 80L46.1976 96H64.6777L73.9202 80H55.4402Z" fill="#FF9A8C"/>
<path d="M138.598 96L147.84 80H184.801L175.558 96H138.598Z" fill="#FF9A8C"/>
<path d="M249.478 96L258.721 80H240.241L230.998 96H249.478Z" fill="#FF9A8C"/>
<path d="M314.161 80L304.919 96H286.439L295.681 80H314.161Z" fill="#FF9A8C"/>
<path d="M391.322 128L419.04 80H400.56L372.837 128H391.322Z" fill="#FF9A8C"/>
<path d="M212.533 64H194.053L203.296 48H221.776L212.533 64Z" fill="#FF9A8C"/>
<path d="M9.23755 0L55.4402 80H73.9203L27.7176 0H9.23755Z" fill="white"/>
<path d="M83.1578 0L92.4004 16H110.88L101.638 0H83.1578Z" fill="white"/>
<path d="M157.078 0H194.038L221.761 48H203.281L184.801 16H166.321L157.078 0Z" fill="white"/>
<path d="M249.478 0L295.681 80H314.161L267.958 0H249.478Z" fill="white"/>
<path d="M314.161 16L304.919 0H323.399L332.641 16H314.161Z" fill="white"/>
<path d="M354.357 0L400.56 80H419.04L372.837 0H354.357Z" fill="white"/>
<path d="M428.282 0H446.763L456 16H437.52L428.282 0Z" fill="white"/>
<path d="M120.118 32L147.841 80H184.801L175.558 64H157.078L138.598 32H120.118Z" fill="white"/>
<path d="M240.241 80L230.998 64H249.478L258.721 80H240.241Z" fill="white"/>
<defs>
<linearGradient id="paint0_linear_327_35" x1="0" y1="128" x2="2.71808e-06" y2="0" gradientUnits="userSpaceOnUse">
<stop stop-color="#FB0087"/>
<stop offset="1" stop-color="#FF5791"/>
</linearGradient>
<linearGradient id="paint1_linear_327_35" x1="0" y1="128" x2="2.71808e-06" y2="0" gradientUnits="userSpaceOnUse">
<stop stop-color="#FB0087"/>
<stop offset="1" stop-color="#FF5791"/>
</linearGradient>
<linearGradient id="paint2_linear_327_35" x1="0" y1="128" x2="2.71808e-06" y2="0" gradientUnits="userSpaceOnUse">
<stop stop-color="#FB0087"/>
<stop offset="1" stop-color="#FF5791"/>
</linearGradient>
<linearGradient id="paint3_linear_327_35" x1="0" y1="128" x2="2.71808e-06" y2="0" gradientUnits="userSpaceOnUse">
<stop stop-color="#FB0087"/>
<stop offset="1" stop-color="#FF5791"/>
</linearGradient>
<linearGradient id="paint4_linear_327_35" x1="0" y1="128" x2="2.71808e-06" y2="0" gradientUnits="userSpaceOnUse">
<stop stop-color="#FB0087"/>
<stop offset="1" stop-color="#FF5791"/>
</linearGradient>
<linearGradient id="paint5_linear_327_35" x1="0" y1="128" x2="2.71808e-06" y2="0" gradientUnits="userSpaceOnUse">
<stop stop-color="#FB0087"/>
<stop offset="1" stop-color="#FF5791"/>
</linearGradient>
<linearGradient id="paint6_linear_327_35" x1="0" y1="128" x2="2.71808e-06" y2="0" gradientUnits="userSpaceOnUse">
<stop stop-color="#FB0087"/>
<stop offset="1" stop-color="#FF5791"/>
</linearGradient>
<linearGradient id="paint7_linear_327_35" x1="0" y1="128" x2="2.71808e-06" y2="0" gradientUnits="userSpaceOnUse">
<stop stop-color="#FB0087"/>
<stop offset="1" stop-color="#FF5791"/>
</linearGradient>
<linearGradient id="paint8_linear_327_35" x1="0" y1="128" x2="2.71808e-06" y2="0" gradientUnits="userSpaceOnUse">
<stop stop-color="#FB0087"/>
<stop offset="1" stop-color="#FF5791"/>
</linearGradient>
<linearGradient id="paint9_linear_327_35" x1="0" y1="128" x2="2.71808e-06" y2="0" gradientUnits="userSpaceOnUse">
<stop stop-color="#FB0087"/>
<stop offset="1" stop-color="#FF5791"/>
</linearGradient>
</defs>
</svg>
