<svg width="212" height="56" viewBox="0 0 212 56" fill="none" xmlns="http://www.w3.org/2000/svg">
<path fill-rule="evenodd" clip-rule="evenodd" d="M3.35401 9.71346C7.52094 5.98862 13.9476 6.31476 17.7083 10.4419L30.7356 24.7384L34.4667 5.8382C35.5438 0.382041 40.8827 -3.17622 46.3914 -2.10941C51.9002 -1.04259 55.4927 4.24533 54.4156 9.70149L46.784 48.3602C46.0453 52.1022 43.2355 55.1096 39.5259 56.1287C35.8163 57.1477 31.8439 56.0035 29.2646 53.173L2.61854 23.9307C-1.1422 19.8036 -0.812922 13.4383 3.35401 9.71346Z" fill="#F680A4"/>
<path fill-rule="evenodd" clip-rule="evenodd" d="M105.585 1.91973C109.42 -2.14009 115.851 -2.35224 119.95 1.44587L129.784 10.5575L130.147 10.4206L131.387 -2.85993C131.904 -8.39578 136.854 -12.4685 142.443 -11.9566C148.032 -11.4447 152.144 -6.54196 151.628 -1.0061L150.262 13.6167L161.09 23.6493C165.189 27.4474 165.403 33.8175 161.568 37.8773C157.733 41.9371 151.302 42.1493 147.203 38.3512L137.369 29.2396L137.006 29.3765L135.766 42.657C135.249 48.1928 130.299 52.2656 124.71 51.7536C119.12 51.2417 115.009 46.339 115.525 40.8032L116.891 26.1804L106.063 16.1478C101.964 12.3497 101.75 5.97955 105.585 1.91973Z" fill="#67E5DB"/>
<path fill-rule="evenodd" clip-rule="evenodd" d="M169.691 3.91662C175.025 2.1831 180.767 5.05995 182.517 10.3423L186.232 21.5551L195.925 14.6921C200.492 11.459 206.84 12.5044 210.104 17.0271C213.368 21.5498 212.313 27.8371 207.746 31.0702L189.513 43.973L185.934 54.7963C184.187 60.0796 178.446 62.9597 173.112 61.2292C167.778 59.4987 164.87 53.8129 166.617 48.5296L170.197 37.7063C170.197 37.7063 165.529 23.6366 163.204 16.6199C161.454 11.3376 164.358 5.65014 169.691 3.91662Z" fill="#CF84F0"/>
<path fill-rule="evenodd" clip-rule="evenodd" d="M78.2232 31.6665L73.0394 38.7259L76.6564 46.686L85.5483 47.5959L90.732 40.5365L87.1151 32.5764L78.2232 31.6665ZM63.5056 17.4809C66.7019 13.128 71.996 10.7894 77.4015 11.3425L92.1149 12.8482C97.5204 13.4014 102.22 16.7627 104.45 21.6709L110.478 34.9377C112.724 39.8792 112.123 45.6334 108.905 50.0158L100.266 61.7815C97.0696 66.1344 91.7755 68.473 86.37 67.9199L71.6566 66.4142C66.2511 65.861 61.5516 62.4997 59.3213 57.5915L53.2931 44.3247C51.0477 39.3832 51.648 33.629 54.866 29.2466L63.5056 17.4809Z" fill="#FFD540"/>
</svg>
