<svg width="268" height="72" viewBox="0 0 268 72" fill="none" xmlns="http://www.w3.org/2000/svg">
<path d="M137.177 0C135.824 0.665681 134.567 1.58236 133.475 2.74766C128.628 7.92393 128.898 16.0458 134.08 20.8884L147.767 33.68L146.042 52.324C145.388 59.3822 150.586 65.6332 157.652 66.2859C164.718 66.9386 170.975 61.7459 171.628 54.6877L173.196 37.755L173.656 37.5804L186.087 49.1978C191.268 54.0404 199.399 53.7699 204.246 48.5936C209.094 43.4173 208.823 35.2954 203.642 30.4528L189.954 17.6613L191.589 0H165.783L164.526 13.5862L164.066 13.7608L151.635 2.14348C150.688 1.25874 149.643 0.544664 148.538 0L137.177 0Z" fill="#67E5DB"/>
<path d="M234.287 72C234.584 71.4177 234.839 70.8053 235.049 70.1653L239.574 56.3656L262.623 39.9146C268.395 35.7923 269.73 27.776 265.603 22.0096C261.476 16.2431 253.452 14.9102 247.679 19.0324L235.426 27.7827L230.729 13.4864C228.517 6.75144 221.258 3.08345 214.516 5.29369C207.774 7.50393 204.102 14.7554 206.314 21.4904C209.253 30.4366 215.154 48.3755 215.154 48.3755L210.629 62.1752C209.521 65.5549 209.894 69.0637 211.393 72H234.287Z" fill="#CF84F0"/>
<path fill-rule="evenodd" clip-rule="evenodd" d="M131.9 72L137.673 64.0701C141.741 58.4826 142.5 51.1459 139.661 44.8456L132.041 27.9304C129.221 21.6724 123.28 17.3868 116.447 16.6815L97.8471 14.7617C91.0138 14.0565 84.3213 17.0382 80.2806 22.5881L69.3589 37.5895C65.2909 43.177 64.532 50.5136 67.3705 56.814L74.2121 72H131.9ZM92.3329 49.6755L98.8859 40.6747L110.127 41.8349L114.699 51.984L108.146 60.9848L96.9053 59.8246L92.3329 49.6755Z" fill="#FFD540"/>
<path d="M49.4319 72C49.6105 71.9586 49.7889 71.9133 49.9667 71.864C54.6561 70.5647 58.2082 66.7302 59.1421 61.9592L68.7896 12.6694C69.7592 7.71545 67.7353 2.87029 63.9747 0H48.3904C45.9754 1.83795 44.1995 4.53312 43.5711 7.74371L38.8544 31.8414L22.386 13.6134C17.6319 8.35132 9.50761 7.93549 4.23997 12.6847C1.42984 15.2182 0.000372417 18.7099 0 22.2152V22.218C0.000325588 25.2826 1.09295 28.3575 3.31023 30.8117L36.9949 68.0955C38.7904 70.0828 41.1199 71.4181 43.6339 72H49.4319Z" fill="#F680A4"/>
</svg>
