<svg width="268" height="102" viewBox="0 0 268 102" fill="none" xmlns="http://www.w3.org/2000/svg">
<path fill-rule="evenodd" clip-rule="evenodd" d="M4.23997 27.6847C9.50761 22.9355 17.6319 23.3513 22.386 28.6134L38.8544 46.8414L43.5711 22.7437C44.9327 15.7871 51.6818 11.2503 58.6457 12.6105C65.6096 13.9707 70.1512 20.7128 68.7896 27.6694L59.1421 76.9592C58.2082 81.7302 54.6561 85.5647 49.9667 86.864C45.2773 88.1633 40.2555 86.7044 36.9949 83.0955L3.31023 45.8117C-1.44392 40.5496 -1.02766 32.4338 4.23997 27.6847Z" fill="#F680A4"/>
<path fill-rule="evenodd" clip-rule="evenodd" d="M133.475 17.7477C138.323 12.5714 146.453 12.3009 151.635 17.1435L164.066 28.7608L164.526 28.5862L166.093 11.6536C166.747 4.59538 173.004 -0.597323 180.07 0.0553732C187.135 0.708071 192.333 6.959 191.68 14.0172L189.954 32.6613L203.642 45.4528C208.823 50.2954 209.094 58.4173 204.246 63.5936C199.399 68.7699 191.268 69.0404 186.087 64.1978L173.656 52.5804L173.196 52.755L171.628 69.6877C170.975 76.7459 164.718 81.9386 157.652 81.2859C150.586 80.6332 145.388 74.3822 146.042 67.324L147.767 48.68L134.08 35.8884C128.898 31.0458 128.628 22.9239 133.475 17.7477Z" fill="#67E5DB"/>
<path fill-rule="evenodd" clip-rule="evenodd" d="M214.516 20.2937C221.258 18.0834 228.517 21.7514 230.729 28.4864L235.426 42.7827L247.679 34.0324C253.452 29.9102 261.476 31.2431 265.603 37.0096C269.73 42.776 268.395 50.7923 262.623 54.9146L239.574 71.3656L235.049 85.1653C232.84 91.9015 225.583 95.5736 218.84 93.3672C212.097 91.1608 208.421 83.9114 210.629 77.1752L215.154 63.3755C215.154 63.3755 209.253 45.4366 206.314 36.4904C204.102 29.7554 207.774 22.5039 214.516 20.2937Z" fill="#CF84F0"/>
<path fill-rule="evenodd" clip-rule="evenodd" d="M98.8859 55.6747L92.3329 64.6755L96.9053 74.8246L108.146 75.9848L114.699 66.984L110.127 56.8349L98.8859 55.6747ZM80.2806 37.5881C84.3213 32.0382 91.0138 29.0565 97.8471 29.7617L116.447 31.6815C123.28 32.3868 129.221 36.6724 132.041 42.9304L139.661 59.8456C142.5 66.1459 141.741 73.4826 137.673 79.0701L126.751 94.0715C122.711 99.6214 116.018 102.603 109.185 101.898L90.5847 99.9781C83.7514 99.2728 77.8105 94.9871 74.9911 88.7292L67.3705 71.814C64.532 65.5136 65.2909 58.177 69.3589 52.5894L80.2806 37.5881Z" fill="#FFD540"/>
</svg>
