<svg width="133" height="50" viewBox="0 0 133 50" fill="none" xmlns="http://www.w3.org/2000/svg">
<path d="M10 35.1446V44.9085C10 46.0131 10.8954 46.9085 12 46.9085C13.1046 46.9085 14 46.0131 14 44.9085V35.9085H12C11.2316 35.9085 10.5308 35.6197 10 35.1446Z" fill="#FFCA41"/>
<path fill-rule="evenodd" clip-rule="evenodd" d="M12 30.9085C10.8954 30.9085 10 31.804 10 32.9085C10 34.0131 10.8954 34.9085 12 34.9085H18.5C19.8807 34.9085 21 36.0278 21 37.4085C21 38.5623 20.2184 39.5336 19.1558 39.8216L22.1332 42.7991C23.8628 41.6311 25 39.6526 25 37.4085C25 33.8187 22.0899 30.9085 18.5 30.9085H12ZM13 32.9085C13 33.4608 12.5523 33.9085 12 33.9085C11.4477 33.9085 11 33.4608 11 32.9085C11 32.3562 11.4477 31.9085 12 31.9085C12.5523 31.9085 13 32.3562 13 32.9085Z" fill="#FFDB5C"/>
<path fill-rule="evenodd" clip-rule="evenodd" d="M18.4142 40.4943C17.6332 39.7133 16.3668 39.7133 15.5858 40.4943C14.8047 41.2754 14.8047 42.5417 15.5858 43.3227L21.5858 49.3227C22.3668 50.1038 23.6332 50.1038 24.4142 49.3227C25.1953 48.5417 25.1953 47.2754 24.4142 46.4943L18.4142 40.4943ZM17 42.9085C17.5523 42.9085 18 42.4608 18 41.9085C18 41.3562 17.5523 40.9085 17 40.9085C16.4477 40.9085 16 41.3562 16 41.9085C16 42.4608 16.4477 42.9085 17 42.9085Z" fill="#FFCA41"/>
<path d="M26 32.9085C26 31.804 26.8954 30.9085 28 30.9085H37C38.1046 30.9085 39 31.804 39 32.9085C39 34.0131 38.1046 34.9085 37 34.9085H30V35.9085H28C27.2316 35.9085 26.5308 36.1974 26 36.6724V32.9085Z" fill="#FFCA41"/>
<path d="M26 41.1446V44.9085C26 46.0131 26.8954 46.9085 28 46.9085H37C38.1046 46.9085 39 46.0131 39 44.9085C39 43.804 38.1046 42.9085 37 42.9085H30V41.9085H28C27.2316 41.9085 26.5308 41.6197 26 41.1446Z" fill="#FFCA41"/>
<path fill-rule="evenodd" clip-rule="evenodd" d="M28 36.9085C26.8954 36.9085 26 37.804 26 38.9085C26 40.0131 26.8954 40.9085 28 40.9085H35C36.1046 40.9085 37 40.0131 37 38.9085C37 37.804 36.1046 36.9085 35 36.9085H28ZM28 39.9085C28.5523 39.9085 29 39.4608 29 38.9085C29 38.3562 28.5523 37.9085 28 37.9085C27.4477 37.9085 27 38.3562 27 38.9085C27 39.4608 27.4477 39.9085 28 39.9085Z" fill="#FFDB5C"/>
<path d="M42.9001 40.8002C42.3528 41.5288 41.4814 42 40.5 42C39.9119 42 39.3632 41.8308 38.9002 41.5383C39.1331 42.2586 39.4653 42.9472 39.8904 43.5835C40.7969 44.9402 42.0854 45.9976 43.5929 46.622C45.1004 47.2464 46.7592 47.4098 48.3595 47.0915C49.9598 46.7732 51.4299 45.9874 52.5836 44.8336C53.3647 44.0526 53.3647 42.7863 52.5836 42.0052C51.8026 41.2242 50.5363 41.2242 49.7552 42.0052C49.1608 42.5996 48.4036 43.0044 47.5791 43.1683C46.7547 43.3323 45.9002 43.2482 45.1236 42.9265C44.347 42.6048 43.6833 42.0601 43.2163 41.3612C43.0963 41.1817 42.9908 40.9941 42.9001 40.8002Z" fill="#FFCA41"/>
<path fill-rule="evenodd" clip-rule="evenodd" d="M45.1236 35.0735C45.9002 34.7518 46.7547 34.6677 47.5791 34.8317C48.4036 34.9957 49.1608 35.4004 49.7552 35.9948C50.5363 36.7759 51.8026 36.7759 52.5836 35.9948C53.3647 35.2138 53.3647 33.9474 52.5836 33.1664C51.4299 32.0126 49.9599 31.2269 48.3595 30.9085C46.7592 30.5902 45.1004 30.7536 43.5929 31.378C42.0854 32.0024 40.7969 33.0598 39.8904 34.4165C38.9839 35.7733 38.5 37.3683 38.5 39C38.5 40.1046 39.3954 41 40.5 41C41.6046 41 42.5 40.1046 42.5 39C42.5 38.1594 42.7493 37.3377 43.2163 36.6388C43.6833 35.9399 44.347 35.3952 45.1236 35.0735ZM40.5 40C41.0523 40 41.5 39.5523 41.5 39C41.5 38.4477 41.0523 38 40.5 38C39.9477 38 39.5 38.4477 39.5 39C39.5 39.5523 39.9477 40 40.5 40Z" fill="#FFDB5C"/>
<path d="M59 35.1446V44.9085C59 46.0131 59.8954 46.9085 61 46.9085C62.1046 46.9085 63 46.0131 63 44.9085V35.9085H61C60.2316 35.9085 59.5308 35.6197 59 35.1446Z" fill="#FFCA41"/>
<path fill-rule="evenodd" clip-rule="evenodd" d="M61 30.9085C59.8954 30.9085 59 31.804 59 32.9085C59 34.0131 59.8954 34.9085 61 34.9085H67.5C68.8807 34.9085 70 36.0278 70 37.4085C70 38.5623 69.2184 39.5336 68.1558 39.8216L71.1332 42.7991C72.8628 41.6311 74 39.6526 74 37.4085C74 33.8187 71.0899 30.9085 67.5 30.9085H61ZM62 32.9085C62 33.4608 61.5523 33.9085 61 33.9085C60.4477 33.9085 60 33.4608 60 32.9085C60 32.3562 60.4477 31.9085 61 31.9085C61.5523 31.9085 62 32.3562 62 32.9085Z" fill="#FFDB5C"/>
<path fill-rule="evenodd" clip-rule="evenodd" d="M67.4142 40.4943C66.6332 39.7133 65.3668 39.7133 64.5858 40.4943C63.8047 41.2754 63.8047 42.5417 64.5858 43.3227L70.5858 49.3227C71.3668 50.1038 72.6332 50.1038 73.4142 49.3227C74.1953 48.5417 74.1953 47.2754 73.4142 46.4943L67.4142 40.4943ZM66 42.9085C66.5523 42.9085 67 42.4608 67 41.9085C67 41.3562 66.5523 40.9085 66 40.9085C65.4477 40.9085 65 41.3562 65 41.9085C65 42.4608 65.4477 42.9085 66 42.9085Z" fill="#FFCA41"/>
<path d="M90.8455 42.7558C90.7249 42.2216 90.4566 41.714 90.0407 41.2981C89.3468 40.6041 88.3974 40.3212 87.4952 40.4494C87.6622 39.9891 87.75 39.499 87.75 39C87.75 37.8728 87.3022 36.7918 86.5052 35.9948C85.7082 35.1978 84.6272 34.75 83.5 34.75C83.0009 34.75 82.5109 34.8378 82.0506 35.0048C82.1788 34.1026 81.8959 33.1532 81.2019 32.4593C80.786 32.0434 80.2784 31.7751 79.7442 31.6545C80.8963 31.0654 82.1819 30.75 83.5 30.75C85.688 30.75 87.7865 31.6192 89.3336 33.1664C90.8808 34.7135 91.75 36.8119 91.75 39C91.75 40.3181 91.4346 41.6037 90.8455 42.7558Z" fill="#FFCA41"/>
<path fill-rule="evenodd" clip-rule="evenodd" d="M80.4948 42.0052C80.8894 42.3998 81.358 42.7129 81.8736 42.9265C82.3892 43.1401 82.9419 43.25 83.5 43.25C84.0581 43.25 84.6108 43.1401 85.1264 42.9265C85.642 42.7129 86.1106 42.3998 86.5052 42.0052C87.2863 41.2241 88.5526 41.2241 89.3336 42.0052C90.1147 42.7862 90.1147 44.0526 89.3336 44.8336C88.5675 45.5997 87.6581 46.2074 86.6571 46.622C85.6562 47.0366 84.5834 47.25 83.5 47.25C82.4166 47.25 81.3438 47.0366 80.3429 46.622C79.3419 46.2074 78.4324 45.5997 77.6664 44.8336C76.9003 44.0675 76.2926 43.1581 75.878 42.1571C75.4634 41.1562 75.25 40.0834 75.25 39C75.25 37.9166 75.4634 36.8438 75.878 35.8429C76.2926 34.8419 76.9003 33.9324 77.6664 33.1664C78.4474 32.3853 79.7137 32.3853 80.4948 33.1664C81.2758 33.9474 81.2758 35.2137 80.4948 35.9948C80.1001 36.3894 79.7871 36.858 79.5735 37.3736C79.3599 37.8892 79.25 38.4419 79.25 39C79.25 39.5581 79.3599 40.1108 79.5735 40.6264C79.7871 41.142 80.1001 41.6105 80.4948 42.0052ZM87.2123 42.7123C87.6028 42.3218 88.236 42.3218 88.6265 42.7123C89.0171 43.1028 89.0171 43.736 88.6265 44.1265C88.236 44.517 87.6028 44.517 87.2123 44.1265C86.8218 43.736 86.8218 43.1028 87.2123 42.7123ZM79.7877 33.8735C79.3972 33.4829 78.764 33.4829 78.3735 33.8735C77.983 34.264 77.983 34.8972 78.3735 35.2877C78.764 35.6782 79.3972 35.6782 79.7877 35.2877C80.1782 34.8972 80.1782 34.264 79.7877 33.8735Z" fill="#FFDB5C"/>
<path d="M93.4045 35.2442C93.5251 35.7784 93.7934 36.286 94.2093 36.7019C94.9032 37.3959 95.8526 37.6788 96.7548 37.5506C96.5878 38.0109 96.5 38.5009 96.5 39C96.5 40.1272 96.9478 41.2082 97.7448 42.0052C98.5418 42.8022 99.6228 43.25 100.75 43.25C101.249 43.25 101.739 43.1622 102.199 42.9952C102.071 43.8974 102.354 44.8468 103.048 45.5407C103.464 45.9566 103.972 46.2249 104.506 46.3455C103.354 46.9346 102.068 47.25 100.75 47.25C98.562 47.25 96.4635 46.3808 94.9164 44.8336C93.3692 43.2864 92.5 41.188 92.5 39C92.5 37.6819 92.8154 36.3963 93.4045 35.2442Z" fill="#FFCA41"/>
<path fill-rule="evenodd" clip-rule="evenodd" d="M103.755 35.9948C103.361 35.6001 102.892 35.2871 102.376 35.0735C101.861 34.8599 101.308 34.75 100.75 34.75C100.192 34.75 99.6392 34.8599 99.1236 35.0735C98.608 35.2871 98.1394 35.6001 97.7448 35.9948C96.9637 36.7758 95.6974 36.7758 94.9164 35.9948C94.1353 35.2137 94.1353 33.9474 94.9164 33.1664C95.6825 32.4003 96.5919 31.7926 97.5929 31.378C98.5938 30.9634 99.6666 30.75 100.75 30.75C101.833 30.75 102.906 30.9634 103.907 31.378C104.908 31.7926 105.818 32.4003 106.584 33.1664C107.35 33.9324 107.957 34.8419 108.372 35.8428C108.787 36.8438 109 37.9166 109 39C109 40.0834 108.787 41.1562 108.372 42.1571C107.957 43.1581 107.35 44.0675 106.584 44.8336C105.803 45.6147 104.536 45.6147 103.755 44.8336C102.974 44.0526 102.974 42.7862 103.755 42.0052C104.15 41.6105 104.463 41.142 104.676 40.6264C104.89 40.1108 105 39.5581 105 39C105 38.4419 104.89 37.8892 104.676 37.3736C104.463 36.8579 104.15 36.3894 103.755 35.9948ZM97.0377 35.2877C96.6472 35.6782 96.014 35.6782 95.6235 35.2877C95.233 34.8971 95.2329 34.264 95.6235 33.8735C96.014 33.4829 96.6472 33.4829 97.0377 33.8735C97.4282 34.264 97.4282 34.8971 97.0377 35.2877ZM104.462 44.1265C104.853 44.517 105.486 44.517 105.877 44.1265C106.267 43.736 106.267 43.1028 105.877 42.7123C105.486 42.3218 104.853 42.3218 104.462 42.7123C104.072 43.1028 104.072 43.736 104.462 44.1265Z" fill="#FFDB5C"/>
<path fill-rule="evenodd" clip-rule="evenodd" d="M121 33.1716L118 36.1716L113.414 31.5858C112.633 30.8047 111.367 30.8047 110.586 31.5858C109.805 32.3668 109.805 33.6332 110.586 34.4142L116.586 40.4142C117.367 41.1953 118.633 41.1953 119.414 40.4142L121 38.8284V33.1716ZM113 33C113 33.5523 112.552 34 112 34C111.448 34 111 33.5523 111 33C111 32.4477 111.448 32 112 32C112.552 32 113 32.4477 113 33Z" fill="#FFDB5C"/>
<path d="M110 35.2426V48C110 49.1046 110.895 50 112 50C113.105 50 114 49.1046 114 48V39.2426L110 35.2426Z" fill="#FFCA41"/>
<path fill-rule="evenodd" clip-rule="evenodd" d="M126 33C126 31.8954 125.105 31 124 31C122.895 31 122 31.8954 122 33V45C122 46.1046 122.895 47 124 47C125.105 47 126 46.1046 126 45V33ZM124 34C124.552 34 125 33.5523 125 33C125 32.4477 124.552 32 124 32C123.448 32 123 32.4477 123 33C123 33.5523 123.448 34 124 34Z" fill="#FFCA41"/>
<path d="M111.96 6.75419C113.108 4.44912 112.177 1.64619 109.881 0.493659C107.584 -0.658873 104.792 0.275439 103.643 2.5805L101.609 6.66353C100.461 8.9686 101.392 11.7715 103.689 12.9241C105.985 14.0766 108.778 13.1423 109.926 10.8372L111.96 6.75419Z" fill="white"/>
<path d="M61.1275 4.94794C59.9981 2.6335 57.2132 1.67625 54.9074 2.80985C52.6015 3.94345 51.6478 6.73863 52.7772 9.05306L55.46 14.5508C55.6496 14.9393 55.6496 15.3939 55.46 15.7823L52.7772 21.2801C51.6478 23.5945 52.6015 26.3897 54.9074 27.5233C57.2132 28.6569 59.9981 27.6996 61.1275 25.3852L63.7978 19.9131C63.8218 19.864 63.8715 19.8329 63.926 19.8329C63.9804 19.8329 64.0302 19.864 64.0541 19.9131L66.7244 25.3852C67.8538 27.6996 70.6387 28.6569 72.9446 27.5233C75.2505 26.3897 76.2042 23.5945 75.0748 21.2801L72.392 15.7823C72.2024 15.3939 72.2024 14.9393 72.392 14.5508L75.0748 9.05306C76.2042 6.73863 75.2505 3.94345 72.9446 2.80985C70.6387 1.67625 67.8538 2.6335 66.7244 4.94794L64.0541 10.42C64.0302 10.4691 63.9804 10.5002 63.926 10.5002C63.8715 10.5002 63.8218 10.4691 63.7978 10.42L61.1275 4.94794Z" fill="white"/>
<path d="M8.80838 4.91366C7.6601 2.6086 4.86752 1.67429 2.57097 2.82682C0.274421 3.97935 -0.656439 6.78229 0.491836 9.08735L8.62774 25.4195C9.41526 27.0004 11.0251 27.999 12.786 27.999C14.547 27.999 16.1568 27.0004 16.9443 25.4195L25.0802 9.08735C26.2285 6.78229 25.2976 3.97935 23.001 2.82682C20.7045 1.67429 17.9119 2.6086 16.7636 4.91366L12.9939 12.481C12.9083 12.653 12.6638 12.653 12.5781 12.481L8.80838 4.91366Z" fill="white"/>
<path d="M78.6074 3.24C80.6766 1.71414 83.5864 2.16082 85.1067 4.23769L87.959 8.13444C88.1448 8.38825 88.5226 8.38825 88.7083 8.13444L91.5607 4.23769C93.0809 2.16082 95.9907 1.71414 98.0599 3.24C100.129 4.76587 100.574 7.68646 99.0539 9.76332L93.2537 17.6831C93.0777 17.9235 92.9828 18.214 92.9828 18.5123V23.3326C92.9828 25.9098 90.9013 27.999 88.3337 27.999C85.7661 27.999 83.6846 25.9098 83.6846 23.3326V18.5123C83.6846 18.214 83.5897 17.9235 83.4136 17.6831L77.6134 9.76332C76.0932 7.68646 76.5382 4.76587 78.6074 3.24Z" fill="white"/>
<path fill-rule="evenodd" clip-rule="evenodd" d="M29.0867 5.82027C30.3344 3.66232 32.6323 2.33418 35.1181 2.33418L41.8844 2.33418C44.3702 2.33418 46.6681 3.66232 47.9159 5.82027L51.2885 11.6532C52.5448 13.8257 52.5448 16.5074 51.2885 18.6799L47.9159 24.5128C46.6681 26.6708 44.3702 27.9989 41.8844 27.9989H35.1181C32.6323 27.9989 30.3344 26.6708 29.0867 24.5128L25.714 18.6799C24.4578 16.5074 24.4578 13.8257 25.714 11.6532L29.0867 5.82027ZM37.2599 11.6668C36.7627 11.6668 36.3031 11.9325 36.0536 12.364L34.8394 14.4639C34.5882 14.8984 34.5882 15.4347 34.8394 15.8692L36.0536 17.9691C36.3031 18.4007 36.7627 18.6663 37.2599 18.6663H39.7427C40.2398 18.6663 40.6994 18.4007 40.949 17.9691L42.1631 15.8692C42.4144 15.4347 42.4144 14.8984 42.1631 14.4639L40.949 12.364C40.6994 11.9325 40.2398 11.6668 39.7427 11.6668H37.2599Z" fill="white"/>
<path d="M121.458 2.33418C116.644 2.33418 112.741 6.2514 112.741 11.0835C112.741 14.05 114.212 16.6716 116.462 18.2538C116.651 18.3869 116.573 18.7323 116.348 18.784C114.282 19.259 112.741 21.1152 112.741 23.3326C112.741 25.9098 114.823 27.9989 117.39 27.9989H123.783C128.597 27.9989 132.5 24.0817 132.5 19.2496C132.5 16.2832 131.029 13.6615 128.78 12.0793C128.59 11.9462 128.668 11.6009 128.893 11.5491C130.959 11.0741 132.5 9.21795 132.5 7.0005C132.5 4.42336 130.419 2.33418 127.851 2.33418H121.458Z" fill="white"/>
</svg>
