<svg width="840" height="320" viewBox="0 0 840 320" fill="none" xmlns="http://www.w3.org/2000/svg">
<path fill-rule="evenodd" clip-rule="evenodd" d="M13.2895 86.8538C29.8 71.9545 55.264 73.259 70.1651 89.7676L121.783 146.954L136.566 71.3528C140.834 49.5282 161.988 35.2951 183.815 39.5624C205.642 43.8296 219.877 64.9813 215.609 86.8059L185.371 241.441C182.444 256.409 171.31 268.438 156.612 272.515C141.914 276.591 126.174 272.014 115.954 260.692L10.3754 143.723C-4.52571 127.214 -3.22101 101.753 13.2895 86.8538Z" fill="#F680A4"/>
<path fill-rule="evenodd" clip-rule="evenodd" d="M418.355 55.6789C433.55 39.4397 459.033 38.591 475.274 53.7835L514.237 90.23L515.678 89.6822L520.591 36.5603C522.639 14.4169 542.252 -1.87396 564.398 0.17372C586.544 2.2214 602.836 21.8322 600.788 43.9756L595.379 102.467L638.279 142.597C654.52 157.79 655.369 183.27 640.175 199.509C624.981 215.749 599.497 216.597 583.256 201.405L544.294 164.958L542.853 165.506L537.94 218.628C535.892 240.771 516.279 257.062 494.133 255.015C471.987 252.967 455.694 233.356 457.742 211.213L463.152 152.721L420.251 112.591C404.01 97.3987 403.161 71.9182 418.355 55.6789Z" fill="#67E5DB"/>
<path fill-rule="evenodd" clip-rule="evenodd" d="M672.362 63.6665C693.494 56.7324 716.246 68.2398 723.181 89.369L737.902 134.22L776.308 106.768C794.401 93.836 819.553 98.0177 832.487 116.108C845.421 134.199 841.239 159.349 823.146 172.281L750.902 223.892L736.72 267.185C729.797 288.318 707.052 299.839 685.916 292.917C664.78 285.995 653.259 263.251 660.182 242.118L674.364 198.825C674.364 198.825 655.869 142.546 646.657 114.48C639.722 93.3503 651.231 70.6006 672.362 63.6665Z" fill="#CF84F0"/>
<path fill-rule="evenodd" clip-rule="evenodd" d="M309.941 174.666L289.402 202.904L303.733 234.744L338.965 238.384L359.504 210.146L345.173 178.306L309.941 174.666ZM251.626 117.923C264.29 100.512 285.267 91.1575 306.685 93.3702L364.984 99.3929C386.401 101.606 405.022 115.051 413.859 134.684L437.745 187.751C446.641 207.517 444.263 230.534 431.512 248.063L397.28 295.126C384.615 312.538 363.639 321.892 342.221 319.679L283.922 313.657C262.504 311.444 243.884 297.999 235.047 278.366L211.161 225.299C202.265 205.533 204.643 182.516 217.393 164.987L251.626 117.923Z" fill="#FFD540"/>
</svg>
