<svg width="538" height="204" viewBox="0 0 538 204" fill="none" xmlns="http://www.w3.org/2000/svg">
<path d="M42 144.944V184C42 188.418 45.5817 192 50 192C54.4183 192 58 188.418 58 184V148H50C46.9266 148 44.123 146.845 42 144.944Z" fill="#FFCA41"/>
<path fill-rule="evenodd" clip-rule="evenodd" d="M50 128C45.5817 128 42 131.582 42 136C42 140.418 45.5817 144 50 144H76C81.5229 144 86 148.477 86 154C86 158.615 82.8735 162.5 78.623 163.652L90.5329 175.562C97.4511 170.89 102 162.976 102 154C102 139.641 90.3594 128 76 128H50ZM54 136C54 138.209 52.2091 140 50 140C47.7909 140 46 138.209 46 136C46 133.791 47.7909 132 50 132C52.2091 132 54 133.791 54 136Z" fill="#FFCA41"/>
<path fill-rule="evenodd" clip-rule="evenodd" d="M75.6569 166.343C72.5327 163.219 67.4673 163.219 64.3431 166.343C61.219 169.467 61.219 174.533 64.3431 177.657L88.3431 201.657C91.4673 204.781 96.5327 204.781 99.6569 201.657C102.781 198.533 102.781 193.467 99.6569 190.343L75.6569 166.343ZM70 176C72.2091 176 74 174.209 74 172C74 169.791 72.2091 168 70 168C67.7909 168 66 169.791 66 172C66 174.209 67.7909 176 70 176Z" fill="#FFCA41"/>
<path d="M107 136C107 131.582 110.582 128 115 128H151C155.418 128 159 131.582 159 136C159 140.418 155.418 144 151 144H123V148H115C111.927 148 109.123 149.155 107 151.056V136Z" fill="#FFCA41"/>
<path d="M107 168.944V184C107 188.418 110.582 192 115 192H151C155.418 192 159 188.418 159 184C159 179.582 155.418 176 151 176H123V172H115C111.927 172 109.123 170.845 107 168.944Z" fill="#FFCA41"/>
<path fill-rule="evenodd" clip-rule="evenodd" d="M115 152C110.582 152 107 155.582 107 160C107 164.418 110.582 168 115 168H143C147.418 168 151 164.418 151 160C151 155.582 147.418 152 143 152H115ZM115 164C117.209 164 119 162.209 119 160C119 157.791 117.209 156 115 156C112.791 156 111 157.791 111 160C111 162.209 112.791 164 115 164Z" fill="#FFCA41"/>
<path d="M175.6 167.201C173.411 170.115 169.926 172 166 172C163.647 172 161.453 171.323 159.601 170.153C160.532 173.034 161.861 175.789 163.562 178.334C167.188 183.761 172.341 187.99 178.371 190.488C184.401 192.986 191.037 193.639 197.438 192.366C203.839 191.093 209.719 187.95 214.335 183.335C217.459 180.21 217.459 175.145 214.335 172.021C211.21 168.897 206.145 168.897 203.021 172.021C200.643 174.398 197.614 176.017 194.317 176.673C191.019 177.329 187.601 176.993 184.494 175.706C181.388 174.419 178.733 172.24 176.865 169.445C176.385 168.727 175.963 167.976 175.6 167.201Z" fill="#FFCA41"/>
<path fill-rule="evenodd" clip-rule="evenodd" d="M184.494 144.294C187.601 143.007 191.019 142.671 194.317 143.327C197.614 143.983 200.643 145.602 203.021 147.979C206.145 151.103 211.21 151.103 214.335 147.979C217.459 144.855 217.459 139.79 214.335 136.666C209.719 132.05 203.839 128.907 197.438 127.634C191.037 126.361 184.401 127.014 178.371 129.512C172.342 132.01 167.188 136.239 163.562 141.666C159.935 147.093 158 153.473 158 160C158 164.418 161.582 168 166 168C170.418 168 174 164.418 174 160C174 156.638 174.997 153.351 176.865 150.555C178.733 147.76 181.388 145.581 184.494 144.294ZM166 164C168.209 164 170 162.209 170 160C170 157.791 168.209 156 166 156C163.791 156 162 157.791 162 160C162 162.209 163.791 164 166 164Z" fill="#FFCA41"/>
<path d="M241 144.944V184C241 188.418 244.582 192 249 192C253.418 192 257 188.418 257 184V148H249C245.927 148 243.123 146.845 241 144.944Z" fill="#FFCA41"/>
<path fill-rule="evenodd" clip-rule="evenodd" d="M249 128C244.582 128 241 131.582 241 136C241 140.418 244.582 144 249 144H275C280.523 144 285 148.477 285 154C285 158.615 281.874 162.5 277.623 163.652L289.533 175.562C296.451 170.89 301 162.976 301 154C301 139.641 289.359 128 275 128H249ZM253 136C253 138.209 251.209 140 249 140C246.791 140 245 138.209 245 136C245 133.791 246.791 132 249 132C251.209 132 253 133.791 253 136Z" fill="#FFCA41"/>
<path fill-rule="evenodd" clip-rule="evenodd" d="M274.657 166.343C271.533 163.219 266.467 163.219 263.343 166.343C260.219 169.467 260.219 174.533 263.343 177.657L287.343 201.657C290.467 204.781 295.533 204.781 298.657 201.657C301.781 198.533 301.781 193.467 298.657 190.343L274.657 166.343ZM269 176C271.209 176 273 174.209 273 172C273 169.791 271.209 168 269 168C266.791 168 265 169.791 265 172C265 174.209 266.791 176 269 176Z" fill="#FFCA41"/>
<path d="M367.382 175.023C366.9 172.886 365.827 170.856 364.163 169.192C361.387 166.416 357.59 165.285 353.981 165.797C354.649 163.956 355 161.996 355 160C355 155.491 353.209 151.167 350.021 147.979C346.833 144.791 342.509 143 338 143C336.004 143 334.044 143.351 332.202 144.019C332.715 140.41 331.583 136.613 328.808 133.837C327.144 132.173 325.114 131.1 322.977 130.618C327.585 128.262 332.728 127 338 127C346.752 127 355.146 130.477 361.335 136.665C367.523 142.854 371 151.248 371 160C371 165.272 369.738 170.415 367.382 175.023Z" fill="#FFCA41"/>
<path fill-rule="evenodd" clip-rule="evenodd" d="M325.979 172.021C327.558 173.599 329.432 174.852 331.494 175.706C333.557 176.56 335.768 177 338 177C340.232 177 342.443 176.56 344.506 175.706C346.568 174.852 348.442 173.599 350.021 172.021C353.145 168.897 358.21 168.897 361.335 172.021C364.459 175.145 364.459 180.21 361.335 183.334C358.27 186.399 354.632 188.83 350.629 190.488C346.625 192.146 342.334 193 338 193C333.666 193 329.375 192.146 325.371 190.488C321.368 188.83 317.73 186.399 314.665 183.334C311.601 180.27 309.17 176.632 307.512 172.629C305.854 168.625 305 164.334 305 160C305 155.666 305.854 151.375 307.512 147.371C309.17 143.368 311.601 139.73 314.665 136.665C317.79 133.541 322.855 133.541 325.979 136.665C329.103 139.79 329.103 144.855 325.979 147.979C324.401 149.558 323.148 151.432 322.294 153.494C321.44 155.557 321 157.767 321 160C321 162.232 321.44 164.443 322.294 166.506C323.148 168.568 324.401 170.442 325.979 172.021ZM352.849 174.849C354.411 173.287 356.944 173.287 358.506 174.849C360.068 176.411 360.068 178.944 358.506 180.506C356.944 182.068 354.411 182.068 352.849 180.506C351.287 178.944 351.287 176.411 352.849 174.849ZM323.151 139.494C321.589 137.932 319.056 137.932 317.494 139.494C315.932 141.056 315.932 143.589 317.494 145.151C319.056 146.713 321.589 146.713 323.151 145.151C324.713 143.589 324.713 141.056 323.151 139.494Z" fill="#FFCA41"/>
<path d="M377.618 144.977C378.1 147.114 379.173 149.144 380.837 150.808C383.613 153.583 387.41 154.715 391.019 154.202C390.351 156.044 390 158.004 390 160C390 164.509 391.791 168.833 394.979 172.021C398.167 175.209 402.491 177 407 177C408.996 177 410.956 176.649 412.798 175.981C412.285 179.59 413.417 183.387 416.192 186.163C417.856 187.826 419.886 188.899 422.023 189.382C417.415 191.738 412.272 193 407 193C398.248 193 389.854 189.523 383.665 183.334C377.477 177.146 374 168.752 374 160C374 154.728 375.262 149.585 377.618 144.977Z" fill="#FFCA41"/>
<path fill-rule="evenodd" clip-rule="evenodd" d="M419.021 147.979C417.442 146.401 415.568 145.148 413.506 144.294C411.443 143.44 409.232 143 407 143C404.768 143 402.557 143.44 400.494 144.294C398.432 145.148 396.558 146.401 394.979 147.979C391.855 151.103 386.79 151.103 383.665 147.979C380.541 144.855 380.541 139.79 383.665 136.665C386.73 133.601 390.368 131.17 394.371 129.512C398.375 127.854 402.666 127 407 127C411.334 127 415.625 127.854 419.629 129.512C423.632 131.17 427.27 133.601 430.335 136.665C433.399 139.73 435.83 143.368 437.488 147.371C439.146 151.375 440 155.666 440 160C440 164.334 439.146 168.625 437.488 172.628C435.83 176.632 433.399 180.27 430.335 183.334C427.21 186.459 422.145 186.459 419.021 183.334C415.897 180.21 415.897 175.145 419.021 172.021C420.599 170.442 421.852 168.568 422.706 166.506C423.56 164.443 424 162.232 424 160C424 157.767 423.56 155.557 422.706 153.494C421.852 151.432 420.599 149.558 419.021 147.979ZM392.151 145.151C390.589 146.713 388.056 146.713 386.494 145.151C384.932 143.589 384.932 141.056 386.494 139.494C388.056 137.932 390.589 137.932 392.151 139.494C393.713 141.056 393.713 143.589 392.151 145.151ZM421.849 180.506C423.411 182.068 425.944 182.068 427.506 180.506C429.068 178.944 429.068 176.411 427.506 174.849C425.944 173.287 423.411 173.287 421.849 174.849C420.287 176.411 420.287 178.944 421.849 180.506Z" fill="#FFCA41"/>
<path fill-rule="evenodd" clip-rule="evenodd" d="M488 136.686L476 148.686L457.657 130.343C454.533 127.219 449.467 127.219 446.343 130.343C443.219 133.467 443.219 138.533 446.343 141.657L470.343 165.657C473.467 168.781 478.533 168.781 481.657 165.657L488 159.314V136.686ZM456 136C456 138.209 454.209 140 452 140C449.791 140 448 138.209 448 136C448 133.791 449.791 132 452 132C454.209 132 456 133.791 456 136Z" fill="#FFCA41"/>
<path d="M444 144.971V196C444 200.418 447.582 204 452 204C456.418 204 460 200.418 460 196V160.971L444 144.971Z" fill="#FFCA41"/>
<path fill-rule="evenodd" clip-rule="evenodd" d="M508 136C508 131.582 504.418 128 500 128C495.582 128 492 131.582 492 136V184C492 188.418 495.582 192 500 192C504.418 192 508 188.418 508 184V136ZM500 140C502.209 140 504 138.209 504 136C504 133.791 502.209 132 500 132C497.791 132 496 133.791 496 136C496 138.209 497.791 140 500 140Z" fill="#FFCA41"/>
<path d="M451.84 31.0167C456.433 21.7965 452.71 10.5848 443.523 5.97464C434.337 1.36451 423.167 5.10176 418.574 14.322L410.438 30.6541C405.845 39.8744 409.568 51.0861 418.754 55.6962C427.941 60.3064 439.111 56.5691 443.704 47.3489L451.84 31.0167Z" fill="#FFCA41"/>
<path d="M248.51 23.7917C243.992 14.534 232.853 10.705 223.629 15.2394C214.406 19.7738 210.591 30.9545 215.109 40.2122L225.84 62.2031C226.598 63.757 226.598 65.5755 225.84 67.1294L215.109 89.1203C210.591 98.378 214.406 109.559 223.629 114.093C232.853 118.628 243.992 114.798 248.51 105.541L259.191 83.6525C259.287 83.4561 259.486 83.3315 259.704 83.3315C259.922 83.3315 260.121 83.4561 260.217 83.6525L270.898 105.541C275.415 114.798 286.555 118.628 295.778 114.093C305.002 109.559 308.817 98.378 304.299 89.1203L293.568 67.1294C292.81 65.5755 292.81 63.757 293.568 62.2031L304.299 40.2122C308.817 30.9545 305.002 19.7738 295.778 15.2394C286.555 10.705 275.415 14.534 270.898 23.7917L260.217 45.68C260.121 45.8765 259.922 46.001 259.704 46.001C259.486 46.001 259.287 45.8765 259.191 45.68L248.51 23.7917Z" fill="#FFCA41"/>
<path d="M39.2335 23.6547C34.6404 14.4344 23.4701 10.6972 14.2839 15.3073C5.09769 19.9174 1.37424 31.1291 5.96734 40.3494L38.511 105.678C41.661 112.001 48.1003 115.996 55.144 115.996C62.1878 115.996 68.627 112.001 71.7771 105.678L104.321 40.3494C108.914 31.1291 105.19 19.9174 96.0042 15.3073C86.818 10.6972 75.6477 14.4344 71.0546 23.6547L55.9757 53.9242C55.633 54.6121 54.655 54.6121 54.3124 53.9242L39.2335 23.6547Z" fill="#FFCA41"/>
<path d="M318.43 16.96C326.707 10.8566 338.346 12.6433 344.427 20.9507L355.836 36.5378C356.579 37.553 358.09 37.553 358.833 36.5378L370.243 20.9507C376.324 12.6433 387.963 10.8566 396.24 16.96C404.516 23.0635 406.297 34.7458 400.216 43.0533L377.015 74.7326C376.311 75.694 375.931 76.856 375.931 78.0492V97.3305C375.931 107.639 367.605 115.996 357.335 115.996C347.064 115.996 338.738 107.639 338.738 97.3305V78.0492C338.738 76.856 338.359 75.694 337.655 74.7326L314.454 43.0533C308.373 34.7458 310.153 23.0635 318.43 16.96Z" fill="#FFCA41"/>
<path fill-rule="evenodd" clip-rule="evenodd" d="M120.347 27.2811C125.338 18.6493 134.529 13.3367 144.473 13.3367L171.538 13.3367C181.481 13.3367 190.673 18.6493 195.664 27.2811L209.154 50.6127C214.179 59.303 214.179 70.0295 209.154 78.7198L195.664 102.051C190.672 110.683 181.481 115.996 171.538 115.996H144.473C134.529 115.996 125.338 110.683 120.347 102.051L106.856 78.7198C101.831 70.0295 101.831 59.303 106.856 50.6127L120.347 27.2811ZM153.04 50.6673C151.051 50.6673 149.212 51.7298 148.214 53.4562L143.358 61.8555C142.353 63.5936 142.353 65.7389 143.358 67.477L148.214 75.8763C149.212 77.6027 151.051 78.6652 153.04 78.6652H162.971C164.959 78.6652 166.798 77.6027 167.796 75.8763L172.652 67.477C173.657 65.7389 173.657 63.5936 172.652 61.8555L167.796 53.4562C166.798 51.7298 164.959 50.6673 162.971 50.6673H153.04Z" fill="#FFCA41"/>
<path d="M489.834 13.3367C470.577 13.3367 454.966 29.0056 454.966 48.3341C454.966 60.1999 460.849 70.6864 469.847 77.0152C470.604 77.5476 470.294 78.929 469.393 79.1361C461.13 81.0359 454.966 88.4607 454.966 97.3305C454.966 107.639 463.291 115.996 473.562 115.996H499.132C518.389 115.996 534 100.327 534 80.9984C534 69.1326 528.117 58.6461 519.118 52.3173C518.361 51.7849 518.672 50.4035 519.573 50.1963C527.836 48.2966 534 40.8718 534 32.002C534 21.6934 525.674 13.3367 515.404 13.3367H489.834Z" fill="#FFCA41"/>
<path d="M42 140.944V180C42 184.418 45.5817 188 50 188C54.4183 188 58 184.418 58 180V144H50C46.9266 144 44.123 142.845 42 140.944Z" fill="#710ECB"/>
<path fill-rule="evenodd" clip-rule="evenodd" d="M50 124C45.5817 124 42 127.582 42 132C42 136.418 45.5817 140 50 140H76C81.5229 140 86 144.477 86 150C86 154.615 82.8735 158.5 78.623 159.652L90.5329 171.562C97.4511 166.89 102 158.976 102 150C102 135.641 90.3594 124 76 124H50ZM54 132C54 134.209 52.2091 136 50 136C47.7909 136 46 134.209 46 132C46 129.791 47.7909 128 50 128C52.2091 128 54 129.791 54 132Z" fill="#9333EA"/>
<path fill-rule="evenodd" clip-rule="evenodd" d="M75.6569 162.343C72.5327 159.219 67.4673 159.219 64.3431 162.343C61.219 165.467 61.219 170.533 64.3431 173.657L88.3431 197.657C91.4673 200.781 96.5327 200.781 99.6569 197.657C102.781 194.533 102.781 189.467 99.6569 186.343L75.6569 162.343ZM70 172C72.2091 172 74 170.209 74 168C74 165.791 72.2091 164 70 164C67.7909 164 66 165.791 66 168C66 170.209 67.7909 172 70 172Z" fill="#710ECB"/>
<path d="M107 132C107 127.582 110.582 124 115 124H151C155.418 124 159 127.582 159 132C159 136.418 155.418 140 151 140H123V144H115C111.927 144 109.123 145.155 107 147.056V132Z" fill="#710ECB"/>
<path d="M107 164.944V180C107 184.418 110.582 188 115 188H151C155.418 188 159 184.418 159 180C159 175.582 155.418 172 151 172H123V168H115C111.927 168 109.123 166.845 107 164.944Z" fill="#710ECB"/>
<path fill-rule="evenodd" clip-rule="evenodd" d="M115 148C110.582 148 107 151.582 107 156C107 160.418 110.582 164 115 164H143C147.418 164 151 160.418 151 156C151 151.582 147.418 148 143 148H115ZM115 160C117.209 160 119 158.209 119 156C119 153.791 117.209 152 115 152C112.791 152 111 153.791 111 156C111 158.209 112.791 160 115 160Z" fill="#9333EA"/>
<path d="M175.6 163.201C173.411 166.115 169.926 168 166 168C163.647 168 161.453 167.323 159.601 166.153C160.532 169.034 161.861 171.789 163.562 174.334C167.188 179.761 172.341 183.99 178.371 186.488C184.401 188.986 191.037 189.639 197.438 188.366C203.839 187.093 209.719 183.95 214.335 179.335C217.459 176.21 217.459 171.145 214.335 168.021C211.21 164.897 206.145 164.897 203.021 168.021C200.643 170.398 197.614 172.017 194.317 172.673C191.019 173.329 187.601 172.993 184.494 171.706C181.388 170.419 178.733 168.24 176.865 165.445C176.385 164.727 175.963 163.976 175.6 163.201Z" fill="#710ECB"/>
<path fill-rule="evenodd" clip-rule="evenodd" d="M184.494 140.294C187.601 139.007 191.019 138.671 194.317 139.327C197.614 139.983 200.643 141.602 203.021 143.979C206.145 147.103 211.21 147.103 214.335 143.979C217.459 140.855 217.459 135.79 214.335 132.666C209.719 128.05 203.839 124.907 197.438 123.634C191.037 122.361 184.401 123.014 178.371 125.512C172.342 128.01 167.188 132.239 163.562 137.666C159.935 143.093 158 149.473 158 156C158 160.418 161.582 164 166 164C170.418 164 174 160.418 174 156C174 152.638 174.997 149.351 176.865 146.555C178.733 143.76 181.388 141.581 184.494 140.294ZM166 160C168.209 160 170 158.209 170 156C170 153.791 168.209 152 166 152C163.791 152 162 153.791 162 156C162 158.209 163.791 160 166 160Z" fill="#9333EA"/>
<path d="M241 140.944V180C241 184.418 244.582 188 249 188C253.418 188 257 184.418 257 180V144H249C245.927 144 243.123 142.845 241 140.944Z" fill="#710ECB"/>
<path fill-rule="evenodd" clip-rule="evenodd" d="M249 124C244.582 124 241 127.582 241 132C241 136.418 244.582 140 249 140H275C280.523 140 285 144.477 285 150C285 154.615 281.874 158.5 277.623 159.652L289.533 171.562C296.451 166.89 301 158.976 301 150C301 135.641 289.359 124 275 124H249ZM253 132C253 134.209 251.209 136 249 136C246.791 136 245 134.209 245 132C245 129.791 246.791 128 249 128C251.209 128 253 129.791 253 132Z" fill="#9333EA"/>
<path fill-rule="evenodd" clip-rule="evenodd" d="M274.657 162.343C271.533 159.219 266.467 159.219 263.343 162.343C260.219 165.467 260.219 170.533 263.343 173.657L287.343 197.657C290.467 200.781 295.533 200.781 298.657 197.657C301.781 194.533 301.781 189.467 298.657 186.343L274.657 162.343ZM269 172C271.209 172 273 170.209 273 168C273 165.791 271.209 164 269 164C266.791 164 265 165.791 265 168C265 170.209 266.791 172 269 172Z" fill="#710ECB"/>
<path d="M367.382 171.023C366.9 168.886 365.827 166.856 364.163 165.192C361.387 162.416 357.59 161.285 353.981 161.797C354.649 159.956 355 157.996 355 156C355 151.491 353.209 147.167 350.021 143.979C346.833 140.791 342.509 139 338 139C336.004 139 334.044 139.351 332.202 140.019C332.715 136.41 331.583 132.613 328.808 129.837C327.144 128.173 325.114 127.1 322.977 126.618C327.585 124.262 332.728 123 338 123C346.752 123 355.146 126.477 361.335 132.665C367.523 138.854 371 147.248 371 156C371 161.272 369.738 166.415 367.382 171.023Z" fill="#710ECB"/>
<path fill-rule="evenodd" clip-rule="evenodd" d="M325.979 168.021C327.558 169.599 329.432 170.852 331.494 171.706C333.557 172.56 335.768 173 338 173C340.232 173 342.443 172.56 344.506 171.706C346.568 170.852 348.442 169.599 350.021 168.021C353.145 164.897 358.21 164.897 361.335 168.021C364.459 171.145 364.459 176.21 361.335 179.334C358.27 182.399 354.632 184.83 350.629 186.488C346.625 188.146 342.334 189 338 189C333.666 189 329.375 188.146 325.371 186.488C321.368 184.83 317.73 182.399 314.665 179.334C311.601 176.27 309.17 172.632 307.512 168.629C305.854 164.625 305 160.334 305 156C305 151.666 305.854 147.375 307.512 143.371C309.17 139.368 311.601 135.73 314.665 132.665C317.79 129.541 322.855 129.541 325.979 132.665C329.103 135.79 329.103 140.855 325.979 143.979C324.401 145.558 323.148 147.432 322.294 149.494C321.44 151.557 321 153.767 321 156C321 158.232 321.44 160.443 322.294 162.506C323.148 164.568 324.401 166.442 325.979 168.021ZM352.849 170.849C354.411 169.287 356.944 169.287 358.506 170.849C360.068 172.411 360.068 174.944 358.506 176.506C356.944 178.068 354.411 178.068 352.849 176.506C351.287 174.944 351.287 172.411 352.849 170.849ZM323.151 135.494C321.589 133.932 319.056 133.932 317.494 135.494C315.932 137.056 315.932 139.589 317.494 141.151C319.056 142.713 321.589 142.713 323.151 141.151C324.713 139.589 324.713 137.056 323.151 135.494Z" fill="#9333EA"/>
<path d="M377.618 140.977C378.1 143.114 379.173 145.144 380.837 146.808C383.613 149.583 387.41 150.715 391.019 150.202C390.351 152.044 390 154.004 390 156C390 160.509 391.791 164.833 394.979 168.021C398.167 171.209 402.491 173 407 173C408.996 173 410.956 172.649 412.798 171.981C412.285 175.59 413.417 179.387 416.192 182.163C417.856 183.826 419.886 184.899 422.023 185.382C417.415 187.738 412.272 189 407 189C398.248 189 389.854 185.523 383.665 179.334C377.477 173.146 374 164.752 374 156C374 150.728 375.262 145.585 377.618 140.977Z" fill="#710ECB"/>
<path fill-rule="evenodd" clip-rule="evenodd" d="M419.021 143.979C417.442 142.401 415.568 141.148 413.506 140.294C411.443 139.44 409.232 139 407 139C404.768 139 402.557 139.44 400.494 140.294C398.432 141.148 396.558 142.401 394.979 143.979C391.855 147.103 386.79 147.103 383.665 143.979C380.541 140.855 380.541 135.79 383.665 132.665C386.73 129.601 390.368 127.17 394.371 125.512C398.375 123.854 402.666 123 407 123C411.334 123 415.625 123.854 419.629 125.512C423.632 127.17 427.27 129.601 430.335 132.665C433.399 135.73 435.83 139.368 437.488 143.371C439.146 147.375 440 151.666 440 156C440 160.334 439.146 164.625 437.488 168.628C435.83 172.632 433.399 176.27 430.335 179.334C427.21 182.459 422.145 182.459 419.021 179.334C415.897 176.21 415.897 171.145 419.021 168.021C420.599 166.442 421.852 164.568 422.706 162.506C423.56 160.443 424 158.232 424 156C424 153.767 423.56 151.557 422.706 149.494C421.852 147.432 420.599 145.558 419.021 143.979ZM392.151 141.151C390.589 142.713 388.056 142.713 386.494 141.151C384.932 139.589 384.932 137.056 386.494 135.494C388.056 133.932 390.589 133.932 392.151 135.494C393.713 137.056 393.713 139.589 392.151 141.151ZM421.849 176.506C423.411 178.068 425.944 178.068 427.506 176.506C429.068 174.944 429.068 172.411 427.506 170.849C425.944 169.287 423.411 169.287 421.849 170.849C420.287 172.411 420.287 174.944 421.849 176.506Z" fill="#9333EA"/>
<path fill-rule="evenodd" clip-rule="evenodd" d="M488 132.686L476 144.686L457.657 126.343C454.533 123.219 449.467 123.219 446.343 126.343C443.219 129.467 443.219 134.533 446.343 137.657L470.343 161.657C473.467 164.781 478.533 164.781 481.657 161.657L488 155.314V132.686ZM456 132C456 134.209 454.209 136 452 136C449.791 136 448 134.209 448 132C448 129.791 449.791 128 452 128C454.209 128 456 129.791 456 132Z" fill="#9333EA"/>
<path d="M444 140.971V192C444 196.418 447.582 200 452 200C456.418 200 460 196.418 460 192V156.971L444 140.971Z" fill="#710ECB"/>
<path fill-rule="evenodd" clip-rule="evenodd" d="M508 132C508 127.582 504.418 124 500 124C495.582 124 492 127.582 492 132V180C492 184.418 495.582 188 500 188C504.418 188 508 184.418 508 180V132ZM500 136C502.209 136 504 134.209 504 132C504 129.791 502.209 128 500 128C497.791 128 496 129.791 496 132C496 134.209 497.791 136 500 136Z" fill="#710ECB"/>
<path d="M451.84 27.0167C456.433 17.7965 452.71 6.58476 443.523 1.97464C434.337 -2.63549 423.167 1.10176 418.574 10.322L410.438 26.6541C405.845 35.8744 409.568 47.0861 418.754 51.6962C427.941 56.3064 439.111 52.5691 443.704 43.3489L451.84 27.0167Z" fill="#1D1F3F"/>
<path d="M248.51 19.7917C243.992 10.534 232.853 6.705 223.629 11.2394C214.406 15.7738 210.591 26.9545 215.109 36.2122L225.84 58.2031C226.598 59.757 226.598 61.5755 225.84 63.1294L215.109 85.1203C210.591 94.378 214.406 105.559 223.629 110.093C232.853 114.628 243.992 110.798 248.51 101.541L259.191 79.6525C259.287 79.4561 259.486 79.3315 259.704 79.3315C259.922 79.3315 260.121 79.4561 260.217 79.6525L270.898 101.541C275.415 110.798 286.555 114.628 295.778 110.093C305.002 105.559 308.817 94.378 304.299 85.1203L293.568 63.1294C292.81 61.5755 292.81 59.757 293.568 58.2031L304.299 36.2122C308.817 26.9545 305.002 15.7738 295.778 11.2394C286.555 6.705 275.415 10.534 270.898 19.7917L260.217 41.68C260.121 41.8765 259.922 42.001 259.704 42.001C259.486 42.001 259.287 41.8765 259.191 41.68L248.51 19.7917Z" fill="#1D1F3F"/>
<path d="M39.2335 19.6547C34.6404 10.4344 23.4701 6.69715 14.2839 11.3073C5.09769 15.9174 1.37424 27.1291 5.96734 36.3494L38.511 101.678C41.661 108.001 48.1003 111.996 55.144 111.996C62.1878 111.996 68.627 108.001 71.7771 101.678L104.321 36.3494C108.914 27.1291 105.19 15.9174 96.0042 11.3073C86.818 6.69715 75.6477 10.4344 71.0546 19.6547L55.9757 49.9242C55.633 50.6121 54.655 50.6121 54.3124 49.9242L39.2335 19.6547Z" fill="#1D1F3F"/>
<path d="M318.43 12.96C326.707 6.85656 338.346 8.64327 344.427 16.9507L355.836 32.5378C356.579 33.553 358.09 33.553 358.833 32.5378L370.243 16.9507C376.324 8.64327 387.963 6.85656 396.24 12.96C404.516 19.0635 406.297 30.7458 400.216 39.0533L377.015 70.7326C376.311 71.694 375.931 72.856 375.931 74.0492V93.3305C375.931 103.639 367.605 111.996 357.335 111.996C347.064 111.996 338.738 103.639 338.738 93.3305V74.0492C338.738 72.856 338.359 71.694 337.655 70.7326L314.454 39.0533C308.373 30.7458 310.153 19.0635 318.43 12.96Z" fill="#1D1F3F"/>
<path fill-rule="evenodd" clip-rule="evenodd" d="M120.347 23.2811C125.338 14.6493 134.529 9.3367 144.473 9.3367L171.538 9.3367C181.481 9.33671 190.673 14.6493 195.664 23.2811L209.154 46.6127C214.179 55.303 214.179 66.0295 209.154 74.7198L195.664 98.0514C190.672 106.683 181.481 111.996 171.538 111.996H144.473C134.529 111.996 125.338 106.683 120.347 98.0514L106.856 74.7198C101.831 66.0295 101.831 55.303 106.856 46.6127L120.347 23.2811ZM153.04 46.6673C151.051 46.6673 149.212 47.7298 148.214 49.4562L143.358 57.8555C142.353 59.5936 142.353 61.7389 143.358 63.477L148.214 71.8763C149.212 73.6027 151.051 74.6652 153.04 74.6652H162.971C164.959 74.6652 166.798 73.6027 167.796 71.8763L172.652 63.477C173.657 61.7389 173.657 59.5936 172.652 57.8555L167.796 49.4562C166.798 47.7298 164.959 46.6673 162.971 46.6673H153.04Z" fill="#1D1F3F"/>
<path d="M489.834 9.3367C470.577 9.3367 454.966 25.0056 454.966 44.3341C454.966 56.1999 460.849 66.6864 469.847 73.0152C470.604 73.5476 470.294 74.929 469.393 75.1361C461.13 77.0359 454.966 84.4607 454.966 93.3305C454.966 103.639 463.291 111.996 473.562 111.996H499.132C518.389 111.996 534 96.3269 534 76.9984C534 65.1326 528.117 54.6461 519.118 48.3173C518.361 47.7849 518.672 46.4035 519.573 46.1963C527.836 44.2966 534 36.8718 534 28.002C534 17.6934 525.674 9.3367 515.404 9.3367H489.834Z" fill="#1D1F3F"/>
</svg>
