<svg width="560" height="440" viewBox="0 0 560 440" fill="none" xmlns="http://www.w3.org/2000/svg">
<path d="M163.687 196.635C156.352 196.635 150.406 202.582 150.406 209.918V373.741H119.205C100.866 373.741 86 388.609 86 406.949V439.525H486V406.949C486 388.609 471.134 373.741 452.795 373.741H424.898V209.918C424.898 202.582 418.951 196.635 411.616 196.635H163.687Z" fill="#FF8047"/>
<path d="M179.18 183.352C174.29 183.352 170.325 187.317 170.325 192.207V356.03C170.325 360.921 174.29 364.886 179.18 364.886H265.512C274.07 364.886 281.008 371.824 281.008 380.383C281.008 384.051 283.981 387.024 287.649 387.024C291.316 387.024 294.29 384.051 294.29 380.383C294.29 371.824 301.227 364.886 309.785 364.886H396.117C401.008 364.886 404.972 360.921 404.972 356.03V192.207C404.972 187.317 401.008 183.352 396.117 183.352H179.18Z" fill="#FFFF01"/>
<path d="M343.547 342.748C347.214 342.748 350.188 339.774 350.188 336.106C350.188 332.438 347.214 329.465 343.547 329.465L307.575 329.465C303.907 329.465 300.934 332.438 300.934 336.106C300.934 339.774 303.907 342.748 307.575 342.748L343.547 342.748Z" fill="#01D098"/>
<path d="M391.693 336.106C391.693 339.774 388.72 342.748 385.053 342.748H367.897C364.229 342.748 361.256 339.774 361.256 336.106C361.256 332.438 364.229 329.465 367.897 329.465H385.053C388.72 329.465 391.693 332.438 391.693 336.106Z" fill="#01D098"/>
<path d="M391.693 309.54C391.693 313.208 388.72 316.182 385.053 316.182L307.575 316.182C303.907 316.182 300.934 313.208 300.934 309.54C300.934 305.872 303.907 302.899 307.575 302.899L385.053 302.899C388.72 302.899 391.693 305.872 391.693 309.54Z" fill="#01D098"/>
<path d="M320.857 282.974C320.857 286.642 317.884 289.616 314.216 289.616L307.575 289.616C303.907 289.616 300.934 286.642 300.934 282.974C300.934 279.306 303.907 276.333 307.575 276.333L314.216 276.333C317.884 276.333 320.857 279.306 320.857 282.974Z" fill="#01D098"/>
<path d="M385.053 289.616C388.72 289.616 391.694 286.642 391.694 282.974C391.694 279.306 388.72 276.333 385.053 276.333L340.78 276.333C337.112 276.333 334.139 279.306 334.139 282.974C334.139 286.642 337.112 289.616 340.78 289.616L385.053 289.616Z" fill="#01D098"/>
<path d="M183.611 282.975C183.611 279.307 186.584 276.333 190.252 276.333H267.729C271.397 276.333 274.37 279.307 274.37 282.975C274.37 286.643 271.397 289.616 267.729 289.616H190.252C186.584 289.616 183.611 286.643 183.611 282.975Z" fill="#01D098"/>
<path d="M183.611 309.54C183.611 305.872 186.584 302.899 190.252 302.899H207.407C211.075 302.899 214.048 305.872 214.048 309.54C214.048 313.208 211.075 316.182 207.407 316.182H190.252C186.584 316.182 183.611 313.208 183.611 309.54Z" fill="#01D098"/>
<path d="M231.757 302.899C228.09 302.899 225.116 305.872 225.116 309.54C225.116 313.208 228.09 316.182 231.757 316.182H267.729C271.397 316.182 274.37 313.208 274.37 309.54C274.37 305.872 271.397 302.899 267.729 302.899H231.757Z" fill="#01D098"/>
<path d="M254.447 336.106C254.447 332.438 257.421 329.465 261.088 329.465H267.729C271.397 329.465 274.37 332.438 274.37 336.106C274.37 339.774 271.397 342.748 267.729 342.748H261.088C257.421 342.748 254.447 339.774 254.447 336.106Z" fill="#01D098"/>
<path d="M190.252 329.465C186.584 329.465 183.611 332.438 183.611 336.106C183.611 339.774 186.584 342.748 190.252 342.748H234.524C238.192 342.748 241.165 339.774 241.165 336.106C241.165 332.438 238.192 329.465 234.524 329.465H190.252Z" fill="#01D098"/>
<path d="M281.01 211.025C281.01 233.033 266.143 250.874 247.805 250.874C229.466 250.874 214.6 233.033 214.6 211.025C214.6 189.017 229.466 171.176 247.805 171.176C266.143 171.176 281.01 189.017 281.01 211.025Z" fill="white"/>
<path d="M360.701 211.025C360.701 233.033 345.835 250.874 327.496 250.874C309.158 250.874 294.291 233.033 294.291 211.025C294.291 189.017 309.158 171.176 327.496 171.176C345.835 171.176 360.701 189.017 360.701 211.025Z" fill="white"/>
<path d="M269.942 211.025C269.942 225.697 260.031 237.591 247.806 237.591C235.58 237.591 225.669 225.697 225.669 211.025C225.669 196.353 235.58 184.459 247.806 184.459C260.031 184.459 269.942 196.353 269.942 211.025Z" fill="#1E4DF8"/>
<path d="M349.633 211.025C349.633 225.697 339.723 237.591 327.497 237.591C315.271 237.591 305.36 225.697 305.36 211.025C305.36 196.353 315.271 184.459 327.497 184.459C339.723 184.459 349.633 196.353 349.633 211.025Z" fill="#1E4DF8"/>
<path fill-rule="evenodd" clip-rule="evenodd" d="M247.803 263.05C265.603 263.05 279.823 252.473 287.649 237.766C295.475 252.473 309.695 263.05 327.495 263.05C352.722 263.05 370.76 241.802 373.592 217.666H391.69C395.358 217.666 398.331 214.693 398.331 211.025C398.331 207.357 395.358 204.383 391.69 204.383H373.592C370.76 180.248 352.722 159 327.495 159C309.695 159 295.475 169.577 287.649 184.284C279.823 169.577 265.603 159 247.803 159C222.576 159 204.538 180.248 201.706 204.383H183.607C179.94 204.383 176.967 207.357 176.967 211.025C176.967 214.693 179.94 217.666 183.607 217.666H201.706C204.538 241.802 222.576 263.05 247.803 263.05ZM294.29 211.025C294.29 232.422 309.156 249.767 327.495 249.767C345.833 249.767 360.699 232.422 360.699 211.025C360.699 189.628 345.833 172.283 327.495 172.283C309.156 172.283 294.29 189.628 294.29 211.025ZM281.008 211.025C281.008 232.422 266.142 249.767 247.803 249.767C229.465 249.767 214.599 232.422 214.599 211.025C214.599 189.628 229.465 172.283 247.803 172.283C266.142 172.283 281.008 189.628 281.008 211.025Z" fill="#01A182"/>
<path fill-rule="evenodd" clip-rule="evenodd" d="M480 160C524.183 160 560 124.183 560 80C560 35.8172 524.183 0 480 0C435.817 0 400 35.8172 400 80C400 98.0676 405.989 114.736 416.091 128.129C416.711 128.951 417.015 129.972 416.915 130.997L413.522 165.991C413.224 169.056 416.356 171.293 419.159 170.018L450.637 155.699C451.6 155.261 452.694 155.226 453.693 155.574C461.932 158.442 470.784 160 480 160Z" fill="#FCFAED"/>
<path d="M483.636 43.6364C483.636 41.6281 482.008 40 480 40C477.992 40 476.364 41.6281 476.364 43.6364V47.2727C476.364 49.281 477.992 50.9091 480 50.9091C482.008 50.9091 483.636 49.281 483.636 47.2727V43.6364Z" fill="#FF8047"/>
<path fill-rule="evenodd" clip-rule="evenodd" d="M462.13 92.5183C463.093 93.8929 464.209 95.1486 465.455 96.2623V109.091C465.455 115.116 470.339 120 476.364 120H483.636C489.661 120 494.545 115.116 494.545 109.091V108.277C494.545 106.268 492.917 104.64 490.909 104.64C488.901 104.64 487.273 106.268 487.273 108.277V109.091C487.273 111.099 485.645 112.727 483.636 112.727H476.364C474.355 112.727 472.727 111.099 472.727 109.091V100.57C473.86 100.971 475.027 101.278 476.216 101.488C479.038 101.984 481.93 101.921 484.727 101.3C487.524 100.679 490.172 99.5136 492.518 97.8697C494.865 96.2258 496.865 94.1357 498.404 91.7189C499.943 89.3021 500.991 86.6058 501.488 83.784C501.984 80.9622 501.921 78.0702 501.3 75.273C500.679 72.4759 499.514 69.8284 497.87 67.4817C496.226 65.135 494.136 63.1351 491.719 61.5962C489.302 60.0572 486.606 59.0094 483.784 58.5125C480.962 58.0155 478.07 58.0793 475.273 58.7C472.476 59.3208 469.828 60.4864 467.482 62.1303C465.135 63.7742 463.135 65.8643 461.596 68.2811C460.057 70.6979 459.009 73.3942 458.512 76.216C458.016 79.0378 458.079 81.9298 458.7 84.727C459.321 87.5241 460.486 90.1716 462.13 92.5183ZM482.523 65.675C480.641 65.3437 478.713 65.3862 476.849 65.8C474.984 66.2139 473.219 66.9909 471.654 68.0869C470.09 69.1828 468.757 70.5762 467.731 72.1874C466.705 73.7986 466.006 75.5961 465.675 77.4773C465.344 79.3585 465.386 81.2865 465.8 83.1513C466.214 85.0161 466.991 86.7811 468.087 88.3455C468.962 89.5954 470.028 90.6978 471.243 91.6138L471.299 91.6562C471.587 91.8711 471.883 92.0756 472.187 92.2692C473.799 93.2952 475.596 93.9937 477.477 94.325C479.359 94.6563 481.287 94.6138 483.151 94.2C485.016 93.7861 486.781 93.0091 488.346 91.9131C489.91 90.8172 491.243 89.4238 492.269 87.8126C493.295 86.2014 493.994 84.4039 494.325 82.5227C494.656 80.6415 494.614 78.7135 494.2 76.8487C493.786 74.9839 493.009 73.2189 491.913 71.6545C490.817 70.09 489.424 68.7567 487.813 67.7308C486.201 66.7048 484.404 66.0063 482.523 65.675Z" fill="#FF8047"/>
<path d="M520 80C520 82.0083 518.372 83.6364 516.364 83.6364H512.727C510.719 83.6364 509.091 82.0083 509.091 80C509.091 77.9917 510.719 76.3636 512.727 76.3636H516.364C518.372 76.3636 520 77.9917 520 80Z" fill="#FF8047"/>
<path d="M455.793 50.6507C454.373 49.2306 452.071 49.2306 450.651 50.6507C449.231 52.0708 449.231 54.3732 450.651 55.7933L453.222 58.3646C454.642 59.7847 456.944 59.7847 458.365 58.3646C459.785 56.9445 459.785 54.6421 458.365 53.222L455.793 50.6507Z" fill="#FF8047"/>
<path d="M509.349 55.7933L506.778 58.3646C505.358 59.7847 503.056 59.7847 501.635 58.3646C500.215 56.9445 500.215 54.6421 501.635 53.222L504.207 50.6507C505.627 49.2306 507.929 49.2306 509.349 50.6507C510.769 52.0708 510.769 54.3732 509.349 55.7933Z" fill="#FF8047"/>
<path d="M447.273 83.6364C449.281 83.6364 450.909 82.0083 450.909 80C450.909 77.9917 449.281 76.3636 447.273 76.3636H443.636C441.628 76.3636 440 77.9917 440 80C440 82.0083 441.628 83.6364 443.636 83.6364H447.273Z" fill="#FF8047"/>
</svg>
