<svg width="512" height="281" viewBox="0 0 512 281" fill="none" xmlns="http://www.w3.org/2000/svg">
<path fill-rule="evenodd" clip-rule="evenodd" d="M95.3962 43.4717C95.3962 36.8026 100.803 31.3962 107.472 31.3962H231.849C243.321 31.3962 254.792 37.8839 254.792 45.8868L254.792 245.132V45.8868C254.792 37.8839 266.264 31.3962 277.736 31.3962H402.113C408.782 31.3962 414.189 36.8026 414.189 43.4717V233.057C414.189 239.726 408.782 245.132 402.113 245.132H278.943C268.94 245.132 260.83 253.242 260.83 263.245V263.245C260.83 266.58 258.127 269.283 254.792 269.283C251.458 269.283 248.755 266.58 248.755 263.245V263.245C248.755 253.242 240.645 245.132 230.641 245.132H107.472C100.803 245.132 95.3962 239.726 95.3962 233.057V43.4717Z" fill="#FFE600"/>
<path d="M142.491 173.283C142.491 170.949 144.383 169.057 146.717 169.057H205.887C208.221 169.057 210.113 170.949 210.113 173.283C210.113 175.617 208.221 177.509 205.887 177.509H146.717C144.383 177.509 142.491 175.617 142.491 173.283Z" fill="white"/>
<path d="M142.491 192.604C142.491 190.27 144.383 188.377 146.717 188.377H205.887C208.221 188.377 210.113 190.27 210.113 192.604C210.113 194.938 208.221 196.83 205.887 196.83H146.717C144.383 196.83 142.491 194.938 142.491 192.604Z" fill="white"/>
<path d="M142.491 211.925C142.491 209.59 144.383 207.698 146.717 207.698H181.736C184.07 207.698 185.962 209.59 185.962 211.925C185.962 214.259 184.07 216.151 181.736 216.151H146.717C144.383 216.151 142.491 214.259 142.491 211.925Z" fill="white"/>
<path d="M297.057 173.283C297.057 170.949 298.949 169.057 301.283 169.057H360.453C362.787 169.057 364.679 170.949 364.679 173.283C364.679 175.617 362.787 177.509 360.453 177.509H301.283C298.949 177.509 297.057 175.617 297.057 173.283Z" fill="white"/>
<path d="M297.057 192.604C297.057 190.27 298.949 188.377 301.283 188.377H360.453C362.787 188.377 364.679 190.27 364.679 192.604C364.679 194.938 362.787 196.83 360.453 196.83H301.283C298.949 196.83 297.057 194.938 297.057 192.604Z" fill="white"/>
<path d="M297.057 211.925C297.057 209.59 298.949 207.698 301.283 207.698H336.302C338.636 207.698 340.528 209.59 340.528 211.925C340.528 214.259 338.636 216.151 336.302 216.151H301.283C298.949 216.151 297.057 214.259 297.057 211.925Z" fill="white"/>
<circle cx="173.887" cy="103.849" r="49.5094" fill="#F9D349"/>
<circle cx="333.283" cy="103.849" r="49.5094" fill="#F9D349"/>
<path d="M131.623 118.679C131.623 113.697 135.661 109.659 140.643 109.659H208.49C213.472 109.659 217.51 113.697 217.51 118.679C217.51 123.661 213.472 127.699 208.49 127.699H181.037V140.075H207.634C198.791 148.316 186.928 153.359 173.887 153.359C160.846 153.359 148.983 148.316 140.14 140.075H168.226V127.699H140.643C135.661 127.699 131.623 123.661 131.623 118.679Z" fill="#FF104F"/>
<path d="M152.277 96.9784C152.277 98.042 152.425 99.0712 152.701 100.046C148.43 102.54 144.796 105.796 141.931 109.659H206.94C204.126 105.864 200.568 102.654 196.394 100.178C196.694 99.1638 196.855 98.09 196.855 96.9784C196.855 90.7694 191.822 85.7359 185.613 85.7359C180.257 85.7359 175.776 89.4809 174.646 94.4951C174.593 94.4948 174.54 94.4947 174.487 94.4946C173.357 89.4807 168.876 85.7359 163.52 85.7359C157.311 85.7359 152.277 90.7694 152.277 96.9784Z" fill="#FF7E46"/>
<path d="M193.587 96.9784C193.587 101.383 190.017 104.953 185.613 104.953C181.209 104.953 177.639 101.383 177.639 96.9784C177.639 92.5743 181.209 89.0041 185.613 89.0041C190.017 89.0041 193.587 92.5743 193.587 96.9784Z" fill="white"/>
<path d="M171.494 96.9784C171.494 101.383 167.924 104.953 163.52 104.953C159.116 104.953 155.546 101.383 155.546 96.9784C155.546 92.5743 159.116 89.0041 163.52 89.0041C167.924 89.0041 171.494 92.5743 171.494 96.9784Z" fill="white"/>
<path d="M190.973 96.9784C190.973 99.9386 188.573 102.338 185.613 102.338C182.653 102.338 180.253 99.9386 180.253 96.9784C180.253 94.0183 182.653 91.6186 185.613 91.6186C188.573 91.6186 190.973 94.0183 190.973 96.9784Z" fill="#3487FF"/>
<path d="M168.88 96.9784C168.88 99.9386 166.48 102.338 163.52 102.338C160.56 102.338 158.16 99.9386 158.16 96.9784C158.16 94.0183 160.56 91.6186 163.52 91.6186C166.48 91.6186 168.88 94.0183 168.88 96.9784Z" fill="#3487FF"/>
<path d="M185.642 108.09H163.271C161.324 108.09 160.078 109.971 161.377 111.421C163.672 113.982 167.869 116.587 174.501 116.587C181.085 116.587 185.238 114.02 187.545 111.477C188.87 110.016 187.615 108.09 185.642 108.09Z" fill="#1E4DF8"/>
<path d="M184.522 113.982C181.875 112.758 178.36 112.012 174.501 112.012C170.637 112.012 167.116 112.76 164.468 113.988C166.871 115.474 170.166 116.587 174.501 116.587C178.843 116.587 182.127 115.471 184.522 113.982Z" fill="#FFF32A"/>
<path d="M360.276 102.68H306.2V136.453H296.024C305.099 146.815 318.427 153.358 333.283 153.358C348.139 153.358 361.467 146.815 370.542 136.453H360.276V102.68Z" fill="#FF8047"/>
<rect x="326.398" y="128.376" width="13.6788" height="4.60221" rx="2.3011" fill="#FF104F"/>
<path d="M333.238 111.864C332.69 117.49 328.692 121.856 323.842 121.856C318.617 121.856 314.382 116.79 314.382 110.542C314.382 104.294 318.617 99.2282 323.842 99.2282C328.692 99.2282 332.69 103.594 333.238 109.22C333.785 103.594 337.783 99.2282 342.634 99.2282C347.859 99.2282 352.094 104.294 352.094 110.542C352.094 116.79 347.859 121.856 342.634 121.856C337.783 121.856 333.785 117.49 333.238 111.864Z" fill="white"/>
<path d="M329.978 110.798C329.978 115.14 327.23 118.66 323.841 118.66C320.452 118.66 317.705 115.14 317.705 110.798C317.705 106.456 320.452 102.936 323.841 102.936C327.23 102.936 329.978 106.456 329.978 110.798Z" fill="#1E4DF8"/>
<path d="M348.77 110.798C348.77 115.14 346.023 118.66 342.634 118.66C339.245 118.66 336.497 115.14 336.497 110.798C336.497 106.456 339.245 102.936 342.634 102.936C346.023 102.936 348.77 106.456 348.77 110.798Z" fill="#1E4DF8"/>
<path d="M306.227 99.4839H304.282C303.576 99.4839 303.004 100.056 303.004 100.762V105.62C303.004 106.326 303.576 106.899 304.282 106.899H362.193C362.899 106.899 363.472 106.326 363.472 105.62V100.762C363.472 100.056 362.899 99.4839 362.193 99.4839H360.248C360.107 96.3479 359.421 93.2573 358.217 90.3514C356.859 87.071 354.867 84.0903 352.356 81.5796C349.846 79.0689 346.865 77.0773 343.585 75.7185C340.304 74.3597 336.788 73.6604 333.238 73.6604C329.687 73.6604 326.171 74.3597 322.891 75.7185C319.61 77.0773 316.63 79.0689 314.119 81.5796C311.608 84.0903 309.617 87.071 308.258 90.3514C307.054 93.2573 306.368 96.348 306.227 99.4839Z" fill="#FFFF01"/>
<path d="M330.745 79.9245C330.321 79.9245 329.978 80.2679 329.978 80.6915V85.5494C329.978 86.0436 329.577 86.4443 329.083 86.4443H324.225C323.801 86.4443 323.458 86.7877 323.458 87.2113V92.1971C323.458 92.6207 323.801 92.9641 324.225 92.9641H329.083C329.577 92.9641 329.978 93.3647 329.978 93.859V98.7169C329.978 99.1405 330.321 99.4839 330.745 99.4839H335.731C336.154 99.4839 336.498 99.1405 336.498 98.7169V93.859C336.498 93.3647 336.898 92.9641 337.392 92.9641H342.25C342.674 92.9641 343.017 92.6207 343.017 92.1971V87.2113C343.017 86.7877 342.674 86.4443 342.25 86.4443H337.392C336.898 86.4443 336.498 86.0436 336.498 85.5494V80.6915C336.498 80.2679 336.154 79.9245 335.731 79.9245H330.745Z" fill="#01D098"/>
<path d="M447.396 97.8113C479.074 97.8113 504.755 77.2671 504.755 51.9245C504.755 26.582 479.074 6.03773 447.396 6.03773C415.718 6.03773 390.038 26.582 390.038 51.9245C390.038 65.966 397.921 78.5344 410.34 86.9515C409.219 91.5075 404.133 95.3771 400.104 97.891C399.047 98.5506 399.498 100.226 400.744 100.219C412.401 100.155 414.722 99.5646 424.736 94.0915C431.687 96.4853 439.348 97.8113 447.396 97.8113Z" fill="#FCFAED"/>
<path d="M63.3961 182.332C31.7179 182.332 6.0376 202.876 6.0376 228.219C6.0376 253.561 31.7179 274.106 63.3961 274.106C95.0743 274.106 120.755 253.561 120.755 228.219C120.755 214.177 112.871 201.609 100.452 193.192C101.573 188.636 106.659 184.766 110.688 182.252C111.745 181.593 111.294 179.918 110.048 179.925C98.3915 179.988 96.0698 180.579 86.0558 186.052C79.1049 183.658 71.444 182.332 63.3961 182.332Z" fill="#FCFAED"/>
<path d="M432.906 47.0943H441.359V45.283C441.359 43.2823 442.98 41.6604 444.981 41.6604H452.227C453.56 41.6604 454.642 42.7417 454.642 44.0755V44.7206C454.642 45.7742 453.959 46.7063 452.954 47.0236L449.077 48.2477C445.561 49.3582 443.17 52.6204 443.17 56.3082V58.566H451.623V57.0755C451.623 56.1422 452.161 55.2924 453.004 54.8929L458.951 52.076C461.481 50.8774 463.094 48.3281 463.094 45.5282V44.0755C463.094 38.0733 458.229 33.2076 452.227 33.2076H443.774C437.772 33.2076 432.906 38.0733 432.906 44.0755V47.0943Z" fill="#00D097"/>
<path d="M447.396 73.6604C450.397 73.6604 452.83 71.2275 452.83 68.2264C452.83 65.2253 450.397 62.7925 447.396 62.7925C444.395 62.7925 441.962 65.2253 441.962 68.2264C441.962 71.2275 444.395 73.6604 447.396 73.6604Z" fill="#00D097"/>
<path d="M57.9622 234.264H67.6226L70.0377 208.302H55.5471L57.9622 234.264Z" fill="#FF8047"/>
<path d="M62.7924 248.755C65.7935 248.755 68.2264 246.322 68.2264 243.321C68.2264 240.32 65.7935 237.887 62.7924 237.887C59.7913 237.887 57.3584 240.32 57.3584 243.321C57.3584 246.322 59.7913 248.755 62.7924 248.755Z" fill="#FF8047"/>
</svg>
