<svg width="280" height="256" viewBox="0 0 280 256" fill="none" xmlns="http://www.w3.org/2000/svg">
<circle cx="140" cy="128" r="128" fill="white"/>
<path fill-rule="evenodd" clip-rule="evenodd" d="M58.9087 79.7274C54.0888 79.7274 50.1815 83.6348 50.1815 88.4547V196H31.5364C54.151 231.996 94.1879 255.938 139.821 256H140.179C185.812 255.938 225.849 231.996 248.464 196H230.545V88.4547C230.545 83.6347 226.638 79.7274 221.818 79.7274H58.9087Z" fill="#FF8047"/>
<path fill-rule="evenodd" clip-rule="evenodd" d="M69.0904 71C65.8771 71 63.2722 73.6049 63.2722 76.8182V184.455C63.2722 187.668 65.8771 190.273 69.0904 190.273H125.818C131.441 190.273 136 194.831 136 200.455V200.455C136 202.865 137.953 204.818 140.363 204.818C142.773 204.818 144.727 202.865 144.727 200.455V200.455C144.727 194.831 149.285 190.273 154.909 190.273H211.636C214.849 190.273 217.454 187.668 217.454 184.455V76.8182C217.454 73.6049 214.849 71 211.636 71H69.0904Z" fill="#FFFF01"/>
<path fill-rule="evenodd" clip-rule="evenodd" d="M208.727 171.364C208.727 173.774 206.773 175.728 204.363 175.728L193.09 175.728C190.68 175.728 188.727 173.774 188.727 171.364C188.727 168.954 190.68 167 193.09 167L204.363 167C206.773 167 208.727 168.954 208.727 171.364ZM208.727 153.909C208.727 156.319 206.773 158.273 204.363 158.273L153.454 158.273C151.044 158.273 149.09 156.319 149.09 153.909C149.09 151.499 151.044 149.546 153.454 149.546L204.363 149.546C206.773 149.546 208.727 151.499 208.727 153.909ZM177.09 175.727C179.5 175.727 181.454 173.774 181.454 171.364C181.454 168.954 179.5 167 177.09 167L153.454 167C151.044 167 149.09 168.954 149.09 171.364C149.09 173.774 151.044 175.727 153.454 175.727L177.09 175.727ZM162.181 136.455C162.181 138.865 160.228 140.818 157.818 140.818L153.454 140.818C151.044 140.818 149.091 138.865 149.091 136.455C149.091 134.045 151.044 132.091 153.454 132.091L157.818 132.091C160.228 132.091 162.181 134.045 162.181 136.455ZM204.363 140.818C206.773 140.818 208.727 138.865 208.727 136.455C208.727 134.045 206.773 132.091 204.363 132.091L175.272 132.091C172.862 132.091 170.909 134.045 170.909 136.455C170.909 138.865 172.862 140.818 175.272 140.818L204.363 140.818Z" fill="#01D098"/>
<path fill-rule="evenodd" clip-rule="evenodd" d="M71.9995 136.455C71.9995 134.045 73.9532 132.091 76.3631 132.091H127.272C129.682 132.091 131.636 134.045 131.636 136.455C131.636 138.865 129.682 140.818 127.272 140.818H76.3631C73.9532 140.818 71.9995 138.865 71.9995 136.455ZM71.9996 153.909C71.9996 151.499 73.9533 149.546 76.3633 149.546H87.636C90.0459 149.546 91.9996 151.499 91.9996 153.909C91.9996 156.319 90.0459 158.273 87.636 158.273H76.3633C73.9533 158.273 71.9996 156.319 71.9996 153.909ZM103.636 149.546C101.226 149.546 99.2722 151.499 99.2722 153.909C99.2722 156.319 101.226 158.273 103.636 158.273H127.272C129.682 158.273 131.636 156.319 131.636 153.909C131.636 151.499 129.682 149.546 127.272 149.546H103.636ZM118.545 171.364C118.545 168.954 120.499 167 122.909 167H127.272C129.682 167 131.636 168.954 131.636 171.364C131.636 173.774 129.682 175.728 127.272 175.728H122.909C120.499 175.728 118.545 173.774 118.545 171.364ZM76.3633 167C73.9533 167 71.9996 168.954 71.9996 171.364C71.9996 173.774 73.9533 175.728 76.3632 175.728H105.454C107.864 175.728 109.818 173.774 109.818 171.364C109.818 168.954 107.864 167 105.454 167H76.3633Z" fill="#01D098"/>
<path d="M136 89.1818C136 103.642 126.231 115.364 114.181 115.364C102.132 115.364 92.3633 103.642 92.3633 89.1818C92.3633 74.722 102.132 63 114.181 63C126.231 63 136 74.722 136 89.1818Z" fill="white"/>
<path d="M188.363 89.1818C188.363 103.642 178.595 115.364 166.545 115.364C154.495 115.364 144.727 103.642 144.727 89.1818C144.727 74.722 154.495 63 166.545 63C178.595 63 188.363 74.722 188.363 89.1818Z" fill="white"/>
<path d="M128.727 89.1818C128.727 98.8217 122.215 106.636 114.181 106.636C106.148 106.636 99.636 98.8217 99.636 89.1818C99.636 79.542 106.148 71.7273 114.181 71.7273C122.215 71.7273 128.727 79.542 128.727 89.1818Z" fill="#1E4DF8"/>
<path d="M181.091 89.1818C181.091 98.8217 174.578 106.636 166.545 106.636C158.512 106.636 152 98.8217 152 89.1818C152 79.542 158.512 71.7273 166.545 71.7273C174.578 71.7273 181.091 79.542 181.091 89.1818Z" fill="#1E4DF8"/>
<path fill-rule="evenodd" clip-rule="evenodd" d="M144.727 89.2457L144.727 89.1818L144.727 89.1179C144.756 75.0891 154.513 63.7272 166.545 63.7272C178.595 63.7272 188.363 75.1236 188.363 89.1818C188.363 103.24 178.595 114.636 166.545 114.636C154.513 114.636 144.756 103.274 144.727 89.2457ZM140.363 106.752C135.221 116.414 125.877 123.364 114.181 123.364C97.6051 123.364 85.7523 109.403 83.8916 93.5454H71.9996C69.5896 93.5454 67.636 91.5918 67.636 89.1818C67.636 86.7718 69.5896 84.8182 71.9996 84.8182H83.8916C85.7523 68.9602 97.6051 55 114.181 55C125.877 55 135.221 61.9495 140.363 71.6118C145.505 61.9495 154.849 55 166.545 55C183.121 55 194.974 68.9602 196.835 84.8182H208.727C211.137 84.8182 213.09 86.7718 213.09 89.1818C213.09 91.5918 211.137 93.5454 208.727 93.5454H196.835C194.974 109.403 183.121 123.364 166.545 123.364C154.849 123.364 145.505 116.414 140.363 106.752ZM135.999 89.1179L135.999 89.1818L135.999 89.2456C135.97 103.274 126.213 114.636 114.181 114.636C102.131 114.636 92.3632 103.24 92.3632 89.1818C92.3632 75.1236 102.131 63.7272 114.181 63.7272C126.213 63.7272 135.97 75.0891 135.999 89.1179Z" fill="#01A182"/>
</svg>
