<svg width="480" height="400" viewBox="0 0 480 400" fill="none" xmlns="http://www.w3.org/2000/svg">
<ellipse cx="240.311" cy="41.3686" rx="41.4545" ry="41.3686" fill="#FFFF01"/>
<path d="M231.273 57.8538L225.662 103.888H193.569C148.818 103.888 110.187 130.345 92.6512 168.523L110.807 208.94C111.843 211.246 114.173 212.697 116.704 212.613L153.814 211.37C156.863 211.268 159.613 213.188 160.562 216.082L173.876 256.707C174.625 258.992 176.904 260.417 179.291 260.091L218.897 254.69C222.596 254.186 226.102 256.481 227.112 260.069L238 298.766C239.181 302.963 233.787 305.797 230.988 302.45L211.967 279.708C210.802 278.315 208.969 277.665 207.184 278.012L164.623 286.293C162.188 286.767 159.731 285.589 158.58 283.396L145.452 258.385C144.238 256.072 141.582 254.904 139.052 255.569L95.7583 266.952C114.461 301.685 151.214 325.35 193.569 325.35H37.4026C16.7457 325.35 0 342.061 0 362.675V400H480V362.675C480 342.061 463.254 325.35 442.597 325.35H281.143C342.425 325.35 392.104 275.774 392.104 214.619C392.104 153.464 342.425 103.888 281.143 103.888H254.961L249.351 57.8538H231.273Z" fill="#FF8047"/>
<ellipse cx="240.312" cy="185.381" rx="42.7013" ry="50.3888" fill="white"/>
<path fill-rule="evenodd" clip-rule="evenodd" d="M252.213 185.692L265.672 199.123C267.863 201.309 267.863 204.854 265.672 207.041L261.705 211C259.514 213.186 255.961 213.186 253.77 211L240.312 197.569L226.853 211C224.662 213.186 221.109 213.186 218.918 211L214.951 207.041C212.76 204.854 212.76 201.309 214.951 199.123L228.41 185.692L214.951 172.261C212.76 170.075 212.76 166.53 214.951 164.343L218.918 160.384C221.109 158.198 224.662 158.198 226.853 160.384L240.312 173.815L253.77 160.384C255.961 158.198 259.514 158.198 261.705 160.384L265.672 164.343C267.863 166.53 267.863 170.075 265.672 172.261L252.213 185.692Z" fill="#1C4EF8"/>
<ellipse cx="240.312" cy="41.3686" rx="25.2468" ry="25.1944" fill="#38FBB0"/>
</svg>
