<svg width="788" height="678" viewBox="0 0 788 678" fill="none" xmlns="http://www.w3.org/2000/svg">
<circle cx="394" cy="422" r="248" fill="white" stroke="#FF8047" stroke-width="16"/>
<path d="M176.474 557.044C177.711 556.942 178.963 556.89 180.227 556.89H208.946V334.974C208.946 325.037 217.001 316.981 226.938 316.981H562.783C572.719 316.981 580.775 325.037 580.775 334.974V556.89H605.019C607.166 556.89 609.277 557.04 611.344 557.331C566.132 629.789 485.695 678 393.998 678C302.18 678 221.652 629.661 176.474 557.044Z" fill="#FF8047"/>
<path d="M247.924 298.987C241.3 298.987 235.93 304.358 235.93 310.983V532.898C235.93 539.523 241.3 544.894 247.924 544.894H364.87C376.463 544.894 385.861 554.292 385.861 565.886C385.861 570.855 389.888 574.882 394.856 574.882C399.825 574.882 403.852 570.855 403.852 565.886C403.852 554.292 413.25 544.894 424.843 544.894H541.789C548.413 544.894 553.783 539.523 553.783 532.898V310.983C553.783 304.358 548.413 298.987 541.789 298.987H247.924Z" fill="#FFFF01"/>
<path d="M470.576 514.906C475.544 514.906 479.572 510.878 479.572 505.909C479.572 500.94 475.544 496.912 470.576 496.912L421.848 496.912C416.88 496.912 412.853 500.94 412.853 505.909C412.853 510.878 416.88 514.906 421.848 514.906L470.576 514.906Z" fill="#01D098"/>
<path d="M535.796 505.909C535.796 510.878 531.768 514.906 526.8 514.906H503.561C498.592 514.906 494.565 510.878 494.565 505.909C494.565 500.94 498.592 496.912 503.561 496.912H526.8C531.768 496.912 535.796 500.94 535.796 505.909Z" fill="#01D098"/>
<path d="M535.796 469.923C535.796 474.891 531.768 478.919 526.8 478.919L421.848 478.919C416.88 478.919 412.853 474.891 412.853 469.923C412.853 464.954 416.88 460.926 421.848 460.926L526.8 460.926C531.768 460.926 535.796 464.954 535.796 469.923Z" fill="#01D098"/>
<path d="M439.84 433.936C439.84 438.905 435.813 442.933 430.844 442.933L421.849 442.933C416.88 442.933 412.853 438.905 412.853 433.936C412.853 428.967 416.88 424.939 421.849 424.939L430.844 424.939C435.813 424.939 439.84 428.967 439.84 433.936Z" fill="#01D098"/>
<path d="M526.8 442.933C531.768 442.933 535.796 438.905 535.796 433.936C535.796 428.967 531.768 424.939 526.8 424.939L466.828 424.939C461.86 424.939 457.832 428.967 457.832 433.936C457.832 438.905 461.86 442.933 466.828 442.933L526.8 442.933Z" fill="#01D098"/>
<path d="M253.926 433.936C253.926 428.968 257.953 424.94 262.922 424.94H367.873C372.842 424.94 376.869 428.968 376.869 433.936C376.869 438.905 372.842 442.933 367.873 442.933H262.922C257.953 442.933 253.926 438.905 253.926 433.936Z" fill="#01D098"/>
<path d="M253.926 469.923C253.926 464.954 257.953 460.926 262.922 460.926H286.161C291.129 460.926 295.157 464.954 295.157 469.923C295.157 474.891 291.129 478.919 286.161 478.919H262.922C257.953 478.919 253.926 474.891 253.926 469.923Z" fill="#01D098"/>
<path d="M319.146 460.926C314.177 460.926 310.15 464.954 310.15 469.923C310.15 474.891 314.177 478.919 319.146 478.919H367.873C372.842 478.919 376.869 474.891 376.869 469.923C376.869 464.954 372.842 460.926 367.873 460.926H319.146Z" fill="#01D098"/>
<path d="M349.882 505.909C349.882 500.94 353.909 496.912 358.877 496.912H367.873C372.842 496.912 376.869 500.94 376.869 505.909C376.869 510.878 372.842 514.906 367.873 514.906H358.877C353.909 514.906 349.882 510.878 349.882 505.909Z" fill="#01D098"/>
<path d="M262.922 496.912C257.953 496.912 253.926 500.94 253.926 505.909C253.926 510.878 257.953 514.906 262.922 514.906H322.894C327.862 514.906 331.89 510.878 331.89 505.909C331.89 500.94 327.862 496.912 322.894 496.912H262.922Z" fill="#01D098"/>
<path d="M385.863 336.474C385.863 366.286 365.725 390.453 340.884 390.453C316.042 390.453 295.904 366.286 295.904 336.474C295.904 306.662 316.042 282.494 340.884 282.494C365.725 282.494 385.863 306.662 385.863 336.474Z" fill="white"/>
<path d="M493.813 336.474C493.813 366.286 473.675 390.453 448.834 390.453C423.992 390.453 403.855 366.286 403.855 336.474C403.855 306.662 423.992 282.494 448.834 282.494C473.675 282.494 493.813 306.662 493.813 336.474Z" fill="white"/>
<path d="M370.871 336.473C370.871 356.348 357.446 372.459 340.885 372.459C324.324 372.459 310.898 356.348 310.898 336.473C310.898 316.598 324.324 300.487 340.885 300.487C357.446 300.487 370.871 316.598 370.871 336.473Z" fill="#1E4DF8"/>
<path d="M478.821 336.473C478.821 356.348 465.396 372.459 448.835 372.459C432.274 372.459 418.849 356.348 418.849 336.473C418.849 316.598 432.274 300.487 448.835 300.487C465.396 300.487 478.821 316.598 478.821 336.473Z" fill="#1E4DF8"/>
<path fill-rule="evenodd" clip-rule="evenodd" d="M340.882 406.946C364.992 406.946 384.256 392.618 394.857 372.697C405.457 392.618 424.721 406.946 448.832 406.946C483.005 406.946 507.44 378.164 511.276 345.47H535.792C540.76 345.47 544.788 341.442 544.788 336.473C544.788 331.505 540.76 327.477 535.792 327.477H511.276C507.44 294.782 483.005 266 448.832 266C424.721 266 405.457 280.328 394.857 300.249C384.256 280.328 364.992 266 340.882 266C306.709 266 282.274 294.782 278.438 327.477H253.922C248.953 327.477 244.926 331.505 244.926 336.473C244.926 341.442 248.953 345.47 253.922 345.47H278.438C282.274 378.164 306.709 406.946 340.882 406.946ZM403.853 336.473C403.853 365.457 423.99 388.953 448.832 388.953C473.673 388.953 493.811 365.457 493.811 336.473C493.811 307.489 473.673 283.993 448.832 283.993C423.99 283.993 403.853 307.489 403.853 336.473ZM385.861 336.473C385.861 365.457 365.723 388.953 340.882 388.953C316.04 388.953 295.902 365.457 295.902 336.473C295.902 307.489 316.04 283.993 340.882 283.993C365.723 283.993 385.861 307.489 385.861 336.473Z" fill="#01A182"/>
<path d="M361.295 0H426.705L419.437 108.805H368.563L361.295 0Z" fill="#FEFEA0"/>
<path d="M0 245.879L32.7052 189.342L123.483 250.027L98.0457 294L0 245.879Z" fill="#FEFEA0"/>
<path d="M755.295 189.342L788 245.879L689.954 294L664.517 250.027L755.295 189.342Z" fill="#FEFEA0"/>
<path d="M592.873 47.4283L630.638 69.1894L572.982 161.604L541.511 143.47L592.873 47.4283Z" fill="#FEFEA0"/>
<path d="M156.803 69.1894L194.568 47.4283L245.93 143.47L214.459 161.604L156.803 69.1894Z" fill="#FEFEA0"/>
</svg>
