<svg width="24" height="24" viewBox="0 0 24 24" xmlns="http://www.w3.org/2000/svg">
<path d="M12 2C12.5523 2 13 2.44772 13 3V4C13 4.55228 12.5523 5 12 5C11.4477 5 11 4.55228 11 4V3C11 2.44772 11.4477 2 12 2Z" />
<path d="M2 12C2 11.4477 2.44772 11 3 11H4C4.55228 11 5 11.4477 5 12C5 12.5523 4.55228 13 4 13H3C2.44772 13 2 12.5523 2 12Z" />
<path d="M19 12C19 11.4477 19.4477 11 20 11H21C21.5523 11 22 11.4477 22 12C22 12.5523 21.5523 13 21 13H20C19.4477 13 19 12.5523 19 12Z" />
<path d="M12 19C12.5523 19 13 19.4477 13 20V21C13 21.5523 12.5523 22 12 22C11.4477 22 11 21.5523 11 21V20C11 19.4477 11.4477 19 12 19Z" />
<path fill-rule="evenodd" clip-rule="evenodd" d="M6 12C6 8.68629 8.68629 6 12 6C15.3137 6 18 8.68629 18 12C18 15.3137 15.3137 18 12 18C8.68629 18 6 15.3137 6 12ZM16 12C16 14.2091 14.2091 16 12 16C11.6547 16 11.3196 15.9562 11 15.874C12.7252 15.4299 14 13.8638 14 12C14 10.1362 12.7252 8.57006 11 8.12602C11.3196 8.04375 11.6547 8 12 8C14.2091 8 16 9.79086 16 12Z" />
<path d="M6.34316 4.92893C5.95264 4.53841 5.31947 4.53841 4.92895 4.92893C4.53842 5.31946 4.53842 5.95262 4.92895 6.34315L5.63606 7.05025C6.02658 7.44078 6.65974 7.44078 7.05027 7.05025C7.44079 6.65973 7.44079 6.02656 7.05027 5.63604L6.34316 4.92893Z" />
<path d="M4.92895 17.6569C4.53842 18.0474 4.53842 18.6805 4.92895 19.0711C5.31947 19.4616 5.95264 19.4616 6.34316 19.0711L7.05027 18.364C7.44079 17.9734 7.44079 17.3403 7.05027 16.9497C6.65974 16.5592 6.02658 16.5592 5.63605 16.9497L4.92895 17.6569Z" />
<path d="M16.9498 5.63604C16.5592 6.02656 16.5592 6.65973 16.9498 7.05025C17.3403 7.44078 17.9735 7.44078 18.364 7.05025L19.0711 6.34315C19.4616 5.95262 19.4616 5.31946 19.0711 4.92893C18.6806 4.53841 18.0474 4.53841 17.6569 4.92893L16.9498 5.63604Z" />
<path d="M19.0711 17.6569L18.364 16.9497C17.9735 16.5592 17.3403 16.5592 16.9498 16.9497C16.5592 17.3403 16.5592 17.9734 16.9498 18.364L17.6569 19.0711C18.0474 19.4616 18.6806 19.4616 19.0711 19.0711C19.4616 18.6805 19.4616 18.0474 19.0711 17.6569Z" />
</svg>
