<svg width="64" height="64" viewBox="0 0 64 64" fill="none" xmlns="http://www.w3.org/2000/svg">
<path d="M42.5574 0.405063V22.0759H63.6066C63.8689 22.0759 64 22.1885 64 22.4135V43.4768C64 43.7018 63.8689 43.8143 63.6066 43.8143H42.5574V63.5949C42.5574 63.865 42.4481 64 42.2295 64H21.7705C21.5519 64 21.4426 63.865 21.4426 63.5949V43.8143H0.393443C0.131148 43.8143 0 43.7018 0 43.4768V22.4135C0 22.1885 0.131148 22.0759 0.393443 22.0759H21.4426V0.405063C21.4426 0.135021 21.5519 0 21.7705 0H42.2295C42.4481 0 42.5574 0.135021 42.5574 0.405063ZM49.2459 37.9409L57.2459 33.2152C57.4208 33.0352 57.4208 32.8551 57.2459 32.6751L49.2459 27.9494C49.1585 27.8594 49.0492 27.8594 48.918 27.9494C48.8306 27.9944 48.7869 28.0844 48.7869 28.2194V37.6709C48.7869 37.8059 48.8306 37.9184 48.918 38.0084C49.0492 38.0534 49.1585 38.0309 49.2459 37.9409Z" fill="#1D1F3F"/>
</svg>
