<svg width="64" height="64" viewBox="0 0 64 64" fill="none" xmlns="http://www.w3.org/2000/svg">
<path d="M32.2623 48.3453L47.1475 23.482C47.235 23.3943 47.235 23.3066 47.1475 23.2189C47.0601 23.0874 46.9727 23.0216 46.8852 23.0216H17.1148C17.0273 23.0216 16.9399 23.0874 16.8525 23.2189C16.765 23.3066 16.765 23.3943 16.8525 23.482L31.7377 48.3453C31.9126 48.5207 32.0874 48.5207 32.2623 48.3453ZM32 0C36.4153 0 40.5683 0.855087 44.459 2.56526C48.3497 4.23159 51.7377 6.51182 54.6229 9.40596C57.5082 12.3001 59.7814 15.6985 61.4426 19.6012C63.1475 23.5039 64 27.6698 64 32.0987C64 36.5276 63.1475 40.6934 61.4426 44.5961C59.7814 48.455 57.5082 51.8315 54.6229 54.7256C51.7377 57.5759 48.3497 59.8342 44.459 61.5005C40.5683 63.1668 36.4153 64 32 64C27.5847 64 23.4317 63.1668 19.541 61.5005C15.6503 59.8342 12.2623 57.5759 9.37705 54.7256C6.4918 51.8315 4.19672 48.455 2.4918 44.5961C0.830601 40.6934 0 36.5276 0 32.0987C0 27.6698 0.830601 23.5039 2.4918 19.6012C4.19672 15.6985 6.4918 12.3001 9.37705 9.40596C12.2623 6.51182 15.6503 4.23159 19.541 2.56526C23.4317 0.855087 27.5847 0 32 0ZM32 5.13052C28.2842 5.13052 24.7869 5.85406 21.5082 7.30113C18.2732 8.70435 15.4317 10.6338 12.9836 13.0894C10.5792 15.5012 8.65574 18.3515 7.21311 21.6403C5.81421 24.8852 5.11475 28.3714 5.11475 32.0987C5.11475 35.826 5.81421 39.334 7.21311 42.6228C8.65574 45.8678 10.5792 48.6961 12.9836 51.1079C15.4317 53.5197 18.2732 55.4272 21.5082 56.8304C24.7869 58.1898 28.2842 58.8695 32 58.8695C35.7158 58.8695 39.1913 58.1898 42.4262 56.8304C45.7049 55.4272 48.5464 53.5197 50.9508 51.1079C53.3989 48.6961 55.3224 45.8678 56.7213 42.6228C58.1639 39.334 58.8852 35.826 58.8852 32.0987C58.8852 28.3714 58.1639 24.8852 56.7213 21.6403C55.3224 18.3515 53.3989 15.5012 50.9508 13.0894C48.5464 10.6338 45.7049 8.70435 42.4262 7.30113C39.1913 5.85406 35.7158 5.13052 32 5.13052Z" fill="#1D1F3F"/>
</svg>
