<svg width="64" height="64" viewBox="0 0 64 64" fill="none" xmlns="http://www.w3.org/2000/svg">
<path d="M17.1323 41.3073H46.8677C46.999 41.3073 47.1084 41.2634 47.1959 41.1757C47.2834 41.0442 47.2834 40.9346 47.1959 40.8469L32.2954 15.9836C32.0328 15.7205 31.8578 15.7205 31.7703 15.9836L16.8697 40.8469C16.7822 40.9346 16.7603 41.0442 16.8041 41.1757C16.8916 41.2634 17.001 41.3073 17.1323 41.3073ZM32.0328 0C34.9648 0 37.7873 0.394656 40.5005 1.18397C43.2574 1.92943 45.8174 3.00377 48.1805 4.40699C50.5436 5.81021 52.6879 7.49846 54.6133 9.47174C56.5826 11.4012 58.2455 13.5498 59.6021 15.9178C61.0024 18.2857 62.0745 20.851 62.8185 23.6136C63.6062 26.3323 64 29.1607 64 32.0987C64 36.5276 63.1467 40.6934 61.44 44.5961C59.7771 48.455 57.5015 51.8315 54.6133 54.7256C51.7251 57.5759 48.3337 59.8342 44.439 61.5005C40.5443 63.1668 36.4089 64 32.0328 64C27.613 64 23.4557 63.1668 19.561 61.5005C15.6663 59.8342 12.2749 57.5759 9.38667 54.7256C6.49846 51.8315 4.20103 48.455 2.49436 44.5961C0.831453 40.6934 0 36.5276 0 32.0987C0 27.6698 0.831453 23.5039 2.49436 19.6012C4.20103 15.6985 6.49846 12.3001 9.38667 9.40596C12.2749 6.51182 15.6663 4.23159 19.561 2.56526C23.4557 0.855087 27.613 0 32.0328 0Z" fill="#1D1F3F"/>
</svg>
