<svg width="64" height="64" viewBox="0 0 64 64" fill="none" xmlns="http://www.w3.org/2000/svg">
<path d="M42.9715 13.1628C42.9715 14.685 42.6775 16.1226 42.0894 17.4757C41.5014 18.8288 40.7033 20.0127 39.6951 21.0275C38.687 22.0423 37.5108 22.8457 36.1667 23.4376C34.8225 23.9873 33.3943 24.2622 31.8821 24.2622C30.3699 24.2622 28.9417 23.9873 27.5976 23.4376C26.2534 22.8457 25.0772 22.0423 24.0691 21.0275C23.061 20.0127 22.2629 18.8288 21.6748 17.4757C21.0867 16.1226 20.7927 14.685 20.7927 13.1628C20.7927 11.6406 21.0867 10.203 21.6748 8.84989C22.2629 7.49683 23.061 6.3129 24.0691 5.2981C25.0772 4.2833 26.2534 3.47992 27.5976 2.88795C28.9417 2.29598 30.3699 2 31.8821 2C33.3943 2 34.8225 2.29598 36.1667 2.88795C37.5108 3.47992 38.687 4.2833 39.6951 5.2981C40.7033 6.3129 41.5014 7.49683 42.0894 8.84989C42.6775 10.203 42.9715 11.6406 42.9715 13.1628ZM38.624 13.1628C38.624 12.2326 38.435 11.3658 38.0569 10.5624C37.7209 9.7167 37.2378 8.97674 36.6077 8.34249C36.0196 7.70825 35.3056 7.22199 34.4654 6.88372C33.6673 6.50317 32.8062 6.3129 31.8821 6.3129C30.958 6.3129 30.0759 6.50317 29.2358 6.88372C28.4377 7.22199 27.7236 7.70825 27.0935 8.34249C26.5054 8.97674 26.0224 9.7167 25.6443 10.5624C25.3083 11.3658 25.1402 12.2326 25.1402 13.1628C25.1402 14.093 25.3083 14.981 25.6443 15.8266C26.0224 16.63 26.5054 17.3488 27.0935 17.9831C27.7236 18.5751 28.4377 19.0613 29.2358 19.4419C30.0759 19.7801 30.958 19.9493 31.8821 19.9493C32.8062 19.9493 33.6673 19.7801 34.4654 19.4419C35.3056 19.0613 36.0196 18.5751 36.6077 17.9831C37.2378 17.3488 37.7209 16.63 38.0569 15.8266C38.435 14.981 38.624 14.093 38.624 13.1628ZM24.5732 32.3171C24.5732 30.6258 24.2371 29.019 23.565 27.4968C22.935 25.9746 22.0528 24.6638 20.9187 23.5645C19.8266 22.4651 18.5244 21.5983 17.0122 20.9641C15.542 20.2875 13.9668 19.9493 12.2866 19.9493C10.5644 19.9493 8.94715 20.2875 7.43496 20.9641C5.96477 21.5983 4.6836 22.4651 3.59146 23.5645C2.49932 24.6638 1.61721 25.9746 0.945122 27.4968C0.315041 29.019 0 30.6258 0 32.3171C0 34.0507 0.315041 35.6786 0.945122 37.2008C1.61721 38.6808 2.49932 39.9704 3.59146 41.0698C4.6836 42.1691 5.96477 43.0571 7.43496 43.7336C8.94715 44.3679 10.5644 44.685 12.2866 44.685C13.9668 44.685 15.542 44.3679 17.0122 43.7336C18.5244 43.0571 19.8266 42.1691 20.9187 41.0698C22.0528 39.9704 22.935 38.6808 23.565 37.2008C24.2371 35.6786 24.5732 34.0507 24.5732 32.3171ZM42.9715 51.2178C42.9715 52.6977 42.6775 54.093 42.0894 55.4038C41.5014 56.7146 40.7033 57.8562 39.6951 58.8288C38.687 59.8013 37.5108 60.5624 36.1667 61.112C34.8225 61.704 33.3943 62 31.8821 62C30.3699 62 28.9417 61.704 27.5976 61.112C26.2534 60.5624 25.0772 59.8013 24.0691 58.8288C23.061 57.8562 22.2629 56.7146 21.6748 55.4038C21.1287 54.093 20.8557 52.6977 20.8557 51.2178C20.8557 49.6956 21.1287 48.2579 21.6748 46.9049C22.2629 45.5518 23.061 44.3679 24.0691 43.3531C25.0772 42.3383 26.2534 41.5349 27.5976 40.9429C28.9417 40.351 30.3699 40.055 31.8821 40.055C33.3943 40.055 34.8225 40.351 36.1667 40.9429C37.5108 41.5349 38.687 42.3383 39.6951 43.3531C40.7033 44.3679 41.5014 45.5518 42.0894 46.9049C42.6775 48.2579 42.9715 49.6956 42.9715 51.2178ZM38.624 51.2178C38.624 50.2875 38.435 49.4207 38.0569 48.6173C37.7209 47.7717 37.2378 47.0317 36.6077 46.3975C36.0196 45.7632 35.3056 45.277 34.4654 44.9387C33.6673 44.5581 32.8062 44.3679 31.8821 44.3679C30.958 44.3679 30.0759 44.5581 29.2358 44.9387C28.4377 45.277 27.7236 45.7632 27.0935 46.3975C26.5054 47.0317 26.0224 47.7717 25.6443 48.6173C25.3083 49.4207 25.1402 50.2875 25.1402 51.2178C25.1402 53.1205 25.7913 54.685 27.0935 55.9112C28.3957 57.0951 29.9919 57.6871 31.8821 57.6871C33.7724 57.6871 35.3686 57.0951 36.6707 55.9112C37.9729 54.685 38.624 53.1205 38.624 51.2178Z" fill="#1D1F3F"/>
<path d="M39.4268 32.3171C39.4268 30.6258 39.7629 29.019 40.435 27.4968C41.065 25.9746 41.9472 24.6638 43.0813 23.5645C44.1734 22.4651 45.4756 21.5983 46.9878 20.9641C48.458 20.2875 50.0332 19.9493 51.7134 19.9493C53.4356 19.9493 55.0528 20.2875 56.565 20.9641C58.0352 21.5983 59.3164 22.4651 60.4085 23.5645C61.5007 24.6638 62.3828 25.9746 63.0549 27.4968C63.685 29.019 64 30.6258 64 32.3171C64 34.0507 63.685 35.6786 63.0549 37.2008C62.3828 38.6808 61.5007 39.9704 60.4085 41.0698C59.3164 42.1691 58.0352 43.0571 56.565 43.7336C55.0528 44.3679 53.4356 44.685 51.7134 44.685C50.0332 44.685 48.458 44.3679 46.9878 43.7336C45.4756 43.0571 44.1734 42.1691 43.0813 41.0698C41.9472 39.9704 41.065 38.6808 40.435 37.2008C39.7629 35.6786 39.4268 34.0507 39.4268 32.3171Z" fill="#1D1F3F"/>
</svg>
