<svg width="64" height="64" viewBox="0 0 64 64" fill="none" xmlns="http://www.w3.org/2000/svg">
<path d="M43.7992 12.0538C43.7992 13.7208 43.4854 15.2809 42.8577 16.7342C42.272 18.1875 41.4351 19.4698 40.3473 20.5812C39.3013 21.6498 38.0669 22.5047 36.6444 23.1458C35.2218 23.7442 33.6946 24.0434 32.0628 24.0434C30.431 24.0434 28.9038 23.7442 27.4812 23.1458C26.0586 22.5047 24.8033 21.6498 23.7155 20.5812C22.6695 19.4698 21.8326 18.1875 21.205 16.7342C20.6192 15.2809 20.3264 13.7208 20.3264 12.0538C20.3264 10.3868 20.6192 8.82661 21.205 7.37332C21.8326 5.92003 22.6695 4.65908 23.7155 3.59049C24.8033 2.47915 26.0586 1.6029 27.4812 0.961737C28.9038 0.320579 30.431 0 32.0628 0C33.6946 0 35.2218 0.320579 36.6444 0.961737C38.0669 1.6029 39.3013 2.47915 40.3473 3.59049C41.4351 4.65908 42.272 5.92003 42.8577 7.37332C43.4854 8.82661 43.7992 10.3868 43.7992 12.0538ZM13.046 20.7094C11.5397 20.7094 10.1172 21.0086 8.77824 21.607C7.43933 22.2054 6.26778 23.0176 5.2636 24.0434C4.25941 25.0693 3.46444 26.2661 2.87866 27.6339C2.29289 29.0017 2 30.455 2 31.9938C2 33.5326 2.29289 34.9859 2.87866 36.3537C3.46444 37.7215 4.25941 38.9183 5.2636 39.9442C6.26778 40.97 7.43933 41.7821 8.77824 42.3806C10.1172 42.979 11.5397 43.2782 13.046 43.2782C14.5523 43.2782 15.9749 42.979 17.3138 42.3806C18.6527 41.7821 19.8243 40.97 20.8285 39.9442C21.8326 38.9183 22.6276 37.7215 23.2134 36.3537C23.7992 34.9859 24.0921 33.5326 24.0921 31.9938C24.0921 30.455 23.7992 29.0017 23.2134 27.6339C22.6276 26.2661 21.8326 25.0693 20.8285 24.0434C19.8243 23.0176 18.6527 22.2054 17.3138 21.607C15.9749 21.0086 14.5523 20.7094 13.046 20.7094ZM13.046 25.1334C13.9665 25.1334 14.8243 25.3257 15.6192 25.7104C16.4561 26.0524 17.1674 26.5439 17.7531 27.1851C18.3808 27.7835 18.8619 28.5102 19.1967 29.365C19.5732 30.1772 19.7615 31.0534 19.7615 31.9938C19.7615 32.9342 19.5732 33.8318 19.1967 34.6867C18.8619 35.4988 18.3808 36.2254 17.7531 36.8666C17.1674 37.465 16.4561 37.9566 15.6192 38.3413C14.8243 38.6832 13.9665 38.8542 13.046 38.8542C12.1255 38.8542 11.2469 38.6832 10.41 38.3413C9.61506 37.9566 8.90377 37.465 8.27615 36.8666C7.69038 36.2254 7.20921 35.4988 6.83264 34.6867C6.49791 33.8318 6.33054 32.9342 6.33054 31.9938C6.33054 31.0534 6.49791 30.1772 6.83264 29.365C7.20921 28.5102 7.69038 27.7835 8.27615 27.1851C8.90377 26.5439 9.61506 26.0524 10.41 25.7104C11.2469 25.3257 12.1255 25.1334 13.046 25.1334ZM51.0167 43.2782C52.523 43.2782 53.9456 42.979 55.2845 42.3806C56.6234 41.7821 57.795 40.97 58.7992 39.9442C59.8033 38.9183 60.5774 37.7215 61.1213 36.3537C61.7071 34.9859 62 33.5326 62 31.9938C62 30.455 61.7071 29.0017 61.1213 27.6339C60.5774 26.2661 59.8033 25.0693 58.7992 24.0434C57.795 23.0176 56.6234 22.2054 55.2845 21.607C53.9456 21.0086 52.523 20.7094 51.0167 20.7094C49.5105 20.7094 48.0879 21.0086 46.749 21.607C45.41 22.2054 44.2385 23.0176 43.2343 24.0434C42.2301 25.0693 41.4351 26.2661 40.8494 27.6339C40.2636 29.0017 39.9707 30.455 39.9707 31.9938C39.9707 33.5326 40.2636 34.9859 40.8494 36.3537C41.4351 37.7215 42.2301 38.9183 43.2343 39.9442C44.2385 40.97 45.41 41.7821 46.749 42.3806C48.0879 42.979 49.5105 43.2782 51.0167 43.2782ZM51.0167 38.8542C50.0544 38.8542 49.1548 38.6832 48.318 38.3413C47.523 37.9566 46.8117 37.465 46.1841 36.8666C45.5983 36.2254 45.1172 35.4988 44.7406 34.6867C44.4059 33.8318 44.2385 32.9342 44.2385 31.9938C44.2385 31.0534 44.4059 30.1772 44.7406 29.365C45.1172 28.5102 45.5983 27.7835 46.1841 27.1851C46.8117 26.5439 47.523 26.0524 48.318 25.7104C49.1548 25.3257 50.0544 25.1334 51.0167 25.1334C51.9372 25.1334 52.795 25.3257 53.59 25.7104C54.4268 26.0524 55.1381 26.5439 55.7239 27.1851C56.3515 27.7835 56.8326 28.5102 57.1674 29.365C57.5439 30.1772 57.7322 31.0534 57.7322 31.9938C57.7322 32.9342 57.5439 33.8318 57.1674 34.6867C56.8326 35.4988 56.3515 36.2254 55.7239 36.8666C55.1381 37.465 54.4268 37.9566 53.59 38.3413C52.795 38.6832 51.9372 38.8542 51.0167 38.8542ZM43.1088 51.1003C43.1088 52.5963 42.8159 54.0069 42.2301 55.332C41.6444 56.657 40.8494 57.8111 39.8452 58.7942C38.841 59.7773 37.6695 60.5467 36.3305 61.1024C34.9916 61.7008 33.569 62 32.0628 62C30.5565 62 29.1339 61.7008 27.795 61.1024C26.4561 60.5467 25.2845 59.7773 24.2803 58.7942C23.2761 57.8111 22.4812 56.657 21.8954 55.332C21.3515 54.0069 21.0795 52.5963 21.0795 51.1003C21.0795 49.5615 21.3515 48.1082 21.8954 46.7404C22.4812 45.3726 23.2761 44.1758 24.2803 43.1499C25.2845 42.1241 26.4561 41.312 27.795 40.7135C29.1339 40.1151 30.5565 39.8159 32.0628 39.8159C33.569 39.8159 34.9916 40.1151 36.3305 40.7135C37.6695 41.312 38.841 42.1241 39.8452 43.1499C40.8494 44.1758 41.6444 45.3726 42.2301 46.7404C42.8159 48.1082 43.1088 49.5615 43.1088 51.1003ZM38.7782 51.1003C38.7782 50.1599 38.59 49.2837 38.2134 48.4716C37.8787 47.6167 37.3975 46.8687 36.7699 46.2275C36.1841 45.5863 35.4728 45.0948 34.636 44.7528C33.841 44.3681 32.9833 44.1758 32.0628 44.1758C31.1423 44.1758 30.2636 44.3681 29.4268 44.7528C28.6318 45.0948 27.9205 45.5863 27.2929 46.2275C26.7071 46.8687 26.2259 47.6167 25.8494 48.4716C25.5146 49.2837 25.3473 50.1599 25.3473 51.1003C25.3473 53.0238 25.9958 54.6053 27.2929 55.8449C28.59 57.0417 30.1799 57.6401 32.0628 57.6401C33.9456 57.6401 35.5356 57.0417 36.8326 55.8449C38.1297 54.6053 38.7782 53.0238 38.7782 51.1003Z" fill="#1D1F3F"/>
</svg>
