<svg width="64" height="64" viewBox="0 0 64 64" fill="none" xmlns="http://www.w3.org/2000/svg">
<path d="M43.7992 52.395C43.7992 50.728 43.4854 49.1679 42.8577 47.7146C42.272 46.2613 41.4351 45.0003 40.3473 43.9317C39.3013 42.8204 38.0669 41.9655 36.6444 41.3671C35.2218 40.726 33.6946 40.4054 32.0628 40.4054C30.431 40.4054 28.9038 40.726 27.4812 41.3671C26.0586 41.9655 24.8033 42.8204 23.7155 43.9317C22.6695 45.0003 21.8326 46.2613 21.205 47.7146C20.6192 49.1679 20.3264 50.728 20.3264 52.395C20.3264 53.9338 20.6192 55.4085 21.205 56.819C21.8326 58.1868 22.6695 59.405 23.7155 60.4736C24.8033 61.5422 26.0586 62.3971 27.4812 63.0383C28.9038 63.6794 30.431 64 32.0628 64C33.6946 64 35.2218 63.6794 36.6444 63.0383C38.0669 62.3971 39.3013 61.5422 40.3473 60.4736C41.4351 59.405 42.272 58.1868 42.8577 56.819C43.4854 55.4085 43.7992 53.9338 43.7992 52.395ZM13.046 43.7394C11.5397 43.7394 10.1172 43.4402 8.77824 42.8418C7.43933 42.2434 6.26778 41.4312 5.2636 40.4054C4.25941 39.3795 3.46444 38.1827 2.87866 36.8149C2.29289 35.4471 2 33.9938 2 32.455C2 30.9162 2.29289 29.4629 2.87866 28.0951C3.46444 26.7273 4.25941 25.5305 5.2636 24.5047C6.26778 23.4788 7.43933 22.6667 8.77824 22.0683C10.1172 21.4698 11.5397 21.1706 13.046 21.1706C14.5523 21.1706 15.9749 21.4698 17.3138 22.0683C18.6527 22.6667 19.8243 23.4788 20.8285 24.5047C21.8326 25.5305 22.6276 26.7273 23.2134 28.0951C23.7992 29.4629 24.0921 30.9162 24.0921 32.455C24.0921 33.9938 23.7992 35.4471 23.2134 36.8149C22.6276 38.1827 21.8326 39.3795 20.8285 40.4054C19.8243 41.4312 18.6527 42.2434 17.3138 42.8418C15.9749 43.4402 14.5523 43.7394 13.046 43.7394ZM13.046 39.3154C13.9665 39.3154 14.8243 39.1444 15.6192 38.8025C16.4561 38.4178 17.1674 37.9262 17.7531 37.3278C18.3808 36.6867 18.8619 35.96 19.1967 35.1479C19.5732 34.293 19.7615 33.3954 19.7615 32.455C19.7615 31.5146 19.5732 30.6384 19.1967 29.8263C18.8619 28.9714 18.3808 28.2447 17.7531 27.6463C17.1674 27.0052 16.4561 26.5136 15.6192 26.1717C14.8243 25.787 13.9665 25.5946 13.046 25.5946C12.1255 25.5946 11.2469 25.787 10.41 26.1717C9.61506 26.5136 8.90377 27.0052 8.27615 27.6463C7.69038 28.2447 7.20921 28.9714 6.83264 29.8263C6.49791 30.6384 6.33054 31.5146 6.33054 32.455C6.33054 33.3954 6.49791 34.293 6.83264 35.1479C7.20921 35.96 7.69038 36.6867 8.27615 37.3278C8.90377 37.9262 9.61506 38.4178 10.41 38.8025C11.2469 39.1444 12.1255 39.3154 13.046 39.3154ZM21.0167 13.092C21.0167 11.596 21.2887 10.1855 21.8326 8.86039C22.4184 7.49259 23.2134 6.31713 24.2176 5.33402C25.2218 4.30817 26.3933 3.49604 27.7322 2.89762C29.0711 2.29921 30.4937 2 32 2C33.5063 2 34.9289 2.29921 36.2678 2.89762C37.6067 3.49604 38.7782 4.30817 39.7824 5.33402C40.7866 6.31713 41.5816 7.49259 42.1674 8.86039C42.7531 10.1855 43.046 11.596 43.046 13.092C43.046 14.6308 42.7531 16.0841 42.1674 17.4519C41.5816 18.8197 40.7866 20.0165 39.7824 21.0424C38.7782 22.0683 37.6067 22.8804 36.2678 23.4788C34.9289 24.0345 33.5063 24.3123 32 24.3123C30.4937 24.3123 29.0711 24.0345 27.7322 23.4788C26.3933 22.8804 25.2218 22.0683 24.2176 21.0424C23.2134 20.0165 22.4184 18.8197 21.8326 17.4519C21.2887 16.0841 21.0167 14.6308 21.0167 13.092ZM25.2845 13.092C25.2845 14.0324 25.4519 14.93 25.7866 15.7849C26.1632 16.597 26.6444 17.3237 27.2301 17.9648C27.8577 18.5633 28.569 19.0548 29.364 19.4395C30.2008 19.7815 31.0795 19.9524 32 19.9524C32.9205 19.9524 33.7782 19.7815 34.5732 19.4395C35.41 19.0548 36.1423 18.5633 36.7699 17.9648C37.3975 17.3237 37.8787 16.597 38.2134 15.7849C38.59 14.93 38.7782 14.0324 38.7782 13.092C38.7782 12.1517 38.59 11.2754 38.2134 10.4633C37.8787 9.65115 37.3975 8.94588 36.7699 8.34747C36.1423 7.70631 35.41 7.21475 34.5732 6.8728C33.7782 6.53085 32.9205 6.35988 32 6.35988C31.0795 6.35988 30.2008 6.53085 29.364 6.8728C28.569 7.21475 27.8577 7.70631 27.2301 8.34747C26.6444 8.94588 26.1632 9.65115 25.7866 10.4633C25.4519 11.2754 25.2845 12.1517 25.2845 13.092ZM51.0167 21.1706C52.523 21.1706 53.9456 21.4698 55.2845 22.0683C56.6234 22.6667 57.795 23.4788 58.7992 24.5047C59.8033 25.5305 60.5774 26.7273 61.1213 28.0951C61.7071 29.4629 62 30.9162 62 32.455C62 33.9938 61.7071 35.4471 61.1213 36.8149C60.5774 38.1827 59.8033 39.3795 58.7992 40.4054C57.795 41.4312 56.6234 42.2434 55.2845 42.8418C53.9456 43.4402 52.523 43.7394 51.0167 43.7394C49.5105 43.7394 48.0879 43.4402 46.749 42.8418C45.41 42.2434 44.2385 41.4312 43.2343 40.4054C42.2301 39.3795 41.4351 38.1827 40.8494 36.8149C40.2636 35.4471 39.9707 33.9938 39.9707 32.455C39.9707 30.9162 40.2636 29.4629 40.8494 28.0951C41.4351 26.7273 42.2301 25.5305 43.2343 24.5047C44.2385 23.4788 45.41 22.6667 46.749 22.0683C48.0879 21.4698 49.5105 21.1706 51.0167 21.1706ZM51.0167 25.5946C50.0544 25.5946 49.1548 25.787 48.318 26.1717C47.523 26.5136 46.8117 27.0052 46.1841 27.6463C45.5983 28.2447 45.1172 28.9714 44.7406 29.8263C44.4059 30.6384 44.2385 31.5146 44.2385 32.455C44.2385 33.3954 44.4059 34.293 44.7406 35.1479C45.1172 35.96 45.5983 36.6867 46.1841 37.3278C46.8117 37.9262 47.523 38.4178 48.318 38.8025C49.1548 39.1444 50.0544 39.3154 51.0167 39.3154C51.9372 39.3154 52.795 39.1444 53.59 38.8025C54.4268 38.4178 55.1381 37.9262 55.7239 37.3278C56.3515 36.6867 56.8326 35.96 57.1674 35.1479C57.5439 34.293 57.7322 33.3954 57.7322 32.455C57.7322 31.5146 57.5439 30.6384 57.1674 29.8263C56.8326 28.9714 56.3515 28.2447 55.7239 27.6463C55.1381 27.0052 54.4268 26.5136 53.59 26.1717C52.795 25.787 51.9372 25.5946 51.0167 25.5946Z" fill="#1D1F3F"/>
</svg>
