<svg width="64" height="64" viewBox="0 0 64 64" fill="none" xmlns="http://www.w3.org/2000/svg">
<path d="M21.9019 12.1786C21.9019 10.7897 22.157 9.48016 22.6673 8.25C23.2169 7.01984 23.9431 5.94841 24.8459 5.03571C25.788 4.08333 26.8675 3.34921 28.0844 2.83333C29.3013 2.27778 30.6163 2 32.0294 2C33.4033 2 34.6987 2.27778 35.9156 2.83333C37.1325 3.34921 38.1923 4.08333 39.0952 5.03571C40.0373 5.94841 40.7635 7.01984 41.2738 8.25C41.8234 9.48016 42.0981 10.7897 42.0981 12.1786C42.0981 13.6071 41.8234 14.9365 41.2738 16.1667C40.7635 17.3968 40.0373 18.4881 39.0952 19.4405C38.1923 20.3532 37.1325 21.0873 35.9156 21.6429C34.6987 22.1587 33.4033 22.4167 32.0294 22.4167C30.6163 22.4167 29.3013 22.1587 28.0844 21.6429C26.8675 21.0873 25.788 20.3532 24.8459 19.4405C23.9431 18.4881 23.2169 17.3968 22.6673 16.1667C22.157 14.9365 21.9019 13.6071 21.9019 12.1786ZM2 32.5952C2 31.2064 2.25515 29.8968 2.76546 28.6667C3.31501 27.4365 4.04122 26.3651 4.94406 25.4524C5.84691 24.5 6.90677 23.7659 8.12365 23.25C9.37978 22.6944 10.6948 22.4167 12.0687 22.4167C13.4818 22.4167 14.7969 22.6944 16.0137 23.25C17.2306 23.7659 18.2905 24.5 19.1933 25.4524C20.1354 26.3651 20.8616 27.4365 21.3719 28.6667C21.9215 29.8968 22.1963 31.2064 22.1963 32.5952C22.1963 34.0238 21.9215 35.3532 21.3719 36.5833C20.8616 37.8135 20.1354 38.9048 19.1933 39.8571C18.2905 40.7698 17.2306 41.504 16.0137 42.0595C14.7969 42.5754 13.4818 42.8333 12.0687 42.8333C10.6948 42.8333 9.37978 42.5754 8.12365 42.0595C6.90677 41.504 5.84691 40.7698 4.94406 39.8571C4.04122 38.9048 3.31501 37.8135 2.76546 36.5833C2.25515 35.3532 2 34.0238 2 32.5952ZM32.0294 62C30.6163 62 29.3013 61.7222 28.0844 61.1667C26.8675 60.6508 25.788 59.9564 24.8459 59.0833C23.9431 58.2103 23.2169 57.2183 22.6673 56.1071C22.157 55.0357 21.9019 53.9246 21.9019 52.7738C21.9019 51.3452 22.157 50.0159 22.6673 48.7857C23.2169 47.5556 23.9431 46.4841 24.8459 45.5714C25.788 44.619 26.8675 43.8849 28.0844 43.369C29.3013 42.8135 30.6163 42.5357 32.0294 42.5357C33.4033 42.5357 34.6987 42.8135 35.9156 43.369C37.1325 43.8849 38.1923 44.619 39.0952 45.5714C40.0373 46.4841 40.7635 47.5556 41.2738 48.7857C41.8234 50.0159 42.0981 51.3452 42.0981 52.7738C42.0981 53.9246 41.8234 55.0357 41.2738 56.1071C40.7635 57.2183 40.0373 58.2103 39.0952 59.0833C38.1923 59.9564 37.1325 60.6508 35.9156 61.1667C34.6987 61.7222 33.4033 62 32.0294 62ZM62 32.0595C62 33.4484 61.7252 34.7778 61.1757 36.0476C60.6654 37.2778 59.9392 38.3492 58.9971 39.2619C58.0942 40.1746 57.0343 40.9087 55.8175 41.4643C54.6006 41.9802 53.3052 42.2381 51.9313 42.2381C50.5182 42.2381 49.2031 41.9802 47.9863 41.4643C46.7694 40.9087 45.6899 40.1746 44.7478 39.2619C43.8449 38.3492 43.1187 37.2778 42.5692 36.0476C42.0589 34.7778 41.8037 33.4484 41.8037 32.0595C41.8037 30.631 42.0589 29.3016 42.5692 28.0714C43.1187 26.8413 43.8449 25.7698 44.7478 24.8571C45.6899 23.9048 46.7694 23.1706 47.9863 22.6548C49.2031 22.0992 50.5182 21.8214 51.9313 21.8214C53.3052 21.8214 54.6006 22.0992 55.8175 22.6548C57.0343 23.1706 58.0942 23.9048 58.9971 24.8571C59.9392 25.7698 60.6654 26.8413 61.1757 28.0714C61.7252 29.3016 62 30.631 62 32.0595Z" fill="#1D1F3F"/>
</svg>
