<svg width="64" height="64" viewBox="0 0 64 64" fill="none" xmlns="http://www.w3.org/2000/svg">
<path d="M41.7223 44.2035H27.8793V16.7538H23.501V48.0879H41.7223V44.2035ZM18.8008 4H63.7425C63.9142 4 64 4.1079 64 4.3237V59.6763C64 59.8921 63.9142 60 63.7425 60H0.321932C0.107311 60 0 59.8921 0 59.6763V22.9688C0 20.336 0.493628 17.8759 1.48089 15.5884C2.46814 13.301 3.79879 11.294 5.47284 9.56763C7.18981 7.84123 9.18578 6.4817 11.4608 5.48902C13.7787 4.49634 16.2254 4 18.8008 4ZM5.02213 55.1445H58.9779V9.04971H18.8008C16.9121 9.04971 15.1308 9.41657 13.4567 10.1503C11.7827 10.884 10.3233 11.8767 9.07847 13.1283C7.83367 14.38 6.84641 15.8474 6.1167 17.5306C5.38699 19.2139 5.02213 21.0266 5.02213 22.9688V55.1445Z" fill="#1D1F3F"/>
</svg>
