<svg width="64" height="64" viewBox="0 0 64 64" fill="none" xmlns="http://www.w3.org/2000/svg">
<path d="M55 30.8466V47.0608C55 48.3351 54.7132 49.6972 54.1396 51.1473C53.6101 52.5973 52.882 53.7837 51.9554 54.7065L51.095 55.5633C50.7861 55.8709 50.4993 56.3543 50.2345 57.0134C50.0139 57.6286 49.9036 58.1119 49.9036 58.4634V59.9794C49.9036 61.0779 49.352 62.0227 48.2489 62.8136C47.7635 63.1651 47.1899 63.4507 46.5281 63.6704C45.8662 63.8902 45.2043 64 44.5424 64H24.6863C23.2302 64 21.9727 63.5826 20.9137 62.7477C19.8547 61.9567 19.3252 61.012 19.3252 59.9135V58.4634C19.3252 58.1998 19.1928 57.8263 18.9281 57.3429C18.6633 56.8596 18.4206 56.53 18.2 56.3543L12.905 52.5314C11.7578 51.6965 10.8091 50.5541 10.059 49.104C9.353 47.654 9 46.2479 9 44.8857V36.9104C9 35.5482 9.353 34.1641 10.059 32.758C10.8091 31.3079 11.7578 30.1655 12.905 29.3306L15.6849 27.3532V7.90937C15.6849 6.81085 15.8835 5.77824 16.2806 4.81153C16.7218 3.84483 17.2734 3.00996 17.9353 2.3069C18.6412 1.60384 19.4576 1.05458 20.3842 0.659114C21.3549 0.219705 22.3698 0 23.4288 0C24.5319 0 25.5468 0.219705 26.4734 0.659114C27.4441 1.05458 28.2825 1.60384 28.9885 2.3069C29.6945 3.00996 30.246 3.84483 30.6432 4.81153C31.0844 5.77824 31.305 6.81085 31.305 7.90937V19.1802C31.3492 19.1363 31.4374 19.1143 31.5698 19.1143H32.1655C33.2245 19.1143 34.2393 19.334 35.2101 19.7734C36.2249 20.1689 37.1074 20.7621 37.8576 21.553C38.6077 21.3773 39.1813 21.2455 39.5784 21.1576C40.0197 21.0697 40.2844 21.0257 40.3727 21.0257C41.4758 21.0257 42.5127 21.2674 43.4835 21.7508C44.4542 22.1902 45.2705 22.8273 45.9324 23.6622C46.2854 23.5743 46.6163 23.4864 46.9252 23.3986C47.2341 23.2667 47.5429 23.2008 47.8518 23.2008C48.8225 23.2008 49.7492 23.3986 50.6317 23.794C51.5142 24.1895 52.2643 24.7388 52.882 25.4418C53.5439 26.1449 54.0513 26.9578 54.4043 27.8805C54.8014 28.8033 55 29.792 55 30.8466ZM50.3007 47.0608V29.8579C50.3007 29.2427 50.036 28.7374 49.5065 28.3419C48.8887 27.9904 48.4034 27.8146 48.0504 27.8146C47.6532 27.8146 47.1679 27.9684 46.5942 28.276C46.0206 28.5836 45.7338 29.0669 45.7338 29.7261V30.9125H43.0201V27.7487C43.0201 27.1335 42.7333 26.6282 42.1597 26.2328C41.6302 25.7933 41.0345 25.5736 40.3727 25.5736C39.799 25.5736 39.2695 25.7714 38.7842 26.1668C38.2988 26.5184 38.0561 27.0017 38.0561 27.6169V30.9125H35.2101V25.9691C35.2101 25.4418 34.8791 24.9365 34.2173 24.4531C33.5995 23.9698 32.9156 23.7281 32.1655 23.7281C31.5918 23.7281 30.9962 23.9698 30.3784 24.4531C29.8048 24.8926 29.518 25.3759 29.518 25.9032V30.9125H26.6719V7.90937C26.6719 6.98661 26.3631 6.21765 25.7453 5.60247C25.1276 4.94336 24.3554 4.6138 23.4288 4.6138C22.5463 4.6138 21.7962 4.94336 21.1784 5.60247C20.5607 6.21765 20.2518 6.98661 20.2518 7.90937V39.0855H16.8101V32.2307L15.6849 33.0216C15.1113 33.4171 14.6259 34.0103 14.2288 34.8012C13.8317 35.5922 13.6331 36.2952 13.6331 36.9104V44.8857C13.6331 45.5448 13.8317 46.2698 14.2288 47.0608C14.67 47.8517 15.1554 48.4449 15.6849 48.8404L20.9799 52.6632C21.8624 53.2784 22.5683 54.1572 23.0978 55.2997C23.6715 56.3982 23.9583 57.4528 23.9583 58.4634V58.5294C23.9583 58.7051 24.0465 58.8589 24.223 58.9907C24.3995 59.1665 24.5981 59.2544 24.8187 59.2544H44.4101C44.6307 59.2544 44.8293 59.1665 45.0058 58.9907C45.1823 58.8589 45.2705 58.7271 45.2705 58.5953V58.4634C45.2705 57.5407 45.4911 56.5081 45.9324 55.3656C46.3736 54.2231 46.9693 53.2564 47.7194 52.4655L48.5137 51.6087C48.999 51.0814 49.4182 50.3783 49.7712 49.4995C50.1242 48.5767 50.3007 47.7638 50.3007 47.0608Z" fill="#1D1F3F"/>
</svg>
