<svg width="64" height="64" viewBox="0 0 64 64" fill="none" xmlns="http://www.w3.org/2000/svg">
<path d="M30.3426 16.2723V34.7227H39.7132V38.3103H26.5179V16.2723H30.3426ZM32 55.4154C35.9097 55.4154 39.5857 54.7534 43.0279 53.4294C46.4701 52.0627 49.4661 50.2049 52.0159 47.8559C54.5657 45.5068 56.5843 42.7734 58.0717 39.6557C59.5591 36.4952 60.3028 33.1425 60.3028 29.5976C60.3028 26.01 59.5591 22.6573 58.0717 19.5395C56.5843 16.379 54.5657 13.6456 52.0159 11.3393C49.4661 8.99032 46.4701 7.13247 43.0279 5.76577C39.5857 4.39907 35.9097 3.71572 32 3.71572C28.0903 3.71572 24.4143 4.39907 20.9721 5.76577C17.5299 7.13247 14.5339 8.99032 11.9841 11.3393C9.43426 13.6456 7.41567 16.379 5.92829 19.5395C4.4409 22.6573 3.69721 26.01 3.69721 29.5976C3.69721 33.1425 4.4409 36.4952 5.92829 39.6557C7.41567 42.7734 9.43426 45.5068 11.9841 47.8559C14.5339 50.2049 17.5299 52.0627 20.9721 53.4294C24.4143 54.7534 28.0903 55.4154 32 55.4154ZM32 0C35.9947 0 39.9044 0.704705 43.7291 2.11411C47.5963 3.48081 51.0173 5.4668 53.992 8.07207C57.0093 10.6773 59.4316 13.8165 61.259 17.4895C63.0863 21.1625 64 25.2626 64 29.7898C64 35.6837 63.1501 40.7875 61.4502 45.1011C59.7503 49.372 57.4555 52.9169 54.5657 55.7357C51.676 58.5546 48.2762 60.626 44.3665 61.95C40.4993 63.3167 36.3772 64 32 64C27.6228 64 23.5007 63.3167 19.6335 61.95C15.7663 60.626 12.3665 58.5546 9.43426 55.7357C6.54449 52.9169 4.24967 49.372 2.5498 45.1011C0.849934 40.7875 0 35.6837 0 29.7898C0 25.2626 0.913679 21.1625 2.74104 17.4895C4.56839 13.8165 6.96946 10.6773 9.94422 8.07207C12.9615 5.4668 16.3825 3.48081 20.2072 2.11411C24.0319 0.704705 27.9628 0 32 0ZM32 6.47047C35.2297 6.47047 38.247 7.04705 41.0518 8.2002C43.8991 9.31064 46.3639 10.8482 48.4462 12.8128C50.5711 14.7347 52.2284 16.9983 53.4183 19.6036C54.6507 22.2089 55.2669 24.985 55.2669 27.9319C55.2669 30.8789 54.6507 33.655 53.4183 36.2603C52.2284 38.8655 50.5711 41.1505 48.4462 43.1151C46.3639 45.037 43.8991 46.5746 41.0518 47.7277C38.247 48.8382 35.2297 49.3934 32 49.3934C28.7703 49.3934 25.7317 48.8382 22.8845 47.7277C20.0797 46.5746 17.6149 45.037 15.49 43.1151C13.4077 41.1505 11.7503 38.8655 10.5179 36.2603C9.32802 33.655 8.73307 30.8789 8.73307 27.9319C8.73307 24.985 9.32802 22.2089 10.5179 19.6036C11.7503 16.9983 13.4077 14.7347 15.49 12.8128C17.6149 10.8482 20.0797 9.31064 22.8845 8.2002C25.7317 7.04705 28.7703 6.47047 32 6.47047ZM32 9.60961C29.2377 9.60961 26.6242 10.1008 24.1594 11.0831C21.7371 12.0227 19.6122 13.3253 17.7849 14.991C15.9575 16.6567 14.5126 18.5999 13.4502 20.8208C12.3878 23.0417 11.8566 25.4121 11.8566 27.9319C11.8566 30.4518 12.3878 32.8222 13.4502 35.043C14.5126 37.2639 15.9575 39.2072 17.7849 40.8729C19.6122 42.5385 21.7371 43.8625 24.1594 44.8448C26.6242 45.7845 29.2377 46.2543 32 46.2543C34.7623 46.2543 37.3546 45.7845 39.7769 44.8448C42.2417 43.8625 44.3878 42.5385 46.2151 40.8729C48.0425 39.2072 49.4874 37.2639 50.5498 35.043C51.6122 32.8222 52.1434 30.4518 52.1434 27.9319C52.1434 25.4121 51.6122 23.0417 50.5498 20.8208C49.4874 18.5999 48.0425 16.6567 46.2151 14.991C44.3878 13.3253 42.2417 12.0227 39.7769 11.0831C37.3546 10.1008 34.7623 9.60961 32 9.60961Z" fill="#1D1F3F"/>
</svg>
