<svg width="64" height="64" viewBox="0 0 64 64" fill="none" xmlns="http://www.w3.org/2000/svg">
<path d="M24.7403 20.1444L26.9207 21.9529C25.368 22.4553 23.931 23.1586 22.6095 24.0628C21.3211 24.9335 20.1979 25.9717 19.2398 27.1774C18.3148 28.3496 17.588 29.6557 17.0595 31.0958C16.5309 32.5358 16.2666 34.0429 16.2666 35.617C16.2666 37.6264 16.6796 39.5186 17.5055 41.2936C18.3314 43.0351 19.4546 44.5589 20.8751 45.865C22.2957 47.1711 23.9475 48.2093 25.8305 48.9796C27.7466 49.7164 29.7948 50.0848 31.9752 50.0848C34.1556 50.0848 36.2038 49.7164 38.1199 48.9796C40.036 48.2093 41.7043 47.1711 43.1249 45.865C44.5454 44.5589 45.6686 43.0351 46.4945 41.2936C47.3204 39.5186 47.7334 37.6264 47.7334 35.617C47.7334 34.0429 47.4691 32.5526 46.9405 31.146C46.445 29.7059 45.7347 28.3998 44.8097 27.2276C43.8847 26.0555 42.778 25.034 41.4896 24.1633C40.2012 23.259 38.7972 22.5557 37.2775 22.0534L39.4083 20.1947C40.9941 20.8645 42.4476 21.7185 43.7691 22.7567C45.0905 23.7949 46.2137 24.9838 47.1388 26.3234C48.0968 27.663 48.8401 29.1198 49.3687 30.6939C49.8973 32.2679 50.1615 33.9089 50.1615 35.617C50.1615 37.9948 49.6825 40.1884 48.7245 42.1978C47.7664 44.1737 46.4615 45.8985 44.8097 47.3721C43.1909 48.8121 41.2749 49.9508 39.0614 50.7881C36.848 51.5918 34.486 51.9937 31.9752 51.9937C29.4645 51.9937 27.1024 51.5918 24.889 50.7881C22.7086 49.9508 20.7925 48.8121 19.1407 47.3721C17.522 45.8985 16.2336 44.1737 15.2755 42.1978C14.3175 40.1884 13.8385 37.9948 13.8385 35.617C13.8385 33.8755 14.1027 32.2177 14.6313 30.6436C15.1599 29.0696 15.9032 27.6128 16.8612 26.2732C17.8193 24.9335 18.959 23.7446 20.2805 22.7064C21.635 21.6682 23.1216 20.8142 24.7403 20.1444ZM41.3905 18.4867L43.8186 16.427C45.7017 17.3647 47.4361 18.5201 49.0218 19.8932C50.6406 21.2664 52.0446 22.8237 53.2339 24.5651C54.4232 26.3066 55.3482 28.2323 56.0089 30.3422C56.6696 32.4521 57 34.7127 57 37.124C57 41.5112 56.3393 45.3794 55.0178 48.7284C53.6964 52.0774 51.8959 54.8739 49.6165 57.1177C47.337 59.3951 44.6776 61.1031 41.6383 62.2418C38.5989 63.4139 35.3779 64 31.9752 64C28.5725 64 25.3515 63.4139 22.3122 62.2418C19.3059 61.1031 16.663 59.3951 14.3835 57.1177C12.1041 54.8739 10.3036 52.0774 8.98216 48.7284C7.66072 45.3794 7 41.5112 7 37.124C7 34.6792 7.33036 32.4019 7.99108 30.292C8.68484 28.1821 9.62636 26.2564 10.8157 24.5149C12.005 22.7399 13.409 21.1659 15.0278 19.7928C16.6796 18.4197 18.447 17.2643 20.33 16.3265L22.7582 18.4364C20.8751 19.2402 19.1407 20.2784 17.555 21.551C15.9693 22.7902 14.5983 24.2135 13.442 25.821C12.3188 27.4286 11.4433 29.1701 10.8157 31.0455C10.188 32.921 9.87413 34.8802 9.87413 36.9231C9.87413 39.7363 10.4523 42.3485 11.6085 44.7598C12.7648 47.1376 14.3505 49.1973 16.3657 50.9388C18.3809 52.6468 20.7265 53.9864 23.4024 54.9576C26.0783 55.9623 28.9359 56.4647 31.9752 56.4647C35.0145 56.4647 37.8722 55.9623 40.5481 54.9576C43.257 53.9864 45.6026 52.6468 47.5847 50.9388C49.5999 49.1973 51.1857 47.1376 52.3419 44.7598C53.4982 42.3485 54.0763 39.7363 54.0763 36.9231C54.0763 34.9137 53.7625 32.9712 53.1348 31.0958C52.5071 29.2203 51.6316 27.4788 50.5084 25.8713C49.4182 24.2637 48.0968 22.8404 46.5441 21.6013C44.9914 20.3286 43.2735 19.2904 41.3905 18.4867ZM37.9713 0.251177V8.13815H47.337C47.4691 8.13815 47.5517 8.20513 47.5847 8.33909C47.6178 8.47305 47.5847 8.57352 47.4856 8.6405L32.2725 21.6013C32.2065 21.6682 32.1569 21.7017 32.1239 21.7017C32.0578 21.7017 31.9917 21.6682 31.9257 21.6013L16.7126 8.6405C16.6135 8.57352 16.5804 8.47305 16.6135 8.33909C16.6796 8.20513 16.7787 8.13815 16.9108 8.13815H26.0287V0.251177C26.0287 0.0837258 26.1113 0 26.2765 0H37.6739C37.8722 0 37.9713 0.0837258 37.9713 0.251177Z" fill="#1D1F3F"/>
</svg>
