<svg width="64" height="64" viewBox="0 0 64 64" fill="none" xmlns="http://www.w3.org/2000/svg">
<path d="M31.6426 0H49.7056C51.6548 0 53.4958 0.398754 55.2284 1.19626C56.9611 1.94946 58.4772 2.99065 59.7766 4.31983C61.0761 5.64901 62.0941 7.19972 62.8305 8.97196C63.6102 10.7442 64 12.6272 64 14.621V64H0V32.432C0 29.4635 0.36819 26.6057 1.10457 23.8588C1.88426 21.0675 2.94552 18.4756 4.28832 16.0831C5.67445 13.6905 7.32047 11.5196 9.2264 9.57009C11.1756 7.57632 13.3198 5.87054 15.6589 4.45275C17.998 3.03496 20.5103 1.94946 23.1959 1.19626C25.9249 0.398754 28.7404 0 31.6426 0ZM19.1675 43.8629L32.9421 25.055V21.001H13.1249V25.5202H26.6396L12.9949 44.1952L12.865 44.3281V48.4486H33.1371V43.8629H19.1675ZM37.0355 24.9221V48.4486H51.07V44.3281H41.3888V24.9221H37.0355Z" fill="#1D1F3F"/>
</svg>
