<svg width="64" height="64" viewBox="0 0 64 64" fill="none" xmlns="http://www.w3.org/2000/svg">
<path d="M14.2294 0H32.2924C36.6673 0 40.7824 0.852459 44.6376 2.55738C48.4927 4.21858 51.8497 6.4918 54.7086 9.37705C57.5675 12.2623 59.82 15.6503 61.466 19.541C63.1553 23.4317 64 27.5847 64 32V64H0V14.3607C0 12.3934 0.36819 10.5355 1.10457 8.78689C1.84095 7.03825 2.85888 5.5082 4.15838 4.19672C5.45787 2.88525 6.97394 1.85792 8.7066 1.11475C10.4393 0.371585 12.2802 0 14.2294 0ZM32.2924 5.11475H14.2294C12.9733 5.11475 11.7821 5.35519 10.6558 5.83607C9.52961 6.31694 8.55499 6.99454 7.73198 7.86885C6.90897 8.69945 6.25922 9.68306 5.78274 10.8197C5.30626 11.9126 5.06802 13.0929 5.06802 14.3607V58.8852H58.867V32C58.867 28.2842 58.1739 24.8087 56.7878 21.5738C55.4017 18.2951 53.4958 15.4536 51.07 13.0492C48.6876 10.6011 45.8721 8.6776 42.6233 7.27869C39.4179 5.83607 35.9743 5.11475 32.2924 5.11475ZM46.132 31.1475C46.132 29.3115 44.7459 28.3934 41.9736 28.3934H38.9848V33.9672H41.7787C42.8616 33.9672 43.6846 33.8579 44.2477 33.6393C44.8541 33.4208 45.2873 33.1585 45.5472 32.8525C45.8504 32.5464 46.0237 32.2404 46.067 31.9344C46.1103 31.6284 46.132 31.3661 46.132 31.1475ZM45.6122 37.2459L51.6548 47.2787H46.5868L41.1939 37.7705H38.9848V47.2787H34.7614V24.5902H42.1685C44.8108 24.5902 46.8467 25.1585 48.2761 26.2951C49.7056 27.4317 50.4203 29.0492 50.4203 31.1475C50.4203 32.6776 49.9871 33.9672 49.1208 35.0164C48.2978 36.0656 47.1283 36.8087 45.6122 37.2459ZM31.1878 47.2787H11.6305V43.541L25.2751 25.1803H11.9553V21.1148H30.9929V24.8525L17.2832 43.2131H31.1878V47.2787Z" fill="#1D1F3F"/>
</svg>
